<svg xmlns="http://www.w3.org/2000/svg" width="60" height="60" viewBox="0 0 60 60" fill="none"><g clip-path="url(#clip0_67_437)"><path d="M18.6613 10.5051C18.8391 10.5952 19.0409 10.6263 19.2375 10.5938C19.4342 10.5614 19.6153 10.4672 19.7548 10.3248C24.0809 5.9075 31.8876 7.85399 35.2709 9.41599L34.274 11.1427C34.1875 11.2928 34.1442 11.4639 34.149 11.6371C34.1537 11.8103 34.2064 11.9787 34.3011 12.1238C34.3958 12.2688 34.5288 12.3848 34.6854 12.4589C34.842 12.533 35.0161 12.5622 35.1883 12.5434L44.863 11.4812C45.0043 11.4657 45.1402 11.4182 45.2604 11.3424C45.3807 11.2667 45.4821 11.1645 45.5571 11.0438C45.6321 10.923 45.6786 10.7868 45.6932 10.6454C45.7077 10.504 45.69 10.3611 45.6412 10.2276L42.129 0.615882C42.0678 0.448331 41.9601 0.301716 41.8184 0.193248C41.6768 0.0847796 41.5072 0.0189613 41.3295 0.00351986C41.1518 -0.0119216 40.9734 0.0236546 40.8152 0.106072C40.657 0.188489 40.5256 0.314327 40.4364 0.468811L39.4622 2.15608C34.5954 -0.355605 29.1256 -0.611309 24.661 1.50206C21.0886 3.19343 18.7189 6.11445 18.1598 9.51677C18.1276 9.71342 18.1588 9.91524 18.2489 10.093C18.3391 10.2707 18.4835 10.415 18.6613 10.5051ZM25.4632 3.19683C29.6249 1.22655 34.8154 1.61256 39.3479 4.22949C39.4545 4.29111 39.5722 4.33112 39.6943 4.3472C39.8163 4.36329 39.9404 4.35514 40.0593 4.32324C40.2994 4.25878 40.5042 4.10165 40.6285 3.88636L41.0567 3.14456L43.4695 9.74786L36.8229 10.4777L37.3871 9.5006C37.4486 9.39397 37.4886 9.27627 37.5046 9.1542C37.5207 9.03214 37.5126 8.90811 37.4807 8.78919C37.4488 8.67027 37.3938 8.5588 37.3189 8.46113C37.2439 8.36346 37.1505 8.28152 37.0438 8.21997C35.3815 7.26043 32.1464 6.04965 28.4998 5.79629C28.0617 5.76552 27.6226 5.75 27.1834 5.74976C24.8328 5.74976 22.7468 6.21219 20.9985 7.11383C21.9493 5.49711 23.4857 4.13304 25.4632 3.19683ZM59.2109 27.2441L55.8566 26.7072C55.6717 26.1266 55.4379 25.5627 55.1577 25.0217L57.1502 22.2696C57.281 22.089 57.3431 21.8677 57.3254 21.6455C57.3078 21.4232 57.2115 21.2145 57.0538 21.0568L54.4653 18.4684C54.3077 18.3108 54.099 18.2145 53.8768 18.1968C53.6545 18.1792 53.4333 18.2413 53.2527 18.3721L50.5008 20.3645C49.9596 20.0842 49.3957 19.8504 48.815 19.6654L48.2782 16.3114C48.2429 16.0913 48.1304 15.8909 47.9608 15.7463C47.7911 15.6016 47.5755 15.5222 47.3525 15.5222H43.6919C43.469 15.5222 43.2533 15.6016 43.0837 15.7463C42.914 15.8909 42.8015 16.0913 42.7662 16.3114L42.2294 19.6654C41.6487 19.8503 41.0848 20.0842 40.5437 20.3645L37.7917 18.3721C37.6112 18.2412 37.3899 18.1791 37.1677 18.1967C36.9454 18.2144 36.7367 18.3107 36.5791 18.4684L33.9906 21.0568C33.833 21.2145 33.7366 21.4232 33.719 21.6455C33.7013 21.8677 33.7634 22.089 33.8942 22.2696L35.8867 25.0215C35.6065 25.5626 35.3727 26.1265 35.1878 26.7072L31.8336 27.2441C31.6134 27.2794 31.4131 27.3919 31.2684 27.5616C31.1238 27.7312 31.0443 27.9468 31.0443 28.1698V31.8303C31.0443 32.0532 31.1238 32.2688 31.2684 32.4385C31.4131 32.6081 31.6134 32.7207 31.8336 32.7559L35.1878 33.2928C35.3728 33.8734 35.6066 34.4373 35.8867 34.9784L33.8941 37.7304C33.7633 37.911 33.7012 38.1323 33.7189 38.3546C33.7365 38.5769 33.8328 38.7856 33.9905 38.9432L36.579 41.5317C36.7366 41.6893 36.9453 41.7856 37.1675 41.8032C37.3898 41.8209 37.611 41.7587 37.7916 41.628L40.5437 39.6356C41.0848 39.9158 41.6487 40.1497 42.2293 40.3347L42.7661 43.6885C42.8014 43.9087 42.9139 44.109 43.0835 44.2537C43.2532 44.3983 43.4688 44.4778 43.6918 44.4778H47.3524C47.5753 44.4778 47.791 44.3983 47.9606 44.2537C48.1303 44.109 48.2428 43.9087 48.2781 43.6885L48.815 40.3344C49.3956 40.1494 49.9594 39.9156 50.5005 39.6353L53.2526 41.628C53.4332 41.7587 53.6544 41.8208 53.8767 41.8032C54.0989 41.7855 54.3076 41.6893 54.4653 41.5317L57.0538 38.9432C57.2115 38.7856 57.3078 38.5769 57.3254 38.3546C57.3431 38.1323 57.281 37.911 57.1502 37.7304L55.1577 34.9784C55.438 34.4373 55.6718 33.8734 55.8567 33.2928L59.2107 32.7559C59.4309 32.7207 59.6312 32.6081 59.7759 32.4385C59.9205 32.2688 60 32.0532 60 31.8303V28.1698C60 27.9469 59.9206 27.7312 59.776 27.5616C59.6313 27.3919 59.431 27.2794 59.2109 27.2441ZM58.1251 31.031L54.9723 31.5358C54.7918 31.5647 54.6237 31.6457 54.4886 31.7689C54.3536 31.8922 54.2575 32.0522 54.2122 32.2293C54.002 33.0509 53.6754 33.8382 53.2425 34.5674C53.1492 34.7247 53.104 34.9058 53.1123 35.0884C53.1207 35.2711 53.1823 35.4473 53.2895 35.5954L55.1628 38.1828L53.7049 39.6406L51.1176 37.7674C50.9695 37.6601 50.7933 37.5986 50.6107 37.5902C50.428 37.5819 50.2469 37.6271 50.0897 37.7204C49.3603 38.1531 48.5729 38.4796 47.7513 38.69C47.5742 38.7353 47.4142 38.8313 47.291 38.9664C47.1678 39.1014 47.0868 39.2695 47.0579 39.4499L46.5532 42.6029H44.4914L43.9868 39.4502C43.9578 39.2697 43.8768 39.1016 43.7536 38.9665C43.6303 38.8315 43.4703 38.7354 43.2932 38.6901C42.4716 38.4799 41.6842 38.1534 40.955 37.7205C40.7977 37.6272 40.6166 37.582 40.434 37.5903C40.2513 37.5987 40.0751 37.6602 39.927 37.7675L37.3396 39.6406L35.8817 38.1828L37.7551 35.5954C37.8623 35.4473 37.9239 35.2711 37.9322 35.0884C37.9405 34.9058 37.8953 34.7247 37.802 34.5674C37.3693 33.8381 37.0428 33.0508 36.8324 32.2292C36.7871 32.0521 36.6911 31.8921 36.556 31.7689C36.421 31.6457 36.2529 31.5647 36.0724 31.5358L32.9193 31.031V28.9692L36.0724 28.4644C36.2529 28.4355 36.421 28.3545 36.556 28.2313C36.6911 28.1081 36.7871 27.9481 36.8324 27.771C37.0427 26.9494 37.3691 26.1621 37.8019 25.4328C37.8952 25.2755 37.9404 25.0944 37.9321 24.9117C37.9237 24.7291 37.8622 24.5529 37.7549 24.4048L35.8817 21.8175L37.3396 20.3597L39.9268 22.2327C40.0749 22.3399 40.2511 22.4014 40.4337 22.4098C40.6164 22.4181 40.7975 22.3729 40.9548 22.2797C41.6841 21.8469 42.4716 21.5204 43.2932 21.3102C43.4703 21.2649 43.6303 21.1688 43.7536 21.0338C43.8768 20.8987 43.9578 20.7306 43.9868 20.5501L44.4914 17.3973H46.5532L47.0578 20.5501C47.0867 20.7306 47.1678 20.8987 47.291 21.0338C47.4142 21.1688 47.5742 21.2649 47.7513 21.3102C48.5729 21.5204 49.3603 21.8469 50.0895 22.2798C50.2468 22.373 50.4279 22.4182 50.6105 22.4099C50.7932 22.4015 50.9694 22.34 51.1175 22.2328L53.7048 20.3597L55.1627 21.8175L53.2894 24.4049C53.1821 24.553 53.1206 24.7292 53.1122 24.9119C53.1039 25.0945 53.1491 25.2756 53.2424 25.4329C53.6752 26.1622 54.0017 26.9495 54.212 27.7711C54.2573 27.9482 54.3534 28.1081 54.4884 28.2313C54.6234 28.3545 54.7915 28.4355 54.9719 28.4644L58.1251 28.9692V31.031ZM45.5223 23.654C42.023 23.654 39.1761 26.5009 39.1761 30.0001C39.1761 33.4994 42.0229 36.3462 45.5223 36.3462C49.0216 36.3462 51.8683 33.4994 51.8683 30.0001C51.8683 26.5009 49.0215 23.654 45.5223 23.654ZM45.5223 34.4712C43.0569 34.4712 41.0511 32.4655 41.0511 30.0001C41.0511 27.5347 43.0569 25.529 45.5223 25.529C47.9877 25.529 49.9933 27.5347 49.9933 30.0001C49.9933 32.4655 47.9877 34.4712 45.5223 34.4712ZM18.8807 42.2484V41.5502C19.6877 41.1765 20.2502 40.3608 20.2502 39.4144V38.0289C20.4641 34.4502 21.3511 32.9336 22.2092 31.4673C23.0083 30.1015 23.7632 28.8114 23.7632 26.3065C23.7632 20.9817 19.4312 16.6498 14.1066 16.6498C8.78189 16.6498 4.44981 20.9818 4.44981 26.3065C4.44981 28.8114 5.20473 30.1015 6.00395 31.4673C6.862 32.9336 7.74899 34.4502 7.96286 38.0289V39.4144C7.96286 40.3976 8.56919 41.2409 9.42712 41.5928V42.2484C9.42712 43.2274 10.0281 44.068 10.8801 44.4226V45.0822C10.8801 46.3804 11.9363 47.4366 13.2344 47.4366H15.0732C16.3714 47.4366 17.4277 46.3804 17.4277 45.0822V44.4227C18.2797 44.068 18.8807 43.2273 18.8807 42.2484ZM16.5264 42.7276H11.7814C11.5216 42.7276 11.302 42.5081 11.302 42.2483V41.7687H17.0055V42.2483C17.0057 42.5081 16.7862 42.7276 16.5264 42.7276ZM10.3172 39.8938C10.0574 39.8938 9.83787 39.6744 9.83787 39.4144V38.9349H18.3752V39.4144C18.3752 39.6744 18.1557 39.8938 17.8961 39.8938H10.3172ZM11.6633 27.4593H10.5746C9.97439 27.4593 9.48595 26.971 9.48595 26.3706C9.48595 25.7703 9.97427 25.2819 10.5746 25.2819C11.175 25.2819 11.6633 25.7703 11.6633 26.3706V27.4593ZM14.6747 37.0599H13.5383V29.3343H14.6747V37.0599ZM6.32481 26.3065C6.32481 22.0157 9.81572 18.5248 14.1066 18.5248C18.3974 18.5248 21.8882 22.0157 21.8882 26.3065C21.8882 28.3032 21.3156 29.2817 20.5908 30.5203C19.777 31.9111 18.7793 33.6161 18.4451 37.0599H16.5497V29.3343H17.6384C19.2725 29.3343 20.602 28.0048 20.602 26.3706C20.602 24.7364 19.2725 23.4069 17.6384 23.4069C16.0042 23.4069 14.6747 24.7364 14.6747 26.3706V27.4593H13.5383V26.3706C13.5383 24.7364 12.2088 23.4069 10.5746 23.4069C8.94044 23.4069 7.61095 24.7364 7.61095 26.3706C7.61095 28.0048 8.94044 29.3343 10.5746 29.3343H11.6633V37.0599H9.76779C9.43357 33.6161 8.43595 31.911 7.6222 30.5203C6.89727 29.2817 6.32481 28.3033 6.32481 26.3065ZM16.5497 27.4593V26.3706C16.5497 25.7703 17.038 25.2819 17.6384 25.2819C18.2387 25.2819 18.727 25.7703 18.727 26.3706C18.727 26.971 18.2387 27.4593 17.6384 27.4593H16.5497ZM15.0732 45.5615H13.2344C12.9746 45.5615 12.7551 45.342 12.7551 45.0821V44.6026H15.5527V45.0821C15.5527 45.342 15.333 45.5615 15.0732 45.5615ZM13.1689 14.64V12.5863C13.1689 12.3376 13.2677 12.0992 13.4435 11.9234C13.6193 11.7475 13.8578 11.6488 14.1064 11.6488C14.3551 11.6488 14.5935 11.7475 14.7693 11.9234C14.9452 12.0992 15.0439 12.3376 15.0439 12.5863V14.64C15.0439 14.8886 14.9452 15.1271 14.7693 15.3029C14.5935 15.4787 14.3551 15.5775 14.1064 15.5775C13.8578 15.5775 13.6193 15.4787 13.4435 15.3029C13.2677 15.1271 13.1689 14.8886 13.1689 14.64ZM5.69141 15.0921C5.56905 14.8769 5.53678 14.622 5.60165 14.3831C5.66651 14.1442 5.82324 13.9406 6.03764 13.8168C6.25203 13.693 6.50668 13.6591 6.74603 13.7224C6.98537 13.7856 7.18996 13.941 7.31517 14.1546L8.34208 15.9333C8.40364 16.0399 8.44359 16.1576 8.45966 16.2797C8.47573 16.4017 8.4676 16.5258 8.43573 16.6447C8.40386 16.7636 8.34888 16.8751 8.27393 16.9728C8.19898 17.0704 8.10552 17.1524 7.9989 17.214C7.89227 17.2755 7.77457 17.3155 7.6525 17.3315C7.53044 17.3476 7.4064 17.3395 7.28748 17.3076C7.16856 17.2757 7.05707 17.2208 6.9594 17.1458C6.86172 17.0709 6.77977 16.9774 6.71821 16.8708L5.69141 15.0921ZM3.52801 21.685C3.46647 21.7916 3.38452 21.8851 3.28684 21.9601C3.18916 22.035 3.07767 22.09 2.95873 22.1219C2.83979 22.1538 2.71574 22.1619 2.59366 22.1458C2.47159 22.1297 2.35388 22.0897 2.24726 22.0281L0.468701 21.0011C0.362084 20.9395 0.268637 20.8575 0.193695 20.7599C0.118754 20.6622 0.0637855 20.5507 0.0319287 20.4318C7.19973e-05 20.3128 -0.00804923 20.1888 0.00802875 20.0667C0.0241067 19.9447 0.0640691 19.827 0.125634 19.7204C0.187199 19.6138 0.269161 19.5203 0.36684 19.4454C0.46452 19.3704 0.576003 19.3155 0.694926 19.2836C0.813849 19.2517 0.937882 19.2436 1.05994 19.2597C1.182 19.2758 1.2997 19.3157 1.40632 19.3773L3.185 20.4043C3.4003 20.5287 3.55739 20.7335 3.62171 20.9736C3.68604 21.2138 3.65233 21.4697 3.52801 21.685ZM22.1783 13.8115C22.3937 13.9358 22.5508 14.1406 22.6151 14.3807C22.6795 14.6209 22.6458 14.8768 22.5215 15.0921L21.4945 16.8708C21.433 16.9774 21.3511 17.0709 21.2534 17.1459C21.1557 17.2209 21.0442 17.2758 20.9253 17.3077C20.8063 17.3396 20.6823 17.3477 20.5602 17.3316C20.4381 17.3155 20.3204 17.2755 20.2138 17.2139C19.9985 17.0896 19.8414 16.8848 19.777 16.6446C19.7127 16.4045 19.7464 16.1486 19.8707 15.9333L20.8976 14.1546C20.9591 14.048 21.0411 13.9545 21.1388 13.8795C21.2365 13.8046 21.3479 13.7496 21.4669 13.7177C21.5858 13.6858 21.7099 13.6777 21.8319 13.6938C21.954 13.7099 22.0717 13.7499 22.1783 13.8115ZM28.0874 19.7205C28.2117 19.9359 28.2454 20.1918 28.1811 20.4319C28.1167 20.6721 27.9596 20.8769 27.7443 21.0012L25.9656 22.0281C25.859 22.0897 25.7413 22.1297 25.6192 22.1458C25.4971 22.1619 25.3731 22.1538 25.2541 22.1219C25.1352 22.09 25.0237 22.035 24.926 21.9601C24.8283 21.8851 24.7464 21.7916 24.6849 21.685C24.5605 21.4696 24.5269 21.2138 24.5912 20.9736C24.6556 20.7334 24.8127 20.5287 25.028 20.4043L26.8067 19.3774C27.2551 19.1188 27.8285 19.2722 28.0874 19.7205ZM44.4297 49.9881C44.2519 49.8981 44.0501 49.8671 43.8535 49.8995C43.6569 49.9319 43.4757 50.0261 43.3362 50.1684C39.296 54.2938 32.0158 52.5036 28.8087 51.0392L29.7204 49.46C29.807 49.3099 29.8502 49.1389 29.8455 48.9657C29.8407 48.7925 29.788 48.6241 29.6933 48.479C29.5987 48.334 29.4657 48.218 29.3091 48.1439C29.1525 48.0698 28.9784 48.0406 28.8062 48.0594L19.6778 49.0617C19.5365 49.0772 19.4006 49.1246 19.2803 49.2004C19.1601 49.2762 19.0586 49.3783 18.9836 49.4991C18.9087 49.6199 18.8621 49.7561 18.8476 49.8975C18.833 50.0389 18.8508 50.1817 18.8995 50.3152L22.2134 59.3845C22.2746 59.552 22.3824 59.6985 22.524 59.8069C22.6656 59.9153 22.8352 59.9811 23.0128 59.9965C23.1905 60.012 23.3689 59.9764 23.527 59.894C23.6852 59.8117 23.8166 59.6859 23.9058 59.5315L24.7997 57.9832C29.3952 60.3391 34.5537 60.5727 38.7674 58.5778C42.1542 56.9744 44.4008 54.2039 44.9312 50.9764C44.9635 50.7798 44.9322 50.5779 44.8421 50.4002C44.7519 50.2225 44.6075 50.0781 44.4297 49.9881ZM37.9652 56.8832C34.0541 58.7346 29.175 58.371 24.9136 55.9108C24.807 55.8492 24.6893 55.8092 24.5673 55.7932C24.4452 55.7771 24.3212 55.7852 24.2023 55.8171C23.9621 55.8815 23.7573 56.0386 23.633 56.254L23.2856 56.8557L21.0711 50.795L27.1716 50.1252L26.6915 50.9567C26.5672 51.1721 26.5335 51.428 26.5979 51.6681C26.6622 51.9083 26.8193 52.1131 27.0346 52.2375C28.608 53.1458 31.6693 54.2914 35.119 54.5312C37.7819 54.716 40.1303 54.3166 42.06 53.3656C41.1624 54.8129 39.7566 56.0351 37.9652 56.8832Z" fill="#273272"></path></g><defs><clipPath id="clip0_67_437"><rect width="60" height="60" fill="white"></rect></clipPath></defs></svg>