<svg xmlns="http://www.w3.org/2000/svg" width="60" height="60" viewBox="0 0 60 60" fill="none"><path d="M20.6996 30L6.29961 15.9C5.69961 15.3 5.69961 14.4 6.29961 13.8L13.4996 6.60002C14.0996 6.00002 14.9996 6.00002 15.5996 6.60002L29.6996 20.7M38.9996 30L53.3996 44.4C53.9996 45 53.9996 45.9 53.3996 46.5L46.1996 53.7C45.5996 54.3 44.6996 54.3 44.0996 53.7L29.9996 39.3" stroke="#273272" stroke-miterlimit="10"></path><path d="M42.1719 51.7878L39.2021 48.8179L45.354 42.6662L48.3238 45.6361L42.1719 51.7878Z" fill="#273272"></path><path d="M36 45.486L33.0302 42.5161L36.2122 39.3342L39.182 42.3041L36 45.486Z" fill="#273272"></path><path d="M17.6289 26.9012L14.6591 23.9313L20.811 17.7796L23.7808 20.7495L17.6289 26.9012Z" fill="#273272"></path><path d="M11.4551 21.0287L8.48528 18.0588L11.6673 14.8769L14.6371 17.8468L11.4551 21.0287Z" fill="#273272"></path><path d="M42 8.7L43.8 6.9C45 5.7 46.8 5.7 48 6.9L53.1 12C54.3 13.2 54.3 15 53.1 16.2L51.3 18" stroke="#273272" stroke-miterlimit="10" stroke-linecap="round" stroke-linejoin="round"></path><path d="M39.6504 11.36L48.7719 20.4819L20.1336 49.1192L11.0121 39.9974L39.6504 11.36Z" stroke="#273272" stroke-miterlimit="10" stroke-linecap="round" stroke-linejoin="round"></path><path d="M13.2588 43.6271L42.5325 14.3524L45.5024 17.3222L16.2287 46.5969L13.2588 43.6271Z" fill="#273272"></path><path d="M6.2998 53.7L10.7998 39.9L20.0998 49.2L6.2998 53.7Z" stroke="#273272" stroke-miterlimit="10" stroke-linecap="round" stroke-linejoin="round"></path><path d="M7.7998 49.2L6.2998 53.7L10.7998 52.2L7.7998 49.2Z" fill="#273272"></path><path d="M51.8998 17.4L48.2998 20.7L39.2998 11.7L42.5998 8.09998" stroke="#273272" stroke-miterlimit="10" stroke-linecap="round" stroke-linejoin="round"></path></svg>