<svg xmlns="http://www.w3.org/2000/svg" width="60" height="60" viewBox="0 0 60 60" fill="none"><g clip-path="url(#clip0_196_156)"><path d="M13.1963 26.3926C20.4727 26.3926 26.3924 20.4728 26.3924 13.1964C26.3924 5.91996 20.4727 0 13.1963 0C5.91984 0 0 5.91996 0 13.1964C0 20.4728 5.91984 26.3926 13.1963 26.3926ZM19.7198 22.444L14.8352 14.1346L24.4779 14.1388C24.1943 17.5648 22.3789 20.5627 19.7198 22.444ZM24.4788 12.2638L14.1338 12.2592V1.91414C19.6317 2.36695 24.0284 6.76512 24.4788 12.2638ZM12.2588 1.91414V13.1964C12.2588 13.3634 12.3034 13.5274 12.3881 13.6714L18.1051 23.3971C16.6194 24.115 14.9541 24.5176 13.1964 24.5176C6.95379 24.5176 1.87512 19.4389 1.87512 13.1964C1.875 7.26949 6.45316 2.39238 12.2588 1.91414ZM39.9885 1.55109C39.9885 1.03336 40.4082 0.613594 40.926 0.613594H59.0625C59.5802 0.613594 60 1.03336 60 1.55109C60 2.06883 59.5802 2.48859 59.0625 2.48859H40.926C40.4081 2.48859 39.9885 2.06883 39.9885 1.55109ZM39.9885 5.47617C39.9885 4.95844 40.4082 4.53867 40.926 4.53867H49.9943C50.512 4.53867 50.9318 4.95844 50.9318 5.47617C50.9318 5.99391 50.512 6.41367 49.9943 6.41367H40.926C40.4081 6.41367 39.9885 5.99391 39.9885 5.47617ZM31.5846 7.02727H36.7369C37.2546 7.02727 37.6744 6.6075 37.6744 6.08977V0.9375C37.6744 0.419766 37.2546 0 36.7369 0H31.5846C31.0669 0 30.6471 0.419766 30.6471 0.9375V6.08977C30.6471 6.6075 31.0669 7.02727 31.5846 7.02727ZM32.5221 1.875H35.7994V5.15227H32.5221V1.875ZM39.9885 11.2337C39.9885 10.716 40.4082 10.2962 40.926 10.2962H59.0625C59.5802 10.2962 60 10.716 60 11.2337C60 11.7514 59.5802 12.1712 59.0625 12.1712H40.926C40.4081 12.1712 39.9885 11.7514 39.9885 11.2337ZM39.9885 15.1588C39.9885 14.6411 40.4082 14.2213 40.926 14.2213H49.9943C50.512 14.2213 50.9318 14.6411 50.9318 15.1588C50.9318 15.6765 50.512 16.0963 49.9943 16.0963H40.926C40.4081 16.0963 39.9885 15.6766 39.9885 15.1588ZM31.5846 16.7099H36.7369C37.2546 16.7099 37.6744 16.2901 37.6744 15.7724V10.6201C37.6744 10.1024 37.2546 9.68262 36.7369 9.68262H31.5846C31.0669 9.68262 30.6471 10.1024 30.6471 10.6201V15.7724C30.6471 16.2902 31.0669 16.7099 31.5846 16.7099ZM32.5221 11.5576H35.7994V14.8349H32.5221V11.5576ZM39.9885 20.9163C39.9885 20.3986 40.4082 19.9788 40.926 19.9788H59.0625C59.5802 19.9788 60 20.3986 60 20.9163C60 21.4341 59.5802 21.8538 59.0625 21.8538H40.926C40.4081 21.8538 39.9885 21.4342 39.9885 20.9163ZM7.1741 36.7207H0.9375C0.419766 36.7207 0 37.1405 0 37.6582V59.0625C0 59.5802 0.419766 60 0.9375 60H7.1741C7.69184 60 8.1116 59.5802 8.1116 59.0625V37.6582C8.1116 37.1404 7.69195 36.7207 7.1741 36.7207ZM6.2366 58.125H1.875V38.5957H6.2366V58.125ZM59.3836 51.696L52.7549 45.2637C52.3657 44.886 51.8504 44.6842 51.3072 44.6906C51.0218 44.695 50.747 44.7585 50.4953 44.8729L47.8349 42.2913C49.0479 40.3148 49.7482 37.9915 49.7482 35.5073C49.7482 31.6409 48.0519 28.1637 45.3653 25.7789H49.9943C50.512 25.7789 50.9318 25.3591 50.9318 24.8414C50.9318 24.3237 50.512 23.9039 49.9943 23.9039H42.6161C41.1127 23.1395 39.4419 22.6589 37.6745 22.5328V20.3027C37.6745 19.785 37.2547 19.3652 36.737 19.3652H31.5847C31.067 19.3652 30.6472 19.785 30.6472 20.3027V24.017C26.5368 26.2055 23.7316 30.5346 23.7316 35.5072C23.7316 37.0424 23.9998 38.516 24.4903 39.8846H23.0875C22.5697 39.8846 22.15 40.3044 22.15 40.8221V59.0625C22.15 59.5802 22.5697 60 23.0875 60H29.3241C29.8418 60 30.2616 59.5802 30.2616 59.0625V46.7846C31.2555 47.3579 32.3321 47.8034 33.4685 48.0988V59.0625C33.4685 59.5802 33.8883 60 34.406 60H40.6426C41.1603 60 41.5801 59.5802 41.5801 59.0625V47.5812C42.6342 47.1571 43.6207 46.5995 44.5177 45.9282L47.0688 48.4038C46.9622 48.6589 46.9069 48.9355 46.9112 49.221C46.9194 49.7654 47.1383 50.2732 47.5274 50.6508L54.1562 57.0831C54.5509 57.4661 55.0622 57.6566 55.573 57.6566C56.1043 57.6566 56.6351 57.4504 57.0335 57.0398L59.4268 54.5734C60.208 53.7683 60.1887 52.4776 59.3836 51.696ZM49.0881 46.1202L48.2733 46.96L45.9396 44.6954C46.2154 44.4193 46.4784 44.1305 46.7286 43.8307L49.0881 46.1202ZM32.5221 21.2402H35.7994V22.5332C34.6604 22.615 33.5618 22.8438 32.5221 23.2011V21.2402ZM36.7398 24.3741C42.8788 24.3741 47.8731 29.3685 47.8731 35.5073C47.8731 41.6462 42.8787 46.6406 36.7398 46.6406C30.6009 46.6406 25.6065 41.6462 25.6065 35.5073C25.6065 29.3684 30.6009 24.3741 36.7398 24.3741ZM28.3864 58.125H24.0248V41.7598H25.3358C26.1168 43.1784 27.1547 44.4362 28.3864 45.4707V58.125ZM39.705 58.125H35.3434V48.4405C35.8023 48.4897 36.268 48.5156 36.7398 48.5156C37.7596 48.5156 38.7523 48.3974 39.705 48.1744V58.125ZM58.0812 53.2676L55.6879 55.734C55.6284 55.7951 55.523 55.7967 55.4618 55.7373L48.833 49.305C48.7949 49.2681 48.7863 49.2236 48.7859 49.1927C48.7854 49.1619 48.7927 49.1171 48.8296 49.0789L51.2228 46.6126C51.2598 46.5744 51.3043 46.5659 51.3353 46.5654C51.3361 46.5654 51.337 46.5654 51.338 46.5654C51.3687 46.5654 51.4119 46.5732 51.4489 46.6092L58.0775 53.0415C58.1388 53.1008 58.1405 53.2065 58.0812 53.2676ZM36.7398 45.1124C42.036 45.1124 46.3448 40.8035 46.3448 35.5073C46.3448 30.2112 42.036 25.9023 36.7398 25.9023C31.4436 25.9023 27.1348 30.2112 27.1348 35.5073C27.1348 40.8035 31.4436 45.1124 36.7398 45.1124ZM36.7398 27.7773C41.0021 27.7773 44.4698 31.245 44.4698 35.5073C44.4698 39.7697 41.0021 43.2374 36.7398 43.2374C32.4775 43.2374 29.0098 39.7697 29.0098 35.5073C29.0098 31.245 32.4775 27.7773 36.7398 27.7773ZM18.0053 31.2476H11.7687C11.2509 31.2476 10.8312 31.6673 10.8312 32.1851V59.0625C10.8312 59.5802 11.2509 60 11.7687 60H18.0053C18.523 60 18.9428 59.5802 18.9428 59.0625V32.1851C18.9428 31.6673 18.523 31.2476 18.0053 31.2476ZM17.0678 58.125H12.7062V33.1226H17.0678V58.125Z" fill="#273272"></path></g><defs><clipPath id="clip0_196_156"><rect width="60" height="60" fill="white"></rect></clipPath></defs></svg>