<svg xmlns="http://www.w3.org/2000/svg" xmlns:xlink="http://www.w3.org/1999/xlink" xmlns:v="https://vecta.io/nano" viewBox="0 0 480 455.6"><style><![CDATA[#Q{animation:ejy473xLKHO519_s_do 4000ms linear infinite normal forwards}#R{animation:ejy473xLKHO520_s_do 4000ms linear infinite normal forwards}#S{animation:ejy473xLKHO521_s_do 4000ms linear infinite normal forwards}#T{animation:ejy473xLKHO522_s_do 4000ms linear infinite normal forwards}#U{animation:ejy473xLKHO523_s_do 4000ms linear infinite normal forwards}#V{animation:ejy473xLKHO524_s_do 4000ms linear infinite normal forwards}#W{animation:ejy473xLKHO525_s_do 4000ms linear infinite normal forwards}#X{animation:ejy473xLKHO526_s_do 4000ms linear infinite normal forwards}#Y{animation:ejy473xLKHO569_ts__ts 4000ms linear infinite normal forwards}#Z{animation:ejy473xLKHO572_ts__ts 4000ms linear infinite normal forwards}#a{animation:ejy473xLKHO577_ts__ts 4000ms linear infinite normal forwards}#b{animation:ejy473xLKHO580_ts__ts 4000ms linear infinite normal forwards}#d{animation:ejy473xLKHO596_ts__ts 4000ms linear infinite normal forwards}#f{animation:ejy473xLKHO607_ts__ts 4000ms linear infinite normal forwards}#g{animation:ejy473xLKHO611_ts__ts 4000ms linear infinite normal forwards}#h{animation:ejy473xLKHO615_ts__ts 4000ms linear infinite normal forwards}#j{animation:ejy473xLKHO627_s_do 4000ms linear infinite normal forwards}#k{animation:ejy473xLKHO628_s_do 4000ms linear infinite normal forwards}#l{animation:ejy473xLKHO629_s_do 4000ms linear infinite normal forwards}#m{animation:ejy473xLKHO630_s_do 4000ms linear infinite normal forwards}#n{animation:ejy473xLKHO631_s_do 4000ms linear infinite normal forwards}#o{animation:ejy473xLKHO632_s_do 4000ms linear infinite normal forwards}#p{animation:ejy473xLKHO633_s_do 4000ms linear infinite normal forwards}#q{animation:ejy473xLKHO634_s_do 4000ms linear infinite normal forwards}@keyframes ejy473xLKHO519_s_do{0%{stroke-dashoffset:101.02}7.5%{stroke-dashoffset:101.02}20%{stroke-dashoffset:0}30%{stroke-dashoffset:0}40%{stroke-dashoffset:-101.02}100%{stroke-dashoffset:-101.02}} @keyframes ejy473xLKHO520_s_do{0%{stroke-dashoffset:51.13}32.5%{stroke-dashoffset:51.13}42.5%{stroke-dashoffset:0}55%{stroke-dashoffset:0}67.5%{stroke-dashoffset:-51.13}100%{stroke-dashoffset:-51.13}} @keyframes ejy473xLKHO521_s_do{0%{stroke-dashoffset:10.1}10%{stroke-dashoffset:10.1}17.5%{stroke-dashoffset:0}25%{stroke-dashoffset:0}35%{stroke-dashoffset:-10.1}100%{stroke-dashoffset:-10.1}} @keyframes ejy473xLKHO522_s_do{0%{stroke-dashoffset:95.39}15%{stroke-dashoffset:95.39}25%{stroke-dashoffset:0}35%{stroke-dashoffset:0}45%{stroke-dashoffset:-95.39}100%{stroke-dashoffset:-95.39}} @keyframes ejy473xLKHO523_s_do{0%{stroke-dashoffset:55.18}10%{stroke-dashoffset:55.18}20%{stroke-dashoffset:0}30%{stroke-dashoffset:0}40%{stroke-dashoffset:-55.18}100%{stroke-dashoffset:-55.18}} @keyframes ejy473xLKHO524_s_do{0%{stroke-dashoffset:52.93}27.5%{stroke-dashoffset:52.93}37.5%{stroke-dashoffset:0}47.5%{stroke-dashoffset:0}57.5%{stroke-dashoffset:-52.93}100%{stroke-dashoffset:-52.93}} @keyframes ejy473xLKHO525_s_do{0%{stroke-dashoffset:95.63}20%{stroke-dashoffset:95.63}27.5%{stroke-dashoffset:0}37.5%{stroke-dashoffset:0}47.5%{stroke-dashoffset:-95.63}100%{stroke-dashoffset:-95.63}} @keyframes ejy473xLKHO526_s_do{0%{stroke-dashoffset:92.11}27.5%{stroke-dashoffset:92.11}40%{stroke-dashoffset:0}52.5%{stroke-dashoffset:0}65%{stroke-dashoffset:-92.11}100%{stroke-dashoffset:-92.11}} @keyframes ejy473xLKHO569_ts__ts{0%{transform:translate(99.549988px,104.099987px) scale(0,0)}7.5%{transform:translate(99.549988px,104.099987px) scale(1,1)}12.5%{transform:translate(99.549988px,104.099987px) scale(0.9,0.9)}17.5%{transform:translate(99.549988px,104.099987px) scale(1,1)}100%{transform:translate(99.549988px,104.099987px) scale(1,1)}} @keyframes ejy473xLKHO572_ts__ts{0%{transform:translate(237.949974px,103.949997px) scale(0,0)}2.5%{transform:translate(237.949974px,103.949997px) scale(0,0)}10%{transform:translate(237.949974px,103.949997px) scale(1,1)}15%{transform:translate(237.949974px,103.949997px) scale(0.9,0.9)}20%{transform:translate(237.949974px,103.949997px) scale(1,1)}100%{transform:translate(237.949974px,103.949997px) scale(1,1)}} @keyframes ejy473xLKHO577_ts__ts{0%{transform:translate(384.317413px,103.999992px) scale(0,0)}5%{transform:translate(384.317413px,103.999992px) scale(0,0)}12.5%{transform:translate(384.317413px,103.999992px) scale(1,1)}17.5%{transform:translate(384.317413px,103.999992px) scale(0.9,0.9)}22.5%{transform:translate(384.317413px,103.999992px) scale(1,1)}100%{transform:translate(384.317413px,103.999992px) scale(1,1)}} @keyframes ejy473xLKHO580_ts__ts{0%{transform:translate(384.500015px,227.862511px) scale(0,0)}7.5%{transform:translate(384.500015px,227.862511px) scale(0,0)}15%{transform:translate(384.500015px,227.862511px) scale(1,1)}20%{transform:translate(384.500015px,227.862511px) scale(0.9,0.9)}25%{transform:translate(384.500015px,227.862511px) scale(1,1)}100%{transform:translate(384.500015px,227.862511px) scale(1,1)}} @keyframes ejy473xLKHO596_ts__ts{0%{transform:translate(98.638489px,228.949959px) scale(0,0)}10%{transform:translate(98.638489px,228.949959px) scale(0,0)}17.5%{transform:translate(98.638489px,228.949959px) scale(1,1)}22.5%{transform:translate(98.638489px,228.949959px) scale(0.9,0.9)}27.5%{transform:translate(98.638489px,228.949959px) scale(1,1)}100%{transform:translate(98.638489px,228.949959px) scale(1,1)}} @keyframes ejy473xLKHO607_ts__ts{0%{transform:translate(100.062508px,349.649979px) scale(0,0)}22.5%{transform:translate(100.062508px,349.649979px) scale(0,0)}30%{transform:translate(100.062508px,349.649979px) scale(1,1)}35%{transform:translate(100.062508px,349.649979px) scale(0.9,0.9)}40%{transform:translate(100.062508px,349.649979px) scale(1,1)}100%{transform:translate(100.062508px,349.649979px) scale(1,1)}} @keyframes ejy473xLKHO611_ts__ts{0%{transform:translate(243.302711px,350.449982px) scale(0,0)}15%{transform:translate(243.302711px,350.449982px) scale(0,0)}22.5%{transform:translate(243.302711px,350.449982px) scale(1,1)}27.5%{transform:translate(243.302711px,350.449982px) scale(0.9,0.9)}32.5%{transform:translate(243.302711px,350.449982px) scale(1,1)}100%{transform:translate(243.302711px,350.449982px) scale(1,1)}} @keyframes ejy473xLKHO615_ts__ts{0%{transform:translate(385.5px,351.550018px) scale(0,0)}17.5%{transform:translate(385.5px,351.550018px) scale(0,0)}25%{transform:translate(385.5px,351.550018px) scale(1,1)}30%{transform:translate(385.5px,351.550018px) scale(0.9,0.9)}35%{transform:translate(385.5px,351.550018px) scale(1,1)}100%{transform:translate(385.5px,351.550018px) scale(1,1)}} @keyframes ejy473xLKHO627_s_do{0%{stroke-dashoffset:189.01}15%{stroke-dashoffset:189.01;animation-timing-function:cubic-bezier(0.42,0,0.58,1)}37.5%{stroke-dashoffset:0;animation-timing-function:cubic-bezier(0.42,0,0.58,1)}55%{stroke-dashoffset:0}80%{stroke-dashoffset:-189.01}100%{stroke-dashoffset:-189.01}} @keyframes ejy473xLKHO628_s_do{0%{stroke-dashoffset:189.01}17.5%{stroke-dashoffset:189.01;animation-timing-function:cubic-bezier(0.42,0,0.58,1)}40%{stroke-dashoffset:0;animation-timing-function:cubic-bezier(0.42,0,0.58,1)}57.5%{stroke-dashoffset:0;animation-timing-function:cubic-bezier(0.42,0,0.58,1)}82.5%{stroke-dashoffset:-189.01}100%{stroke-dashoffset:-189.01}} @keyframes ejy473xLKHO629_s_do{0%{stroke-dashoffset:189.01}22.5%{stroke-dashoffset:189.01;animation-timing-function:cubic-bezier(0.42,0,0.58,1)}45%{stroke-dashoffset:0;animation-timing-function:cubic-bezier(0.42,0,0.58,1)}60%{stroke-dashoffset:0;animation-timing-function:cubic-bezier(0.42,0,0.58,1)}85%{stroke-dashoffset:-189.01}100%{stroke-dashoffset:-189.01}} @keyframes ejy473xLKHO630_s_do{0%{stroke-dashoffset:189.01}30%{stroke-dashoffset:189.01;animation-timing-function:cubic-bezier(0.42,0,0.58,1)}52.5%{stroke-dashoffset:0;animation-timing-function:cubic-bezier(0.42,0,0.58,1)}67.5%{stroke-dashoffset:0;animation-timing-function:cubic-bezier(0.42,0,0.58,1)}87.5%{stroke-dashoffset:-189.01}100%{stroke-dashoffset:-189.01}} @keyframes ejy473xLKHO631_s_do{0%{stroke-dashoffset:189.01}42.5%{stroke-dashoffset:189.01;animation-timing-function:cubic-bezier(0.42,0,0.58,1)}65%{stroke-dashoffset:0;animation-timing-function:cubic-bezier(0.42,0,0.58,1)}80%{stroke-dashoffset:0;animation-timing-function:cubic-bezier(0.42,0,0.58,1)}100%{stroke-dashoffset:-189.01}} @keyframes ejy473xLKHO632_s_do{0%{stroke-dashoffset:189.01}27.5%{stroke-dashoffset:189.01;animation-timing-function:cubic-bezier(0.42,0,0.58,1)}50%{stroke-dashoffset:0;animation-timing-function:cubic-bezier(0.42,0,0.58,1)}65%{stroke-dashoffset:0;animation-timing-function:cubic-bezier(0.42,0,0.58,1)}87.5%{stroke-dashoffset:-189.01}100%{stroke-dashoffset:-189.01}} @keyframes ejy473xLKHO633_s_do{0%{stroke-dashoffset:189.01}35%{stroke-dashoffset:189.01;animation-timing-function:cubic-bezier(0.42,0,0.58,1)}57.5%{stroke-dashoffset:0;animation-timing-function:cubic-bezier(0.42,0,0.58,1)}72.5%{stroke-dashoffset:0;animation-timing-function:cubic-bezier(0.42,0,0.58,1)}92.5%{stroke-dashoffset:-189.01}100%{stroke-dashoffset:-189.01}} @keyframes ejy473xLKHO634_s_do{0%{stroke-dashoffset:189.01}22.5%{stroke-dashoffset:189.01;animation-timing-function:cubic-bezier(0.42,0,0.58,1)}45%{stroke-dashoffset:0;animation-timing-function:cubic-bezier(0.42,0,0.58,1)}62.5%{stroke-dashoffset:0;animation-timing-function:cubic-bezier(0.42,0,0.58,1)}82.5%{stroke-dashoffset:-189.01}100%{stroke-dashoffset:-189.01}}.B{stroke:#004d40}.C{stroke-opacity:.03}.D{fill:none}.E{stroke:#ecbe8e}.F{fill:#226db4}.G{opacity:.9}.H{stroke-opacity:.04}.I{stroke-width:1.3}.J{stroke-dashoffset:189.01}.K{stroke-dasharray:189.01}.L{fill:#f8f3e7}.M{stroke-width:2}.N{stroke-miterlimit:10}.O{fill:#f9b21d}.P{fill:#e42527}.Q{fill:#089949}.R{fill:#226eb3}]]></style><defs><path id="A" d="M0 0h32v32H0z"></path><filter id="B" x="-150%" width="400%" y="-150%" height="400%"><feGaussianBlur stdDeviation="30,30"></feGaussianBlur></filter><path id="C" d="M314.7,309.3l-35.6,20.5-35.6-20.5v-41.1l35.6-20.5l35.6,20.5v41.1Z"></path><path id="D" d="M314.7,186.2l-35.6,20.5-35.6-20.5v-41.1l35.6-20.5l35.6,20.5v41.1Z"></path><path id="E" d="M456.9 309.3l-35.6 20.5v41.1l35.6 20.5 23.1-13.3v-55.5z"></path><path id="F" d="M305.9,262.3c0,1.8-1,3.4-2.5,4.3l-59,34c-1.5.9-3.5.9-5,0l-59-34c-1.5-.9-2.5-2.5-2.5-4.3v-68.1c0-1.8,1-3.4,2.5-4.3l59-34c1.5-.9,3.4-.9,5,0l59,34c1.5.9,2.5,2.5,2.5,4.3v68.1Z"></path><path id="G" d="M303.6,267.1c1.7-1,2.8-2.8,2.8-4.8v-68.1c0-2-1-3.8-2.8-4.8l-59-34c-1.7-1-3.8-1-5.5,0l-59,34c-1.7,1-2.8,2.8-2.8,4.8v68.1c0,2,1,3.8,2.8,4.8l59,34c1.7,1,3.8,1,5.5,0l59-34Z"></path><path id="H" d="M241.7,270.7c-.6,0-1.1-.3-1.4-.8-.5-.8-.2-1.8.6-2.3l34.7-20v-40.1c0-.9.8-1.7,1.7-1.7s1.7.7,1.7,1.7v41c0,.6-.3,1.1-.8,1.4l-35.5,20.5c-.4.2-.7.3-1,.3Z"></path><path id="I" d="M241.7,270.7c-.3,0-.6-.1-.8-.2L205.4,250c-.5-.3-.8-.9-.8-1.4v-41c0-.9.7-1.7,1.7-1.7.9,0,1.7.7,1.7,1.7v40.1l34.7,20c.8.5,1.1,1.5.6,2.3-.5.4-1,.7-1.6.7Z"></path><path id="J" d="M277.2,209.2c-.3,0-.6-.1-.8-.2l-34.7-20L207,209c-.8.5-1.8.2-2.3-.6s-.2-1.8.6-2.3l35.5-20.5c.5-.3,1.1-.3,1.7,0L278,206.1c.8.5,1.1,1.5.6,2.3-.2.5-.8.8-1.4.8Z"></path><path id="K" d="M241.7,246.1c-.6,0-1.1-.3-1.4-.8-.5-.8-.2-1.8.6-2.3l13.4-7.7v-15.5c0-.9.8-1.7,1.7-1.7s1.7.8,1.7,1.7v16.4c0,.6-.3,1.1-.8,1.4l-14.2,8.2c-.4.2-.7.3-1,.3Z"></path><path id="L" d="M241.7,246.1c-.3,0-.6-.1-.8-.2l-14.2-8.2c-.5-.3-.8-.9-.8-1.4v-16.4c0-.9.8-1.7,1.7-1.7s1.7.8,1.7,1.7v15.4l13.4,7.7c.8.5,1.1,1.5.6,2.3-.5.5-1,.8-1.6.8Z"></path><path id="M" d="M255.9,221.5c-.3,0-.6-.1-.8-.2l-13.4-7.7-13.4,7.7c-.8.5-1.8.2-2.3-.6s-.2-1.8.6-2.3l14.2-8.2c.5-.3,1.1-.3,1.7,0l14.2,8.2c.8.5,1.1,1.5.6,2.3-.3.5-.8.8-1.4.8Z"></path><path id="N" d="M241.7,229.7c-.3,0-.6-.1-.8-.2L205.4,209c-.8-.5-1.1-1.5-.6-2.3s1.5-1.1,2.3-.6l35.5,20.5c.8.5,1.1,1.5.6,2.3-.4.5-.9.8-1.5.8Z"></path><path id="O" d="M241.7,229.7c-.6,0-1.1-.3-1.4-.8-.5-.8-.2-1.8.6-2.3l35.5-20.5c.8-.5,1.8-.2,2.3.6s.2,1.8-.6,2.3l-35.5,20.5c-.3.1-.6.2-.9.2Z"></path><path id="P" d="M241.7,270.7c-.9,0-1.7-.8-1.7-1.7v-41c0-.9.8-1.7,1.7-1.7s1.7.8,1.7,1.7v41c0,.9-.8,1.7-1.7,1.7Z"></path></defs><g class="L"><path d="M0 445.6V10.1C0 4.6 4.5.1 10 .1h460c5.5 0 10 4.5 10 10v435.5c0 5.5-4.5 10-10 10H10c-5.5 0-10-4.5-10-10z"></path><g class="B M N C"><path d="M137 370.9l-35.6 20.5-35.6-20.5v-41.1l35.6-20.5 35.6 20.5v41.1zm0-123.2l-35.6 20.5-35.6-20.5v-41.1l35.6-20.5 35.6 20.5v41.1z"></path><path d="M101.4 186.2l-35.6 20.5-35.6-20.5v-41.1l35.6-20.5 35.6 20.5v41.1z"></path><path d="M137 124.6l-35.6 20.5-35.6-20.5V83.5L101.4 63 137 83.5v41.1z"></path><path d="M101.4 63L65.8 83.5 30.2 63V21.9L65.8 1.4l35.6 20.5V63h0zm71 369.5L137 453l-35.6-20.5v-41.1l35.6-20.5 35.4 20.5v41.1z"></path></g></g><path d="M101.4,429.6c0,1.8-1,3.4-2.5,4.3L68.3,451.5c-1.5.9-3.5.9-5,0L32.7,433.9c-1.5-.9-2.5-2.5-2.5-4.3v-35.3c0-1.8,1-3.4,2.5-4.3l30.6-17.6c1.5-.9,3.5-.9,5,0L98.9,390c1.5.9,2.5,2.5,2.5,4.3v35.3v0Z" class="B D H"></path><path d="M172.4,309.3L137,329.8l-35.6-20.5v-41.1L137,247.7l35.4,20.5v41.1Z" class="B C L M N"></path><path d="M101.4,306.4c0,1.8-1,3.4-2.5,4.3L68.3,328.3c-1.5.9-3.5.9-5,0L32.7,310.8c-1.5-.9-2.5-2.5-2.5-4.3v-35.3c0-1.8,1-3.4,2.5-4.3l30.6-17.6c1.5-.9,3.5-.9,5,0l30.6,17.6c1.5.9,2.5,2.5,2.5,4.3v35.2v0Z" class="B D H"></path><g class="L M N B C"><path d="M208 124.6l-35.6 20.5-35.4-20.5V83.5L172.4 63 208 83.5v41.1zm35.6 307.9L208 453l-35.6-20.5v-41.1l35.6-20.5 35.6 20.5v41.1z"></path><path d="M279.2,370.9l-35.6,20.5L208,370.9v-41.1l35.6-20.5l35.6,20.5v41.1Z"></path><path d="M243.6,309.3L208,329.8l-35.6-20.5v-41.1L208,247.7l35.6,20.5v41.1Z"></path><path d="M208 370.9l-35.6 20.5-35.4-20.5v-41.1l35.4-20.5 35.6 20.5v41.1zm-.4-122.7L172 268.7l-35.6-20.5v-41.1l35.6-20.5 35.6 20.5v41.1zm72 0L244 268.7l-35.6-20.5v-41.1l35.6-20.5 35.6 20.5v41.1zm-.4-123.6l-35.6 20.5-35.6-20.5V83.5L243.6 63l35.6 20.5v41.1z"></path></g><path d="M172.4,183.3c0,1.8-.9,3.4-2.5,4.3l-30.4,17.6c-1.5.9-3.5.9-5,0l-30.6-17.6c-1.5-.9-2.5-2.5-2.5-4.3v-35.3c0-1.8,1-3.4,2.5-4.3l30.6-17.6c1.5-.9,3.5-.9,5,0l30.4,17.6c1.5.9,2.5,2.5,2.5,4.3v35.3Z" class="B D H"></path><g class="L M N B C"><path d="M243.6 63L208 83.5 172.4 63V21.9L208 1.4l35.6 20.5V63zm71.1 369.5L279.1 453l-35.6-20.5v-41.1l35.6-20.5 35.6 20.5v41.1zm35.5-61.6l-35.4 20.5-35.6-20.5v-41.1l35.6-20.5 35.4 20.5v41.1z"></path><use xlink:href="#C"></use><path d="M350.2,247.7l-35.4,20.5-35.6-20.5v-41.1l35.6-20.5l35.4,20.5v41.1Z"></path><use xlink:href="#D"></use><path d="M350.2 124.6l-35.4 20.5-35.6-20.5V83.5L314.8 63l35.4 20.5v41.1h0zm35.6 307.9L350.2 453l-35.4-20.5v-41.1l35.4-20.5 35.6 20.5v41.1h0zm0-123.2l-35.6 20.5-35.4-20.5v-41.1l35.4-20.5 35.6 20.5v41.1z"></path><path d="M385.8,186.2l-35.6,20.5-35.4-20.5v-41.1l35.4-20.5l35.6,20.5v41.1Z"></path></g><path d="M172.4,60.1c0,1.8-.9,3.4-2.5,4.3L139.5,82c-1.5.9-3.5.9-5,0L103.9,64.4c-1.5-.9-2.5-2.5-2.5-4.3v-35.3c0-1.8,1-3.4,2.5-4.3L134.5,2.9c1.5-.9,3.5-.9,5,0l30.4,17.6c1.5.9,2.5,2.5,2.5,4.3v35.3Z" class="B D H"></path><g class="L M N B C"><path d="M456.9,432.5L421.3,453l-35.6-20.5v-41.1l35.6-20.5l35.6,20.5v41.1Z"></path><use xlink:href="#E"></use><use xlink:href="#C" x="142.2"></use><use xlink:href="#D" x="142.2"></use></g><path d="M421.4 368c0 1.8-1 3.4-2.5 4.3l-30.6 17.6a4.97 4.97 0 0 1-5 0l-30.6-17.6c-1.5-.9-2.5-2.5-2.5-4.3v-35.3c0-1.8 1-3.4 2.5-4.3l30.6-17.6a4.97 4.97 0 0 1 5 0l30.6 17.6c1.5.9 2.5 2.5 2.5 4.3V368zm0-123.1c0 1.8-1 3.4-2.5 4.3l-30.6 17.6a4.97 4.97 0 0 1-5 0l-30.6-17.6c-1.5-.9-2.5-2.5-2.5-4.3v-35.3c0-1.8 1-3.4 2.5-4.3l30.6-17.6a4.97 4.97 0 0 1 5 0l30.6 17.6c1.5.9 2.5 2.5 2.5 4.3v35.3z" class="D B H"></path><g class="L M N B C"><path d="M456.9 63l-35.6 20.5L385.7 63V21.9l35.6-20.5 35.6 20.5V63h0z"></path><path d="M385.8 63l-35.6 20.5L314.7 63V21.9l35.4-20.5 35.6 20.5.1 41.1h0z"></path></g><path d="M314.7 60.1c0 1.8-1 3.4-2.5 4.3L281.6 82a4.97 4.97 0 0 1-5 0L246 64.4c-1.5-.9-2.5-2.5-2.5-4.3V24.8c0-1.8 1-3.4 2.5-4.3l30.6-17.6a4.97 4.97 0 0 1 5 0l30.6 17.6c1.5.9 2.5 2.5 2.5 4.3v35.3zm106.7 61.6c0 1.8-1 3.4-2.5 4.3l-30.6 17.6a4.97 4.97 0 0 1-5 0L352.7 126c-1.5-.9-2.5-2.5-2.5-4.3V86.4c0-1.8 1-3.4 2.5-4.3l30.6-17.6a4.97 4.97 0 0 1 5 0l30.6 17.6c1.5.9 2.5 2.5 2.5 4.3v35.3h0z" class="D B H"></path><g class="L M N B C"><path d="M456.9 391.4v41.1l23.1 13.3v-67.7z"></path><use xlink:href="#E" y="-123.2"></use><path d="M456.9 268.2v41.1l23.1 13.3v-67.7zM30.2 145.1L0 127.7v75.9l30.2-17.4z"></path><path d="M30.3 186.1L0 203.5v47.2l30.2 17.5 35.6-20.5h.1v-41.1z"></path><path d="M30.2 268.2L0 250.8v45.8 1.2 28.9l30.2-17.4z"></path><path d="M30.3 309.3L0 326.7v11.6 27.5 1.4 6.7l30.2 17.5 35.6-20.5h.1v-41.1z"></path><path d="M30.2 391.4L0 374v39 1.2 28.9l.3 3.2 29.9-13.8zm0-369.5L1.2 5.7.8 79.9 30.2 63zm426.7 0V63L480 76.3l-1-67.7z"></path></g><path id="Q" d="M188.011 197.31L172.5 186.05l-.1-40.95-35.4-20.475" stroke-dashoffset="101.02" stroke-dasharray="101.02" class="D E I"></path><path id="R" d="M180.4,262.3l-8,5.9-36-20" stroke="#ecc092" stroke-dashoffset="51.13" stroke-dasharray="51.13" class="D I"></path><path id="S" d="M243.2 300.6v10.1" stroke-dashoffset="10.1" stroke-dasharray="10.1" class="D E I"></path><path id="T" d="M304.076 261.875l10.624 6.075.1 41.55 35.915 20.993" stroke-dashoffset="95.39" stroke-dasharray="95.39" class="D E I"></path><path id="U" d="M303.6 194.2l11.2-7.6 36.018 20.9" stroke="#ebc9a2" stroke-dashoffset="55.18" stroke-dasharray="55.18" class="D I"></path><path id="V" d="M243.3,155.9l-.4-10.95l36.7-20.35" stroke-dashoffset="52.93" stroke-dasharray="52.93" class="D E I"></path><path id="W" d="M304.076 194.2l10.724-7.6-.1-41.65 35.4-20.35" stroke-dashoffset="95.63" stroke-dasharray="95.63" class="D E I"></path><path id="X" d="M180.4 261.875l-8 6.075.1 41.35-35.6 19.738" stroke-dashoffset="92.11" stroke-dasharray="92.11" class="D E I"></path><g opacity=".8" filter="url(#B)"><use xlink:href="#F" fill="#ffd730"></use><use xlink:href="#G" class="B D H"></use><use xlink:href="#H" class="P"></use><use xlink:href="#I" class="O"></use><use xlink:href="#J" class="F"></use><use xlink:href="#K" class="P"></use><use xlink:href="#L" class="O"></use><use xlink:href="#M" class="F"></use><g class="Q"><use xlink:href="#N"></use><use xlink:href="#O"></use><use xlink:href="#P"></use></g></g><use xlink:href="#F" fill="#ffd730"></use><use xlink:href="#G" class="B D H"></use><use xlink:href="#H" class="P"></use><use xlink:href="#I" class="O"></use><use xlink:href="#J" class="F"></use><use xlink:href="#K" class="P"></use><use xlink:href="#L" class="O"></use><use xlink:href="#M" class="F"></use><g class="Q"><use xlink:href="#N"></use><use xlink:href="#O"></use><use xlink:href="#P"></use></g><g id="Y" transform="matrix(0 0 0 0 99.549988 104.099987)" class="F"><g transform="translate(-99.55 -104.1)"><g><path d="M105.5,114.1c-2.7,0-5.2-1-7.1-2.9v0l-5.5-5.5c-.6-.6-1-1.5-1-2.4s.4-1.8,1-2.4s1.5-1,2.4-1v0c.9,0,1.8.4,2.4,1l5.1,5.1c.6.6,1.6.6,2.2,0c.3-.3.5-.7.5-1.1s-.2-.8-.5-1.1l-5.5-5.5c-1.5-1.5-3.6-2.4-5.8-2.4v0c-2.2,0-4.3.9-5.8,2.5s-2.4,3.7-2.3,5.9c0,2.2.9,4.2,2.5,5.7c1.5,1.5,3.6,2.3,5.7,2.3.8,0,1.6-.1,2.3-.3.5-.1,1,.1,1.2.6.1.5-.1,1-.6,1.2-.9.3-1.9.4-2.9.4-2.7,0-5.2-1-7.1-2.9s-3-4.3-3-7c0-1.4.2-2.7.7-4c.5-1.2,1.2-2.3,2.1-3.3.9-.9,2-1.7,3.2-2.2c1.3-.5,2.6-.8,4-.8v0c2.7,0,5.2,1,7.1,2.9v0l5.5,5.5c.6.6,1,1.5,1,2.4s-.4,1.8-1,2.4c-1.3,1.3-3.5,1.3-4.8,0l-5.1-5.1c-.6-.6-1.6-.6-2.2,0-.3.3-.5.7-.5,1.1s.2.8.4,1.1l5.5,5.5c1.5,1.5,3.6,2.4,5.8,2.4s4.2-.9,5.8-2.4c1.5-1.5,2.4-3.6,2.4-5.8s-.9-4.2-2.4-5.8c-1.5-1.5-3.6-2.4-5.8-2.4-.7,0-1.4.1-2.1.3-.1,0-.2.1-.3.1-.5.1-1-.1-1.2-.6-.1-.5.1-1,.6-1.2l.4-.1c.8-.2,1.7-.3,2.5-.3c1.4,0,2.7.3,3.9.8s2.3,1.2,3.2,2.2c.9.9,1.7,2,2.2,3.2s.8,2.6.8,3.9c0,2.7-1.1,5.2-3,7.1-1.7,1.9-4.2,2.9-6.9,2.9Z"></path></g></g></g><g id="Z" transform="matrix(0 0 0 0 237.949974 103.949997)"><g transform="translate(-237.95 -103.95)"><g><path d="M235.2 104.2H230c-.5 0-.9-.4-.9-.9s.4-.9.9-.9h5.2c.5 0 .9.4.9.9s-.3.9-.9.9z" fill="#f7b11a" class="G"></path><path d="M230.4,108.8h-5.2c-.5,0-.9-.4-.9-.9s.4-.9.9-.9h5.2c.5,0,.9.4.9.9s-.4.9-.9.9Z" fill="#f7b11a" class="G"></path><path d="M238.5,120c-.2,0-.4-.1-.6-.2-.1-.1-.2-.2-.2-.3-.1-.1-.1-.2-.1-.4-.1-1.2.2-2.4.9-3.5.7-1,1.7-1.8,2.8-2.2l3.7-1.2-4.3-7c-.2-.4-.2-.9.2-1.2l9.3-8.2c.7-.6,1.2-1.5,1.2-2.5s-.3-1.9-1-2.6l-.6-.6L226,113.2c-.7.7-1.1,1.5-1.1,2.5c0,.7.2,1.3.5,1.8l12.5-11c.4-.3,1-.3,1.3.1s.3,1-.1,1.3l-13.3,11.7c-.4.3-.9.3-1.3,0v0c-1-1-1.6-2.4-1.6-3.9s.6-2.8,1.6-3.8l24.4-23.7c.4-.4,1-.4,1.3,0l1.2,1.2c.5.5.9,1.2,1.2,1.9s.4,1.4.4,2.1-.2,1.4-.5,2.1-.8,1.3-1.3,1.8l-8.7,7.7l4.5,7.3c.2.2.2.5.1.8s-.3.5-.6.6l-4.8,1.6c-.8.2-1.4.7-1.9,1.4-.3.4-.4.8-.5,1.2l8.1-1.2c1.1-.2,2-.8,2.6-1.8.5-1,.6-2.1.1-3.1l-3.3-7.4c-.2-.5,0-1,.5-1.2s1,0,1.2.5l3.3,7.4c.7,1.6.6,3.3-.2,4.8s-2.3,2.5-4,2.7l-9.2,1.3c.2.1.2.1.1.1Z" fill="#009849" class="G"></path></g></g></g><g id="a" transform="matrix(0 0 0 0 384.317413 103.999992)" class="Q"><g transform="translate(-384.317 -104)"><g><path d="M372.5,120.1c-.2,0-.4-.1-.5-.2-.3-.2-.5-.6-.4-.9l2.7-16.5c.1-.9.6-1.7,1.3-2.3s1.5-.9,2.4-.9h11l.6-3.8h-1c-.5,0-.9-.2-1.2-.6-.3-.3-.4-.8-.4-1.3l.7-4.4c.1-.8.8-1.3,1.5-1.3h4.1c1.1,0,2.1.5,2.9,1.3.7.8,1,1.9.8,3l-1.7,10.2c0,.2-.1.4-.2.6s-.3.3-.5.5l-9.2,5.7c-.6.3-1.3.3-1.8-.1l-4.3-3.4c-.4-.3-.5-.9-.1-1.3.3-.4.9-.5,1.3-.1l4.1,3.3l8.9-5.5L395.1,92c.1-.5-.1-1.1-.4-1.5-.4-.4-.9-.7-1.4-.7h-3.9l-.6,3.8h1c.5,0,.9.2,1.2.6.3.3.4.8.4,1.3l-.7,4.4c-.1.8-.8,1.3-1.5,1.3h-11.3c-.9,0-1.7.7-1.9,1.6l-2.3,14.4l3.3-2c.2-.2.5-.2.8-.2h12.1c.9,0,1.7-.7,1.9-1.6l.8-4.6c.1-.5.6-.9,1.1-.8s.9.6.8,1.1l-.8,4.6c-.1.9-.6,1.7-1.3,2.3s-1.5.9-2.4.9h-12l-5,3.1c-.1,0-.3.1-.5.1Z"></path></g></g></g><g id="b" transform="matrix(0 0 0 0 384.500015 227.862511)"><g transform="translate(-384.5 -227.863)"><g><g><g><g><g clip-path="url(#c)"><g><path d="M384.4,223.2c-1.6,0-2.9-1.3-2.9-2.9s1.3-2.9,2.9-2.9s2.9,1.3,2.9,2.9-1.3,2.9-2.9,2.9Zm0-4c-.6,0-1.1.5-1.1,1.1s.5,1.1,1.1,1.1s1.1-.5,1.1-1.1c-.1-.6-.5-1.1-1.1-1.1Z" class="F"></path><path d="M378.1,243.8c-.5,0-1-.1-1.4-.4l-6.7-3.8c-.9-.5-1.4-1.4-1.4-2.4v-7.7c0-1,.5-1.9,1.4-2.4l5.4-3.1c.5-.3,1-.1,1.3.3.3.5.1,1-.3,1.3l-5.4,3.1c-.3.2-.5.5-.5.8v7.7c0,.3.2.6.5.8l6.7,3.8c.1.1.3.1.5.1s.3,0,.5-.1l5.4-3.1c.4-.3,1-.1,1.3.3s.1,1-.3,1.3l-5.4,3.1c-.7.3-1.2.4-1.6.4Z" class="P"></path><path d="M390.7,243.8c-.5,0-1-.1-1.4-.4l-5.4-3.1c-.5-.3-.6-.8-.3-1.3.3-.4.8-.6,1.3-.3l5.4,3.1c.1.1.3.1.5.1s.3,0,.5-.1L398,238c.3-.2.5-.5.5-.8v-7.7c0-.3-.2-.6-.5-.8l-5.4-3.1c-.4-.3-.6-.8-.3-1.3s.8-.6,1.3-.3l5.4,3.1c.9.5,1.4,1.4,1.4,2.4v7.7c0,1-.5,1.9-1.4,2.4l-6.7,3.8c-.6.2-1.1.4-1.6.4Z" class="O"></path><path d="M375.9,225.6c-.5,0-.9-.4-.9-.9v-6.2c0-1,.5-1.9,1.4-2.4l6.7-3.8c.9-.5,1.9-.5,2.8,0l6.7,3.8c.9.5,1.4,1.4,1.4,2.4v6.2c0,.5-.4.9-.9.9s-.9-.4-.9-.9v-6.2c0-.3-.2-.6-.5-.8l-6.7-3.8c-.1-.1-.3-.1-.5-.1s-.3,0-.5.1l-6.7,3.8c-.3.2-.5.5-.5.8v6.2c0,.5-.4.9-.9.9Z" class="Q"></path><path d="M382.2 231.8c-.2 0-.3 0-.5-.1l-5.4-3.1c-.9-.5-1.4-1.4-1.4-2.4v-1.4c0-.5.4-.9.9-.9s.9.4.9.9v1.4c0 .3.2.6.5.8l5.4 3.1c.5.3.6.8.3 1.3-.1.2-.4.4-.7.4zm4.4 0c-.5 0-.9-.4-.9-.9 0-.3.2-.6.5-.8l5.4-3.1c.3-.2.5-.5.5-.8v-1.4c0-.5.4-.9.9-.9s.9.4.9.9v1.5c0 1-.5 1.9-1.4 2.4l-5.4 3.1h-.5z" class="F"></path><path d="M384.4,228c-.5,0-.9-.4-.9-.9c0-.3.2-.6.5-.8l5.4-3.1c.9-.5,1.9-.5,2.8,0l1.3.7c.5.3.6.8.3,1.3s-.8.6-1.3.3l-1.3-.7c-.1-.1-.3-.1-.5-.1s-.3,0-.5.1l-5.4,3.1c-.1.1-.2.1-.4.1Zm0,12.4c-.2,0-.3,0-.5-.1l-1.3-.7c-.9-.5-1.4-1.4-1.4-2.4v-6.2c0-.5.4-.9.9-.9s.9.4.9.9v6.2c0,.3.2.6.5.8l1.3.7c.4.3.6.8.3,1.3-.1.2-.4.4-.7.4Z" class="F"></path><path d="M384.4,240.4c-.5,0-.9-.4-.9-.9c0-.3.2-.6.5-.8l1.3-.7c.3-.2.5-.5.5-.8v-6.2c0-.5.4-.9.9-.9s.9.4.9.9v6.2c0,1-.5,1.9-1.4,2.4l-1.3.7c-.2.1-.3.1-.5.1Zm0-12.4c-.2,0-.3,0-.5-.1l-5.4-3.1c-.1-.1-.3-.1-.5-.1s-.3,0-.5.1l-1.3.7c-.4.3-1,.1-1.3-.3-.3-.5-.1-1,.3-1.3l1.3-.7c.9-.5,1.9-.5,2.8,0l5.4,3.1c.4.3.6.8.3,1.3c0,.2-.3.4-.6.4Z" class="F"></path></g><clipPath id="c"><use width="32" height="32" xlink:href="#A" x="368.4" y="211.8"></use></clipPath></g></g></g></g></g></g></g><g id="d" transform="matrix(0 0 0 0 98.638489 228.949959)"><g transform="translate(-98.638 -228.95)"><g><g><g><g><g clip-path="url(#e)"><g><path d="M105.4,237.7c-2,0-3.7-1.7-3.7-3.7c0-1,.3-1.9,1-2.5.2-.2.4-.3.6-.4-.1-.1-.2-.2-.2-.3s-.1-.3,0-.4c.1-.5.5-.9,1-.8.8.1,1.8.4,2.6.9h.4c.5,0,.9.4.9,1v0c.8.8,1.2,1.6,1.2,2.5c0,1-.3,1.9-.9,2.6-.8.7-1.8,1.1-2.9,1.1Zm.7-5.4c-.8,0-1.6.1-2.1.6-.3.2-.4.6-.4,1.1c0,1,.8,1.8,1.8,1.8.6,0,1.1-.2,1.4-.6.3-.3.4-.7.4-1.2c0-.7-.7-1.4-1.1-1.7Z" opacity=".81" fill="#f4b01c"></path><path d="M90.9,242.7c-1,0-2-.4-2.7-1.1-.8-.7-1.2-1.6-1.3-2.6l-.1-1.3-.8-.1c-2.1-.4-3.6-2.4-3.3-4.5l.9-7.1c.1-.5.3-1,.7-1.3s.8-.4,1.3-.4.9.2,1.3.5.6.8.7,1.4L88.8,239c.1,1.1,1,2,2.2,2h19.6c.6,0,1.2-.3,1.6-.7.4-.5.6-1.1.6-1.7L110.9,219c-.1-1.1-1-2-2.2-2h-19.6c-.6,0-1.2.3-1.6.7-.4.5-.6,1.1-.6,1.7l.1,1.3c0,.1.1.1.2.1h19.9c.5,0,.9.4.9.9s-.4.9-.9.9h-19.9c-1,0-1.9-.8-2-1.8l-.1-1.3c-.1-1.1.3-2.3,1-3.1.8-.8,1.9-1.3,3-1.3h19.6c1,0,2,.4,2.7,1.1.8.7,1.2,1.6,1.3,2.6l1.9,19.6c.1,1.1-.3,2.3-1,3.1-.8.8-1.9,1.3-3,1.3l-19.7-.1v0Zm-5.4-16.6c-.1,0-.1.1-.2.1l-.9,7.1c-.1,1.2.6,2.2,1.8,2.4l.3.1-.9-9.5c0-.1,0-.2-.1-.2v0Z" fill="#256fb2" class="G"></path></g><clipPath id="e"><use width="32" height="32" xlink:href="#U" x="82.5" y="212.9" href="#A"></use></clipPath></g></g></g></g></g></g></g><g id="f" transform="matrix(0 0 0 0 100.062508 349.649979)"><g transform="translate(-100.063 -349.65)"><g><g><path d="M115.2 359.3l-6-10.4 4.2-7.2.4 1.4c.1.2.2.4.3.5.2.1.4.2.6.2h.2c.5-.1.8-.6.7-1.1l-1-3.6c0-.2-.1-.3-.2-.4h0c-.1-.1-.2-.1-.2-.2h0 0 0 0 0 0 0 0 0 0 0 0 0 0 0 0 0 0 0 0 0 0 0 0 0 0 0l-3.6 1c-.5.1-.8.6-.7 1.1s.6.8 1.1.7l1.4-.4-3.6 6.3-6.1-10.4c-.5-.9-1.4-1.4-2.4-1.4s-1.9.5-2.4 1.4l-13.2 22.7a2.8 2.8 0 0 0 0 2.8c.5.9 1.4 1.4 2.4 1.4h3.3c.5 0 .9-.4.9-.9s-.4-.9-.9-.9h-3.3c-.5 0-.7-.3-.8-.5-.1-.1-.2-.5 0-.9l13.2-22.7c.2-.4.6-.5.8-.5s.6 0 .8.5l6.6 11.4-3.2 5.5-2.6-4.5c-.3-.6-.9-.9-1.6-.9s-1.3.4-1.6.9l-5.5 9.5a2.8 2.8 0 0 0 0 2.8c.5.9 1.4 1.4 2.4 1.4h17.8c1 0 1.9-.5 2.4-1.4-.1-1.2-.1-2.3-.6-3.2zm-1.6 1.9c-.1.1-.3.5-.8.5H95c-.5 0-.7-.3-.8-.5-.1-.1-.2-.5 0-.9l5.5-9.5 2.6 4.5c.3.6.9.9 1.6.9s1.3-.3 1.6-.9l2.6-4.5 5.5 9.5c.2.4 0 .8 0 .9z" fill="#e42528"></path></g></g></g></g><g id="g" transform="matrix(0 0 0 0 243.302711 350.449982)"><g transform="translate(-243.303 -350.45)"><g><path d="M252.8 356c-.5 0-.9-.4-.9-.9V350c0-.5-.4-1-1-1H236c-.5 0-1 .4-1 1v1.1c0 .5-.4.9-.9.9s-.9-.4-.9-.9V350c0-1.6 1.3-2.8 2.8-2.8h14.9c1.6 0 2.8 1.3 2.8 2.8v5.1c0 .5-.4.9-.9.9z" class="G O"></path><path d="M256.6,366.4h-26.3c-1.6,0-2.8-1.3-2.8-2.8v-7.5c0-.5.4-.9.9-.9s.9.4.9.9v7.5c0,.5.4,1,1,1h26.3c.5,0,1-.4,1-1v-15.8c0-.3-.1-.6-.4-.7L244,336.6c-.3-.3-.8-.3-1.2,0L229.7,347c-.2.2-.4.5-.4.7v3.2c0,.4.2.7.5.8l13.1,7c.1.1.3.1.4.1.2,0,.3,0,.4-.1l8.5-4.5c.5-.2,1-.1,1.3.4.2.5.1,1-.4,1.3l-8.5,4.5c-.8.4-1.8.4-2.7,0l-13.1-7c-.9-.5-1.5-1.4-1.5-2.5v-3.2c0-.9.4-1.7,1.1-2.2l13.1-10.4c.5-.4,1.1-.6,1.8-.6.6,0,1.3.2,1.8.6l13.1,10.4c.7.5,1.1,1.3,1.1,2.2v15.9c.1,1.5-1.2,2.8-2.7,2.8Z" class="F G"></path></g></g></g><g id="h" transform="matrix(0 0 0 0 385.5 351.550018)"><g transform="translate(-385.5 -351.55)"><g><g><g><g><g clip-path="url(#i)"><g class="R"><path d="M392.3,367.5h-21.9c-.5,0-.9-.4-.9-.9v-8c0-1.7,1.1-3.3,2.7-3.8l24.2-8.3c1.9-.6,3.2-2.4,3.2-4.4c0-2.6-2.1-4.7-4.7-4.7h-23.6v15.5c0,.5-.4.9-.9.9s-.9-.4-.9-.9v-16.4c0-.5.4-.9.9-.9h24.5c3.6,0,6.5,2.9,6.5,6.5c0,2.8-1.8,5.3-4.4,6.2l-24.2,8.3c-.9.3-1.5,1.1-1.5,2.1v7h20.9c2,0,3.8-.8,5.2-2.1c1.4-1.4,2.1-3.2,2.1-5.2c0-1.4-.4-2.7-1.1-3.9s-1.8-2.1-3-2.7c-.5-.2-.7-.8-.4-1.3.2-.5.8-.7,1.3-.4c1.5.7,2.8,1.9,3.8,3.4.9,1.5,1.4,3.2,1.4,4.9c0,2.5-1,4.8-2.7,6.5-1.8,1.7-4.1,2.6-6.5,2.6Z" class="G"></path><path d="M380 348.6a3.8 3.8 0 1 1 0-7.6 3.8 3.8 0 0 1 3.8 3.8c0 2.2-1.7 3.8-3.8 3.8zm0-5.6c-1 0-1.9.8-1.9 1.9 0 1 .8 1.9 1.9 1.9 1 0 1.9-.8 1.9-1.9a1.97 1.97 0 0 0-1.9-1.9z" class="G"></path><path d="M389.4 361.9a3.8 3.8 0 1 1 0-7.6 3.8 3.8 0 1 1 0 7.6zm0-5.6c-1 0-1.9.8-1.9 1.9 0 1 .8 1.9 1.9 1.9 1 0 1.9-.8 1.9-1.9s-.9-1.9-1.9-1.9z" class="G"></path></g><clipPath id="i"><use width="32" height="32" xlink:href="#V" x="369.5" y="335.5" href="#A"></use></clipPath></g></g></g></g></g></g></g><path id="j" transform="matrix(0 1.3 -1.3 0 166.7 39.15)" d="M65.75 22.72h-31.5L18.5 50l15.75 27.28h31.5L81.5 50 65.75 22.72z" class="D E J K"></path><path id="k" transform="matrix(1.122252 -.656164 .656164 1.122252 154.943219 327.145608)" d="M65.75 22.72h-31.5L18.5 50l15.75 27.28h31.5L81.5 50 65.75 22.72z" class="D E J K"></path><path id="l" transform="matrix(.00187 -1.299999 1.299999 .00187 321.056547 293.156412)" d="M65.75 22.72h-31.5L18.5 50l15.75 27.28h31.5L81.5 50 65.75 22.72z" class="D E J K"></path><path id="m" transform="matrix(-1.119894 -.660179 .660179 -1.119894 408.699769 193.003677)" d="M65.75 22.72h-31.5L18.5 50l15.75 27.28h31.5L81.5 50 65.75 22.72z" class="D E J K"></path><path id="n" transform="matrix(0 1.3 -1.3 0 166.714 162)" d="M65.75 22.72h-31.5L18.5 50l15.75 27.28h31.5L81.5 50 65.75 22.72z" class="D E J K"></path><path id="o" transform="matrix(1.143028 .619263 -.619263 1.143028 75.525726 261.885448)" d="M65.75 22.72h-31.5L18.5 50l15.75 27.28h31.5L81.5 50 65.75 22.72z" class="D E J K"></path><path id="p" transform="matrix(0 1.3 -1.3 0 308.714 39)" d="M65.75 22.72h-31.5L18.5 50l15.75 27.28h31.5L81.5 50 65.75 22.72z" class="D E J K"></path><path id="q" transform="matrix(.017922 -1.299876 1.299876 .017922 319.824089 414.097735)" d="M65.75 22.72h-31.5L18.5 50l15.75 27.28h31.5L81.5 50 65.75 22.72z" class="D E J K"></path></svg>