<svg xmlns="http://www.w3.org/2000/svg" xmlns:xlink="http://www.w3.org/1999/xlink" viewBox="0 0 747.38 776.62"><defs><style>.cls-1{isolation:isolate;}.cls-2{fill:url(#linear-gradient);}.cls-3{fill:url(#linear-gradient-2);}.cls-4{opacity:0.62;}.cls-4,.cls-64,.cls-88,.cls-94{mix-blend-mode:overlay;}.cls-5{fill:url(#linear-gradient-3);}.cls-6{opacity:0.71;fill:url(#linear-gradient-4);}.cls-7{fill:url(#linear-gradient-5);}.cls-8{stroke:#2e2e8f;fill:url(#linear-gradient-6);}.cls-183,.cls-21,.cls-22,.cls-23,.cls-24,.cls-25,.cls-26,.cls-28,.cls-29,.cls-30,.cls-31,.cls-32,.cls-33,.cls-34,.cls-35,.cls-36,.cls-37,.cls-38,.cls-39,.cls-40,.cls-66,.cls-8{stroke-miterlimit:10;}.cls-183,.cls-21,.cls-22,.cls-23,.cls-24,.cls-25,.cls-26,.cls-8{stroke-width:2px;}.cls-10,.cls-11,.cls-27,.cls-50,.cls-9{mix-blend-mode:screen;}.cls-9{fill:url(#linear-gradient-7);}.cls-10{fill:url(#linear-gradient-8);}.cls-11{fill:url(#linear-gradient-9);}.cls-12{fill:url(#linear-gradient-10);}.cls-13{fill:url(#linear-gradient-11);}.cls-14{fill:url(#linear-gradient-12);}.cls-15{fill:url(#linear-gradient-13);}.cls-16{fill:url(#linear-gradient-14);}.cls-17{fill:url(#linear-gradient-15);}.cls-18{fill:url(#linear-gradient-16);}.cls-19{fill:url(#linear-gradient-17);}.cls-20{fill:url(#linear-gradient-18);}.cls-183,.cls-21,.cls-22,.cls-23,.cls-24,.cls-25,.cls-26,.cls-28,.cls-29,.cls-30,.cls-31,.cls-32,.cls-33,.cls-34,.cls-35,.cls-36,.cls-37,.cls-38,.cls-39,.cls-40,.cls-66{fill:none;}.cls-21,.cls-22,.cls-23,.cls-24,.cls-25,.cls-26{stroke:#eef2ff;}.cls-22{stroke-dasharray:13.37 13.37;}.cls-23{stroke-dasharray:11.87 11.87;}.cls-24{stroke-dasharray:11.9 11.9;}.cls-25{stroke-dasharray:7.34 7.34;}.cls-26{stroke-dasharray:8;}.cls-27{opacity:0.59;fill:url(#linear-gradient-19);}.cls-28{stroke:url(#linear-gradient-20);}.cls-29{stroke:url(#linear-gradient-21);}.cls-30{stroke:url(#linear-gradient-22);}.cls-31{stroke:url(#linear-gradient-23);}.cls-32{stroke:url(#linear-gradient-24);}.cls-33{stroke:url(#linear-gradient-25);}.cls-34{stroke:url(#linear-gradient-26);}.cls-35{stroke:url(#linear-gradient-27);}.cls-36{stroke:url(#linear-gradient-28);}.cls-37{stroke:url(#linear-gradient-29);}.cls-38{stroke:url(#linear-gradient-30);}.cls-39{stroke:url(#linear-gradient-31);}.cls-40{stroke:url(#linear-gradient-32);}.cls-41{fill:#2e2e89;}.cls-42{fill:url(#linear-gradient-33);}.cls-43{opacity:0.48;}.cls-43,.cls-55,.cls-58{mix-blend-mode:multiply;}.cls-44{fill:url(#White_Black);}.cls-45{fill:url(#linear-gradient-34);}.cls-46,.cls-60{opacity:0.29;}.cls-46{fill:url(#linear-gradient-35);}.cls-47{fill:url(#linear-gradient-36);}.cls-48{fill:url(#linear-gradient-37);}.cls-49{fill:url(#linear-gradient-38);}.cls-50{opacity:0.65;}.cls-51{fill:url(#linear-gradient-39);}.cls-52{fill:url(#linear-gradient-40);}.cls-53{fill:url(#linear-gradient-41);}.cls-54{fill:url(#linear-gradient-42);}.cls-55{opacity:0.47;}.cls-56{fill:url(#White_Black-2);}.cls-57{fill:url(#linear-gradient-43);}.cls-58{opacity:0.76;}.cls-59{fill:url(#linear-gradient-44);}.cls-60{fill:url(#linear-gradient-45);}.cls-61{fill:url(#linear-gradient-46);}.cls-62{fill:url(#linear-gradient-47);}.cls-63{fill:url(#linear-gradient-48);}.cls-64{opacity:0.23;}.cls-65{fill:url(#linear-gradient-49);}.cls-66{stroke:#131111;}.cls-67{fill:url(#linear-gradient-50);}.cls-68{fill:url(#linear-gradient-51);}.cls-69{fill:url(#linear-gradient-52);}.cls-70{fill:url(#linear-gradient-53);}.cls-71{fill:url(#linear-gradient-54);}.cls-72,.cls-94{opacity:0.36;}.cls-100,.cls-72,.cls-83,.cls-98{mix-blend-mode:color-burn;}.cls-73{fill:url(#linear-gradient-55);}.cls-74{fill:url(#linear-gradient-56);}.cls-75{fill:url(#linear-gradient-57);}.cls-76{fill:url(#linear-gradient-58);}.cls-77{fill:url(#linear-gradient-59);}.cls-78{fill:url(#linear-gradient-60);}.cls-79{fill:url(#linear-gradient-61);}.cls-80{fill:url(#linear-gradient-62);}.cls-81{fill:url(#linear-gradient-63);}.cls-82{fill:url(#linear-gradient-64);}.cls-83{opacity:0.44;}.cls-84{fill:url(#linear-gradient-65);}.cls-85{fill:url(#linear-gradient-66);}.cls-86{fill:#232d44;}.cls-87{fill:url(#linear-gradient-67);}.cls-88{opacity:0.56;}.cls-89{fill:url(#linear-gradient-68);}.cls-90{fill:url(#linear-gradient-69);}.cls-91{fill:url(#linear-gradient-70);}.cls-92{fill:url(#linear-gradient-71);}.cls-93{fill:url(#linear-gradient-72);}.cls-95{fill:url(#linear-gradient-73);}.cls-96{fill:url(#linear-gradient-74);}.cls-97{fill:url(#linear-gradient-75);}.cls-98{opacity:0.51;}.cls-99{fill:url(#linear-gradient-76);}.cls-100{opacity:0.43;}.cls-101{fill:url(#linear-gradient-77);}.cls-102{fill:url(#linear-gradient-78);}.cls-103{fill:url(#linear-gradient-79);}.cls-104{fill:url(#linear-gradient-80);}.cls-105{fill:url(#linear-gradient-81);}.cls-106{fill:url(#linear-gradient-82);}.cls-107{fill:url(#linear-gradient-83);}.cls-108{fill:url(#linear-gradient-84);}.cls-109{fill:url(#linear-gradient-85);}.cls-110{fill:url(#linear-gradient-86);}.cls-111{fill:url(#linear-gradient-87);}.cls-112{fill:url(#linear-gradient-88);}.cls-113{fill:url(#linear-gradient-89);}.cls-114{fill:url(#linear-gradient-90);}.cls-115{fill:url(#linear-gradient-91);}.cls-116{fill:url(#linear-gradient-92);}.cls-117{fill:url(#linear-gradient-93);}.cls-118{fill:url(#linear-gradient-94);}.cls-119{fill:url(#linear-gradient-95);}.cls-120{fill:url(#linear-gradient-96);}.cls-121{fill:url(#linear-gradient-97);}.cls-122{fill:url(#linear-gradient-98);}.cls-123{fill:url(#linear-gradient-99);}.cls-124{fill:url(#linear-gradient-100);}.cls-125{fill:url(#linear-gradient-101);}.cls-126{fill:url(#linear-gradient-102);}.cls-127{fill:url(#linear-gradient-103);}.cls-128{fill:url(#linear-gradient-104);}.cls-129{fill:url(#linear-gradient-105);}.cls-130{fill:url(#linear-gradient-106);}.cls-131{fill:url(#linear-gradient-107);}.cls-132{fill:url(#linear-gradient-108);}.cls-133{fill:url(#linear-gradient-109);}.cls-134{fill:url(#linear-gradient-110);}.cls-135{fill:url(#linear-gradient-111);}.cls-136{fill:url(#linear-gradient-112);}.cls-137{fill:url(#linear-gradient-113);}.cls-138{fill:url(#linear-gradient-114);}.cls-139{fill:url(#linear-gradient-115);}.cls-140{fill:url(#linear-gradient-116);}.cls-141{fill:url(#linear-gradient-117);}.cls-142{fill:url(#linear-gradient-118);}.cls-143{fill:url(#linear-gradient-119);}.cls-144{fill:url(#linear-gradient-120);}.cls-145{fill:url(#linear-gradient-121);}.cls-146{fill:url(#linear-gradient-122);}.cls-147{fill:url(#linear-gradient-123);}.cls-148{fill:url(#linear-gradient-124);}.cls-149{fill:url(#linear-gradient-125);}.cls-150{fill:url(#linear-gradient-126);}.cls-151{fill:url(#linear-gradient-127);}.cls-152{fill:url(#linear-gradient-128);}.cls-153{fill:url(#linear-gradient-129);}.cls-154{fill:url(#linear-gradient-130);}.cls-155{fill:url(#linear-gradient-131);}.cls-156{fill:url(#linear-gradient-132);}.cls-157{fill:url(#linear-gradient-133);}.cls-158{fill:url(#linear-gradient-134);}.cls-159{fill:url(#linear-gradient-135);}.cls-160{fill:url(#linear-gradient-136);}.cls-161{fill:url(#linear-gradient-137);}.cls-162{fill:url(#linear-gradient-138);}.cls-163{fill:url(#linear-gradient-139);}.cls-164{fill:url(#linear-gradient-140);}.cls-165{fill:url(#linear-gradient-141);}.cls-166{fill:url(#linear-gradient-142);}.cls-167{fill:url(#linear-gradient-143);}.cls-168{fill:url(#linear-gradient-144);}.cls-169{fill:url(#linear-gradient-145);}.cls-170{fill:url(#linear-gradient-146);}.cls-171{fill:url(#linear-gradient-147);}.cls-172{fill:url(#linear-gradient-148);}.cls-173{fill:url(#linear-gradient-149);}.cls-174{fill:url(#linear-gradient-150);}.cls-175{fill:url(#linear-gradient-151);}.cls-176{fill:url(#linear-gradient-152);}.cls-177{fill:url(#linear-gradient-153);}.cls-178{fill:url(#linear-gradient-154);}.cls-179{fill:url(#linear-gradient-155);}.cls-180{fill:url(#linear-gradient-156);}.cls-181{fill:url(#linear-gradient-157);}.cls-182{fill:url(#linear-gradient-158);}.cls-183{stroke:#2b3990;stroke-linecap:round;opacity:0.49;}</style><linearGradient id="linear-gradient" x1="412.46" y1="255.77" x2="670.76" y2="255.77" gradientUnits="userSpaceOnUse"><stop offset="0" stop-color="#2c2cdb"/><stop offset="1" stop-color="#2e2e89"/></linearGradient><linearGradient id="linear-gradient-2" x1="535.02" y1="150.06" x2="540.71" y2="386.79" gradientUnits="userSpaceOnUse"><stop offset="0" stop-color="#3171f9"/><stop offset="1" stop-color="#2e2e89"/></linearGradient><linearGradient id="linear-gradient-3" x1="576.42" y1="151.73" x2="464.26" y2="445.08" gradientUnits="userSpaceOnUse"><stop offset="0.01" stop-color="#fff" stop-opacity="0"/><stop offset="1" stop-color="#231f20"/></linearGradient><linearGradient id="linear-gradient-4" x1="385.19" y1="278.63" x2="631.72" y2="278.63" gradientUnits="userSpaceOnUse"><stop offset="0" stop-color="#4da1ff"/><stop offset="1" stop-color="#5f65ef"/></linearGradient><linearGradient id="linear-gradient-5" x1="511.19" y1="158.74" x2="500.83" y2="289.97" gradientUnits="userSpaceOnUse"><stop offset="0" stop-color="#94b1f4"/><stop offset="1" stop-color="#3565ef"/></linearGradient><linearGradient id="linear-gradient-6" x1="383.75" y1="203.88" x2="642.47" y2="350.06" xlink:href="#linear-gradient-2"/><linearGradient id="linear-gradient-7" x1="114.9" y1="317.03" x2="114.9" y2="159.21" gradientUnits="userSpaceOnUse"><stop offset="0" stop-color="#0378ff"/><stop offset="1" stop-color="#2e2e89" stop-opacity="0"/></linearGradient><linearGradient id="linear-gradient-8" x1="170.53" y1="254.45" x2="170.53" y2="96.63" xlink:href="#linear-gradient-7"/><linearGradient id="linear-gradient-9" x1="224.9" y1="207.03" x2="224.9" y2="49.21" xlink:href="#linear-gradient-7"/><linearGradient id="linear-gradient-10" x1="121.48" y1="315.01" x2="121.48" y2="232.46" xlink:href="#linear-gradient"/><linearGradient id="linear-gradient-11" x1="95.49" y1="207.84" x2="124.55" y2="239.33" gradientUnits="userSpaceOnUse"><stop offset="0" stop-color="#edf1fe"/><stop offset="1" stop-color="#6c95f4"/></linearGradient><linearGradient id="linear-gradient-12" x1="106.01" y1="182.98" x2="98.65" y2="358.72" gradientUnits="userSpaceOnUse"><stop offset="0" stop-color="#6b94f4"/><stop offset="1" stop-color="#3665ee"/></linearGradient><linearGradient id="linear-gradient-13" x1="176.71" y1="259.98" x2="176.71" y2="190" xlink:href="#linear-gradient"/><linearGradient id="linear-gradient-14" x1="156.38" y1="151.64" x2="185.44" y2="183.12" xlink:href="#linear-gradient-11"/><linearGradient id="linear-gradient-15" x1="160.53" y1="153.13" x2="153.17" y2="328.87" xlink:href="#linear-gradient-12"/><linearGradient id="linear-gradient-16" x1="230.91" y1="190.55" x2="226.19" y2="127.65" xlink:href="#linear-gradient"/><linearGradient id="linear-gradient-17" x1="218.35" y1="94.43" x2="247.41" y2="125.92" xlink:href="#linear-gradient-11"/><linearGradient id="linear-gradient-18" x1="215.46" y1="100.74" x2="208.09" y2="276.48" xlink:href="#linear-gradient-12"/><linearGradient id="linear-gradient-19" x1="670.97" y1="587.52" x2="670.97" y2="476.25" xlink:href="#linear-gradient-7"/><linearGradient id="linear-gradient-20" x1="148.31" y1="506.86" x2="290.37" y2="790.99" xlink:href="#linear-gradient-5"/><linearGradient id="linear-gradient-21" x1="93.85" y1="539.17" x2="235.91" y2="823.3" xlink:href="#linear-gradient-5"/><linearGradient id="linear-gradient-22" x1="204.87" y1="476.34" x2="346.93" y2="760.47" xlink:href="#linear-gradient-5"/><linearGradient id="linear-gradient-23" x1="260.53" y1="444.02" x2="402.59" y2="728.15" xlink:href="#linear-gradient-5"/><linearGradient id="linear-gradient-24" x1="314.4" y1="411.7" x2="456.46" y2="695.83" xlink:href="#linear-gradient-5"/><linearGradient id="linear-gradient-25" x1="369.16" y1="381.18" x2="511.23" y2="665.3" xlink:href="#linear-gradient-5"/><linearGradient id="linear-gradient-26" x1="425.93" y1="349.33" x2="567.99" y2="633.46" xlink:href="#linear-gradient-5"/><linearGradient id="linear-gradient-27" x1="405.94" y1="620.63" x2="418.17" y2="645.08" xlink:href="#linear-gradient-5"/><linearGradient id="linear-gradient-28" x1="461.36" y1="652.71" x2="473.59" y2="677.16" xlink:href="#linear-gradient-5"/><linearGradient id="linear-gradient-29" x1="296.56" y1="557.92" x2="308.79" y2="582.37" xlink:href="#linear-gradient-5"/><linearGradient id="linear-gradient-30" x1="351.98" y1="590" x2="364.21" y2="614.45" xlink:href="#linear-gradient-5"/><linearGradient id="linear-gradient-31" x1="186.7" y1="493.75" x2="198.92" y2="518.2" xlink:href="#linear-gradient-5"/><linearGradient id="linear-gradient-32" x1="242.12" y1="525.83" x2="254.34" y2="550.28" xlink:href="#linear-gradient-5"/><linearGradient id="linear-gradient-33" x1="223.13" y1="395.61" x2="212.05" y2="281.48" xlink:href="#linear-gradient"/><linearGradient id="White_Black" x1="341.81" y1="820.82" x2="319.28" y2="372.24" gradientUnits="userSpaceOnUse"><stop offset="0" stop-color="#fff"/><stop offset="1" stop-color="#231f20"/></linearGradient><linearGradient id="linear-gradient-34" x1="243.96" y1="623.2" x2="205.18" y2="410.93" gradientUnits="userSpaceOnUse"><stop offset="0" stop-color="#ffdfa9"/><stop offset="1" stop-color="#3565ef"/></linearGradient><linearGradient id="linear-gradient-35" x1="209.35" y1="445.03" x2="206.76" y2="551.08" gradientUnits="userSpaceOnUse"><stop offset="0" stop-color="#fff2d4"/><stop offset="1" stop-color="#3565ef"/></linearGradient><linearGradient id="linear-gradient-36" x1="224.23" y1="594.22" x2="248.2" y2="642.17" gradientUnits="userSpaceOnUse"><stop offset="0" stop-color="#2c2cdb"/><stop offset="0.45" stop-color="#57a0ff"/><stop offset="1" stop-color="#2e2e89"/></linearGradient><linearGradient id="linear-gradient-37" x1="208.93" y1="604.33" x2="265" y2="656.67" gradientUnits="userSpaceOnUse"><stop offset="0" stop-color="#2c2cdb"/><stop offset="0.45" stop-color="#57a0ff"/><stop offset="1" stop-color="#2e2e89"/></linearGradient><linearGradient id="linear-gradient-38" x1="221.28" y1="585.6" x2="296.47" y2="735.97" xlink:href="#linear-gradient-5"/><linearGradient id="linear-gradient-39" x1="154.48" y1="552.03" x2="277.14" y2="678.84" gradientUnits="userSpaceOnUse"><stop offset="0.01" stop-color="#fff"/><stop offset="1" stop-color="#231f20" stop-opacity="0"/></linearGradient><linearGradient id="linear-gradient-40" x1="188.97" y1="589.44" x2="287.08" y2="687.55" gradientUnits="userSpaceOnUse"><stop offset="0" stop-color="#dff1f9"/><stop offset="1" stop-color="#3565ef"/></linearGradient><linearGradient id="linear-gradient-41" x1="227.82" y1="635.9" x2="262.42" y2="615.92" gradientUnits="userSpaceOnUse"><stop offset="0" stop-color="#cde2f4"/><stop offset="1" stop-color="#3565ef"/></linearGradient><linearGradient id="linear-gradient-42" x1="456.16" y1="281.68" x2="441.75" y2="355.92" xlink:href="#linear-gradient"/><linearGradient id="White_Black-2" x1="472.1" y1="237.16" x2="435.26" y2="383.7" xlink:href="#White_Black"/><linearGradient id="linear-gradient-43" x1="492.49" y1="593.66" x2="427.77" y2="467.45" xlink:href="#linear-gradient-34"/><linearGradient id="linear-gradient-44" x1="474.77" y1="583.79" x2="413.54" y2="421.26" gradientUnits="userSpaceOnUse"><stop offset="0" stop-color="#fff" stop-opacity="0"/><stop offset="1" stop-color="#231f20"/></linearGradient><linearGradient id="linear-gradient-45" x1="446.39" y1="421.47" x2="460.62" y2="575.37" xlink:href="#linear-gradient-35"/><linearGradient id="linear-gradient-46" x1="162.4" y1="465.16" x2="241.72" y2="406.53" xlink:href="#linear-gradient-5"/><linearGradient id="linear-gradient-47" x1="599.64" y1="280.23" x2="636.44" y2="382" xlink:href="#linear-gradient-37"/><linearGradient id="linear-gradient-48" x1="573.91" y1="327.49" x2="651.13" y2="327.49" xlink:href="#linear-gradient-11"/><linearGradient id="linear-gradient-49" x1="573.91" y1="327.49" x2="651.13" y2="327.49" xlink:href="#linear-gradient-3"/><linearGradient id="linear-gradient-50" x1="594.57" y1="586.53" x2="747.38" y2="586.53" gradientUnits="userSpaceOnUse"><stop offset="0" stop-color="#7cacf4"/><stop offset="1" stop-color="#3665ee"/></linearGradient><linearGradient id="linear-gradient-51" x1="482.95" y1="640.32" x2="577.45" y2="640.32" xlink:href="#linear-gradient-12"/><linearGradient id="linear-gradient-52" x1="303.06" y1="488.9" x2="301.91" y2="536.2" xlink:href="#linear-gradient"/><linearGradient id="linear-gradient-53" x1="131.36" y1="504.12" x2="207.07" y2="428.41" gradientUnits="userSpaceOnUse"><stop offset="0" stop-color="#f3ffff"/><stop offset="1" stop-color="#3565ef"/></linearGradient><linearGradient id="linear-gradient-54" x1="313.47" y1="174.68" x2="304.64" y2="286.42" xlink:href="#linear-gradient-5"/><linearGradient id="linear-gradient-55" x1="313.47" y1="174.68" x2="304.64" y2="286.42" gradientUnits="userSpaceOnUse"><stop offset="0.01" stop-color="#fff"/><stop offset="1" stop-color="#231f20"/></linearGradient><linearGradient id="linear-gradient-56" x1="283.97" y1="174.44" x2="338.62" y2="229.09" gradientUnits="userSpaceOnUse"><stop offset="0.01" stop-color="#eef2ff"/><stop offset="1" stop-color="#437df8"/></linearGradient><linearGradient id="linear-gradient-57" x1="325.22" y1="204.54" x2="308.94" y2="190.43" xlink:href="#linear-gradient"/><linearGradient id="linear-gradient-58" x1="311.3" y1="231.95" x2="311.3" y2="168.9" gradientUnits="userSpaceOnUse"><stop offset="0" stop-color="#d3e1fd"/><stop offset="0.13" stop-color="#aab4e1"/><stop offset="0.26" stop-color="#848bc8"/><stop offset="0.4" stop-color="#656ab3"/><stop offset="0.54" stop-color="#4d4fa3"/><stop offset="0.69" stop-color="#3c3d97"/><stop offset="0.84" stop-color="#313290"/><stop offset="1" stop-color="#2e2e8e"/></linearGradient><linearGradient id="linear-gradient-59" x1="282.21" y1="190.48" x2="340.23" y2="190.48" xlink:href="#linear-gradient"/><linearGradient id="linear-gradient-60" x1="196.09" y1="257.73" x2="189.94" y2="335.63" xlink:href="#linear-gradient-5"/><linearGradient id="linear-gradient-61" x1="174.97" y1="257.03" x2="214.23" y2="296.29" xlink:href="#linear-gradient-56"/><linearGradient id="linear-gradient-62" x1="203.88" y1="278.22" x2="192.13" y2="268.03" xlink:href="#linear-gradient"/><linearGradient id="linear-gradient-63" x1="194.57" y1="297.59" x2="194.57" y2="253.75" xlink:href="#linear-gradient-58"/><linearGradient id="linear-gradient-64" x1="172.23" y1="268.77" x2="216.79" y2="268.77" xlink:href="#linear-gradient"/><linearGradient id="linear-gradient-65" x1="115.76" y1="530.65" x2="307.03" y2="320.58" xlink:href="#linear-gradient-55"/><linearGradient id="linear-gradient-66" x1="299.54" y1="464.7" x2="321.7" y2="377.17" xlink:href="#linear-gradient"/><linearGradient id="linear-gradient-67" x1="424.76" y1="217.23" x2="380.85" y2="406.39" xlink:href="#linear-gradient-11"/><linearGradient id="linear-gradient-68" x1="424.76" y1="217.23" x2="380.85" y2="406.39" xlink:href="#linear-gradient-3"/><linearGradient id="linear-gradient-69" x1="493.75" y1="294.41" x2="497.08" y2="236.79" xlink:href="#linear-gradient"/><linearGradient id="linear-gradient-70" x1="438.33" y1="281.74" x2="493.59" y2="337" gradientUnits="userSpaceOnUse"><stop offset="0" stop-color="#fcffff"/><stop offset="1" stop-color="#6c95f4"/></linearGradient><linearGradient id="linear-gradient-71" x1="324.88" y1="222.69" x2="385.23" y2="283.04" xlink:href="#linear-gradient-70"/><linearGradient id="linear-gradient-72" x1="199.59" y1="408.44" x2="292.52" y2="311.65" xlink:href="#linear-gradient-11"/><linearGradient id="linear-gradient-73" x1="199.59" y1="408.44" x2="292.52" y2="311.65" xlink:href="#linear-gradient-55"/><linearGradient id="linear-gradient-74" x1="244.13" y1="336.1" x2="204.9" y2="436.67" gradientUnits="userSpaceOnUse"><stop offset="0.01" stop-color="#eef2ff"/><stop offset="1" stop-color="#6ccef4" stop-opacity="0"/></linearGradient><linearGradient id="linear-gradient-75" x1="441.37" y1="423.3" x2="619.36" y2="555.98" xlink:href="#linear-gradient-5"/><linearGradient id="linear-gradient-76" x1="329.45" y1="364.81" x2="695.45" y2="571.6" xlink:href="#linear-gradient-44"/><linearGradient id="linear-gradient-77" x1="408.78" y1="370.35" x2="528.85" y2="594.69" gradientUnits="userSpaceOnUse"><stop offset="0.01" stop-color="#fff"/><stop offset="1" stop-color="#231f20" stop-opacity="0.86"/></linearGradient><linearGradient id="linear-gradient-78" x1="356.85" y1="507.83" x2="401.37" y2="482.13" gradientUnits="userSpaceOnUse"><stop offset="0" stop-color="#e1e9f4"/><stop offset="1" stop-color="#3565ef"/></linearGradient><linearGradient id="linear-gradient-79" x1="484.18" y1="504.68" x2="484.68" y2="504.68" xlink:href="#linear-gradient-11"/><linearGradient id="linear-gradient-80" x1="390.59" y1="457.12" x2="610.05" y2="457.12" gradientUnits="userSpaceOnUse"><stop offset="0" stop-color="#3171f9"/><stop offset="1" stop-color="#372ea5"/></linearGradient><linearGradient id="linear-gradient-81" x1="457.22" y1="315.71" x2="594.09" y2="417.91" xlink:href="#linear-gradient"/><linearGradient id="linear-gradient-82" x1="441.93" y1="336.19" x2="578.8" y2="438.39" xlink:href="#linear-gradient"/><linearGradient id="linear-gradient-83" x1="432.9" y1="348.27" x2="569.77" y2="450.48" xlink:href="#linear-gradient"/><linearGradient id="linear-gradient-84" x1="423.9" y1="360.33" x2="560.76" y2="462.54" xlink:href="#linear-gradient"/><linearGradient id="linear-gradient-85" x1="452.17" y1="322.47" x2="589.04" y2="424.68" xlink:href="#linear-gradient"/><linearGradient id="linear-gradient-86" x1="442.97" y1="334.79" x2="579.84" y2="437" xlink:href="#linear-gradient"/><linearGradient id="linear-gradient-87" x1="444.09" y1="333.29" x2="580.96" y2="435.5" xlink:href="#linear-gradient"/><linearGradient id="linear-gradient-88" x1="432.97" y1="348.18" x2="569.84" y2="450.39" xlink:href="#linear-gradient"/><linearGradient id="linear-gradient-89" x1="424.06" y1="360.12" x2="560.93" y2="462.32" xlink:href="#linear-gradient"/><linearGradient id="linear-gradient-90" x1="415.43" y1="371.67" x2="552.3" y2="473.87" xlink:href="#linear-gradient"/><linearGradient id="linear-gradient-91" x1="406.52" y1="383.6" x2="543.39" y2="485.8" xlink:href="#linear-gradient"/><linearGradient id="linear-gradient-92" x1="397.61" y1="395.53" x2="534.48" y2="497.74" xlink:href="#linear-gradient"/><linearGradient id="linear-gradient-93" x1="388.7" y1="407.47" x2="525.56" y2="509.68" xlink:href="#linear-gradient"/><linearGradient id="linear-gradient-94" x1="396.55" y1="396.96" x2="533.41" y2="499.17" xlink:href="#linear-gradient"/><linearGradient id="linear-gradient-95" x1="379.78" y1="419.41" x2="516.65" y2="521.61" xlink:href="#linear-gradient"/><linearGradient id="linear-gradient-96" x1="370.87" y1="431.34" x2="507.74" y2="533.54" xlink:href="#linear-gradient"/><linearGradient id="linear-gradient-97" x1="369.94" y1="432.59" x2="506.8" y2="534.8" xlink:href="#linear-gradient"/><linearGradient id="linear-gradient-98" x1="360.83" y1="444.79" x2="497.7" y2="546.99" xlink:href="#linear-gradient"/><linearGradient id="linear-gradient-99" x1="351.72" y1="456.98" x2="488.59" y2="559.19" xlink:href="#linear-gradient"/><linearGradient id="linear-gradient-100" x1="434.06" y1="346.73" x2="570.92" y2="448.93" xlink:href="#linear-gradient"/><linearGradient id="linear-gradient-101" x1="448.02" y1="328.03" x2="584.89" y2="430.23" xlink:href="#linear-gradient"/><linearGradient id="linear-gradient-102" x1="439.11" y1="339.96" x2="575.98" y2="442.17" xlink:href="#linear-gradient"/><linearGradient id="linear-gradient-103" x1="430.2" y1="351.9" x2="567.06" y2="454.1" xlink:href="#linear-gradient"/><linearGradient id="linear-gradient-104" x1="416.23" y1="370.6" x2="553.1" y2="472.8" xlink:href="#linear-gradient"/><linearGradient id="linear-gradient-105" x1="359.96" y1="445.96" x2="496.82" y2="548.16" xlink:href="#linear-gradient"/><linearGradient id="linear-gradient-106" x1="425.14" y1="358.66" x2="562.01" y2="460.87" xlink:href="#linear-gradient"/><linearGradient id="linear-gradient-107" x1="421.28" y1="363.83" x2="558.15" y2="466.04" xlink:href="#linear-gradient"/><linearGradient id="linear-gradient-108" x1="412.08" y1="376.15" x2="548.95" y2="478.36" xlink:href="#linear-gradient"/><linearGradient id="linear-gradient-109" x1="407.03" y1="382.92" x2="543.9" y2="485.12" xlink:href="#linear-gradient"/><linearGradient id="linear-gradient-110" x1="403.17" y1="388.09" x2="540.04" y2="490.29" xlink:href="#linear-gradient"/><linearGradient id="linear-gradient-111" x1="398.12" y1="394.85" x2="534.99" y2="497.06" xlink:href="#linear-gradient"/><linearGradient id="linear-gradient-112" x1="394.26" y1="400.02" x2="531.13" y2="502.23" xlink:href="#linear-gradient"/><linearGradient id="linear-gradient-113" x1="389.21" y1="406.79" x2="526.07" y2="508.99" xlink:href="#linear-gradient"/><linearGradient id="linear-gradient-114" x1="385.06" y1="412.34" x2="521.93" y2="514.55" xlink:href="#linear-gradient"/><linearGradient id="linear-gradient-115" x1="380.01" y1="419.11" x2="516.87" y2="521.31" xlink:href="#linear-gradient"/><linearGradient id="linear-gradient-116" x1="376.15" y1="424.28" x2="513.01" y2="526.48" xlink:href="#linear-gradient"/><linearGradient id="linear-gradient-117" x1="371.09" y1="431.04" x2="507.96" y2="533.25" xlink:href="#linear-gradient"/><linearGradient id="linear-gradient-118" x1="367.23" y1="436.21" x2="504.1" y2="538.42" xlink:href="#linear-gradient"/><linearGradient id="linear-gradient-119" x1="362.18" y1="442.98" x2="499.05" y2="545.18" xlink:href="#linear-gradient"/><linearGradient id="linear-gradient-120" x1="525.31" y1="358.77" x2="622.14" y2="441.44" xlink:href="#linear-gradient-50"/><linearGradient id="linear-gradient-121" x1="511.33" y1="375.14" x2="608.17" y2="457.8" xlink:href="#linear-gradient-50"/><linearGradient id="linear-gradient-122" x1="501.29" y1="386.91" x2="598.12" y2="469.57" xlink:href="#linear-gradient-50"/><linearGradient id="linear-gradient-123" x1="491.26" y1="398.66" x2="588.09" y2="481.32" xlink:href="#linear-gradient-50"/><linearGradient id="linear-gradient-124" x1="520.69" y1="364.18" x2="617.52" y2="446.84" xlink:href="#linear-gradient-50"/><linearGradient id="linear-gradient-125" x1="510.45" y1="376.18" x2="607.28" y2="458.84" xlink:href="#linear-gradient-50"/><linearGradient id="linear-gradient-126" x1="512.72" y1="373.51" x2="609.55" y2="456.18" xlink:href="#linear-gradient-50"/><linearGradient id="linear-gradient-127" x1="500.35" y1="388.01" x2="597.18" y2="470.67" xlink:href="#linear-gradient-50"/><linearGradient id="linear-gradient-128" x1="490.42" y1="399.64" x2="587.26" y2="482.3" xlink:href="#linear-gradient-50"/><linearGradient id="linear-gradient-129" x1="480.82" y1="410.88" x2="577.65" y2="493.55" xlink:href="#linear-gradient-50"/><linearGradient id="linear-gradient-130" x1="470.9" y1="422.5" x2="567.74" y2="505.16" xlink:href="#linear-gradient-50"/><linearGradient id="linear-gradient-131" x1="460.98" y1="434.13" x2="557.81" y2="516.79" xlink:href="#linear-gradient-50"/><linearGradient id="linear-gradient-132" x1="451.06" y1="445.75" x2="547.89" y2="528.41" xlink:href="#linear-gradient-50"/><linearGradient id="linear-gradient-133" x1="460.81" y1="434.32" x2="557.65" y2="516.98" xlink:href="#linear-gradient-50"/><linearGradient id="linear-gradient-134" x1="441.14" y1="457.37" x2="537.97" y2="540.03" xlink:href="#linear-gradient-50"/><linearGradient id="linear-gradient-135" x1="431.22" y1="468.99" x2="528.05" y2="551.65" xlink:href="#linear-gradient-50"/><linearGradient id="linear-gradient-136" x1="431.19" y1="469.02" x2="528.03" y2="551.68" xlink:href="#linear-gradient-50"/><linearGradient id="linear-gradient-137" x1="421.06" y1="480.89" x2="517.89" y2="563.56" xlink:href="#linear-gradient-50"/><linearGradient id="linear-gradient-138" x1="410.92" y1="492.77" x2="507.75" y2="575.43" xlink:href="#linear-gradient-50"/><linearGradient id="linear-gradient-139" x1="500.53" y1="387.8" x2="597.36" y2="470.46" xlink:href="#linear-gradient-50"/><linearGradient id="linear-gradient-140" x1="515.06" y1="370.77" x2="611.9" y2="453.43" xlink:href="#linear-gradient-50"/><linearGradient id="linear-gradient-141" x1="505.14" y1="382.4" x2="601.97" y2="465.06" xlink:href="#linear-gradient-50"/><linearGradient id="linear-gradient-142" x1="495.23" y1="394.02" x2="592.06" y2="476.69" xlink:href="#linear-gradient-50"/><linearGradient id="linear-gradient-143" x1="480.68" y1="411.05" x2="577.52" y2="493.71" xlink:href="#linear-gradient-50"/><linearGradient id="linear-gradient-144" x1="419.07" y1="483.23" x2="515.9" y2="565.89" xlink:href="#linear-gradient-50"/><linearGradient id="linear-gradient-145" x1="490.61" y1="399.42" x2="587.44" y2="482.08" xlink:href="#linear-gradient-50"/><linearGradient id="linear-gradient-146" x1="485.3" y1="405.64" x2="582.13" y2="488.3" xlink:href="#linear-gradient-50"/><linearGradient id="linear-gradient-147" x1="475.06" y1="417.64" x2="571.89" y2="500.3" xlink:href="#linear-gradient-50"/><linearGradient id="linear-gradient-148" x1="470.44" y1="423.04" x2="567.27" y2="505.7" xlink:href="#linear-gradient-50"/><linearGradient id="linear-gradient-149" x1="465.14" y1="429.26" x2="561.97" y2="511.92" xlink:href="#linear-gradient-50"/><linearGradient id="linear-gradient-150" x1="460.52" y1="434.66" x2="557.35" y2="517.32" xlink:href="#linear-gradient-50"/><linearGradient id="linear-gradient-151" x1="455.22" y1="440.88" x2="552.05" y2="523.54" xlink:href="#linear-gradient-50"/><linearGradient id="linear-gradient-152" x1="450.6" y1="446.29" x2="547.43" y2="528.95" xlink:href="#linear-gradient-50"/><linearGradient id="linear-gradient-153" x1="444.97" y1="452.88" x2="541.81" y2="535.54" xlink:href="#linear-gradient-50"/><linearGradient id="linear-gradient-154" x1="440.36" y1="458.28" x2="537.19" y2="540.95" xlink:href="#linear-gradient-50"/><linearGradient id="linear-gradient-155" x1="435.05" y1="464.5" x2="531.89" y2="547.16" xlink:href="#linear-gradient-50"/><linearGradient id="linear-gradient-156" x1="430.44" y1="469.9" x2="527.27" y2="552.57" xlink:href="#linear-gradient-50"/><linearGradient id="linear-gradient-157" x1="425.13" y1="476.12" x2="521.96" y2="558.78" xlink:href="#linear-gradient-50"/><linearGradient id="linear-gradient-158" x1="420.52" y1="481.53" x2="517.35" y2="564.19" xlink:href="#linear-gradient-50"/></defs><g class="cls-1"><g id="Layer_10" data-name="Layer 10"><path class="cls-2" d="M412.46,88.73l.54,196,251,141.83a4.11,4.11,0,0,0,6.17-3.52l.54-191.69a9,9,0,0,0-4.56-7.86L418.86,85A4.27,4.27,0,0,0,412.46,88.73Z"/><path class="cls-3" d="M413.62,95.64l.54,182.54L654.39,417.31a4.07,4.07,0,0,0,6.1-3.51L661,235.51a8.94,8.94,0,0,0-4.49-7.79L420,92A4.23,4.23,0,0,0,413.62,95.64Z"/><g class="cls-4"><path class="cls-5" d="M413.62,95.64l.54,182.54L654.39,417.31a4.07,4.07,0,0,0,6.1-3.51L661,235.51a8.94,8.94,0,0,0-4.49-7.79L420,92A4.23,4.23,0,0,0,413.62,95.64Z"/></g><path class="cls-6" d="M631.72,255.6V443.44L385.19,299.92V119.42a5.58,5.58,0,0,1,8.38-4.83L628.93,250.77A5.55,5.55,0,0,1,631.72,255.6Z"/><path class="cls-7" d="M631.72,255.6v12L385.19,125.76v-6.34a5.58,5.58,0,0,1,8.38-4.83L628.93,250.77A5.55,5.55,0,0,1,631.72,255.6Z"/><path class="cls-8" d="M546.64,287.41l-125-71.34a6.09,6.09,0,0,0-9.11,5.29v3.3a6.1,6.1,0,0,0,3.06,5.28l125,71.79a6.09,6.09,0,0,0,9.12-5.23c0-1.37,0-2.68,0-3.82A6.1,6.1,0,0,0,546.64,287.41Z"/></g><g id="Layer_6" data-name="Layer 6"><polygon class="cls-9" points="94.35 337.08 134.75 317.57 136.15 110.69 93.66 110 94.35 337.08"/><polygon class="cls-10" points="149.98 274.5 190.38 254.99 191.78 48.11 149.29 47.41 149.98 274.5"/><polygon class="cls-11" points="204.35 227.08 244.75 207.58 246.14 0.7 203.65 0 204.35 227.08"/><polygon class="cls-12" points="108.3 303.64 107.75 240.8 135.21 224.95 135.02 350.98 108.13 366.94 108.3 303.64"/><polygon class="cls-13" points="107.75 240.8 94.12 232.28 121.76 216.97 135.21 224.95 107.75 240.8"/><polygon class="cls-14" points="94.12 232.28 94.31 359.61 108.13 366.94 107.75 240.8 94.12 232.28"/><polygon class="cls-15" points="163.53 272.27 162.98 178.47 190.44 162.62 190.25 319.61 163.36 335.56 163.53 272.27"/><polygon class="cls-16" points="162.98 178.47 149.35 169.95 176.99 154.64 190.44 162.62 162.98 178.47"/><polygon class="cls-17" points="149.35 169.95 149.54 328.24 163.36 335.56 162.98 178.47 149.35 169.95"/><polygon class="cls-18" points="218.29 240.24 217.75 113.45 245.2 97.6 245.01 287.59 218.12 303.54 218.29 240.24"/><polygon class="cls-19" points="217.75 113.45 204.12 104.93 231.75 89.62 245.2 97.6 217.75 113.45"/><polygon class="cls-20" points="204.12 104.93 204.3 296.21 218.12 303.54 217.75 113.45 204.12 104.93"/><line class="cls-21" x1="452.32" y1="103.78" x2="452.29" y2="97.78"/><line class="cls-22" x1="452.23" y1="84.41" x2="452.13" y2="64.36"/><polyline class="cls-21" points="452.1 57.67 452.07 51.67 457.27 54.66"/><line class="cls-23" x1="467.56" y1="60.58" x2="688.78" y2="187.72"/><polyline class="cls-21" points="693.93 190.68 699.13 193.67 699.13 199.67"/><line class="cls-24" x1="699.15" y1="211.57" x2="699.3" y2="372.23"/><polyline class="cls-21" points="699.31 378.18 699.31 384.18 694.12 381.18"/><line class="cls-25" x1="687.76" y1="377.51" x2="678.22" y2="372"/><line class="cls-21" x1="675.04" y1="370.17" x2="669.84" y2="367.17"/><line class="cls-26" x1="190.86" y1="264.35" x2="414.22" y2="135.84"/><polyline class="cls-27" points="594.57 581.88 594.57 442.7 747.38 441.56 747.38 601.65 721.17 598.8 712.06 570.88 672.75 558.35 640.84 562.34 618.62 578.86 594.57 581.88 594.57 581.88"/><line class="cls-28" x1="54.71" y1="553.97" x2="383.97" y2="743.88"/><line class="cls-29" x1="0.25" y1="586.28" x2="329.52" y2="776.19"/><line class="cls-30" x1="111.27" y1="523.45" x2="440.53" y2="713.36"/><line class="cls-31" x1="166.93" y1="491.13" x2="496.2" y2="681.04"/><line class="cls-32" x1="220.8" y1="458.81" x2="550.06" y2="648.72"/><line class="cls-33" x1="275.56" y1="428.28" x2="604.83" y2="618.2"/><line class="cls-34" x1="332.33" y1="396.44" x2="661.59" y2="586.35"/><line class="cls-35" x1="220.59" y1="743.31" x2="603.52" y2="522.4"/><line class="cls-36" x1="276.01" y1="775.39" x2="658.94" y2="554.48"/><line class="cls-37" x1="111.21" y1="680.6" x2="494.14" y2="459.69"/><line class="cls-38" x1="166.63" y1="712.68" x2="549.56" y2="491.77"/><line class="cls-39" x1="1.34" y1="616.43" x2="384.28" y2="395.52"/><line class="cls-40" x1="56.76" y1="648.51" x2="439.7" y2="427.6"/><polygon class="cls-41" points="110.01 523.07 330.01 396.01 550.01 523.07 330.01 648.96 110.01 523.07"/><polygon class="cls-42" points="330.2 205.79 110.21 331.93 110.01 523.07 330.01 396.01 330.2 205.79"/><g class="cls-43"><polygon class="cls-44" points="110.01 585.81 330.01 458.75 550.01 585.81 330.01 711.69 110.01 585.81"/></g><polygon class="cls-45" points="330.01 648.96 230.36 591.94 186.43 566.8 110.01 523.07 110.21 331.93 186.43 376.09 230.36 401.54 329.63 459.05 330.01 648.96"/><polygon class="cls-46" points="230.36 401.54 230.36 591.94 186.43 566.8 186.43 376.09 230.36 401.54"/><path class="cls-47" d="M262.15,653.24c-4.24,3-10.39,2.89-17.23-1.06-12.73-7.35-23-25.15-23-39.78,0-13.45,8.79-19.51,20.1-14.68-4,2.44-6.52,7.52-6.54,14.68,0,14.63,10.23,32.43,23,39.78A6.12,6.12,0,0,0,262.15,653.24Z"/><path class="cls-48" d="M302.73,654.67c-.09,31.63-24.69,53.14-38.38,61.64a31,31,0,0,1-11.42,4.25l-8,1.29c4.65-2.41,46-25.11,46.14-66.46.12-43.81-28.72-72-46.15-82.11-9-5.21-21.32-9.08-31-5.14,22-9.8,39.8-3.6,53.43,7.22C286.42,590.42,302.83,621.53,302.73,654.67Z"/><path class="cls-49" d="M245,573.28c-9-5.21-21.32-9.08-31-5.14-.25.09-.49.21-.75.33-4.12,1.89-7.71,5.28-10.27,10.72s-4.09,12.9-4.12,22.94c-.13,41.34,40.68,111.47,45.27,119.24a1.06,1.06,0,0,0,.42.42.47.47,0,0,0,.42.06c4.65-2.41,46-25.11,46.14-66.46C291.24,611.58,262.4,583.34,245,573.28Zm17.18,80c-4.24,3-10.39,2.89-17.23-1.06-12.73-7.35-23-25.15-23-39.78,0-13.45,8.79-19.51,20.1-14.68a27.3,27.3,0,0,1,3,1.51c12.73,7.35,23,25.14,23,39.77C268,645.77,265.79,650.67,262.15,653.24Z"/><g class="cls-50"><path class="cls-51" d="M245,573.28c-9-5.21-21.32-9.08-31-5.14-.25.09-.49.21-.75.33-4.12,1.89-7.71,5.28-10.27,10.72s-4.09,12.9-4.12,22.94c-.13,41.34,40.68,111.47,45.27,119.24a1.06,1.06,0,0,0,.42.42.47.47,0,0,0,.42.06c4.65-2.41,46-25.11,46.14-66.46C291.24,611.58,262.4,583.34,245,573.28Zm17.18,80c-4.24,3-10.39,2.89-17.23-1.06-12.73-7.35-23-25.15-23-39.78,0-13.45,8.79-19.51,20.1-14.68a27.3,27.3,0,0,1,3,1.51c12.73,7.35,23,25.14,23,39.77C268,645.77,265.79,650.67,262.15,653.24Z"/></g><path class="cls-52" d="M268.68,704.3a86.88,86.88,0,0,0,13.42-17.56,72.07,72.07,0,0,0,4.65-10,63.4,63.4,0,0,0,2.84-10.63l.41-2.72c.12-.91.17-1.83.26-2.74l.13-1.37,0-1.37c0-.92.07-1.83.06-2.75l-.25-5.51c-.06-.92,0-1.84-.17-2.75l-.35-2.74-.34-2.73a23,23,0,0,0-.44-2.72l-1.14-5.38c-.4-1.79-1-3.53-1.5-5.3-.27-.87-.49-1.77-.8-2.63l-1-2.57a91.9,91.9,0,0,0-10-19.52,101.1,101.1,0,0,0-14.07-16.82,82.83,82.83,0,0,0-17.49-13.1,53.43,53.43,0,0,0-10-4.15,35,35,0,0,0-10.61-1.56,22.87,22.87,0,0,0-5.23.69,20.38,20.38,0,0,0-2.51.81,19.22,19.22,0,0,0-2.33,1.13,20.17,20.17,0,0,0-7.2,7.47,35.07,35.07,0,0,0-3.68,10.06,66.34,66.34,0,0,0-1.3,10.82c-.08,1.83-.1,3.66,0,5.48s.19,3.64.32,5.46c.39,3.64.92,7.27,1.67,10.86a183.52,183.52,0,0,0,5.79,21.29,382.1,382.1,0,0,0,16.7,41q4.74,10,9.88,19.86,2.56,4.9,5.2,9.79l2.68,4.86,1.36,2.42.69,1.2.17.3a.7.7,0,0,0,.15.19.48.48,0,0,0,.17.12l.05,0,0,0a99.33,99.33,0,0,0,12.51-7.8q3-2.16,5.84-4.52c1.9-1.56,3.72-3.23,5.52-4.91-1.75,1.74-3.52,3.45-5.38,5.07s-3.76,3.21-5.73,4.7a101.08,101.08,0,0,1-12.42,8.11h0a.78.78,0,0,1-.62,0,1.38,1.38,0,0,1-.4-.26,1.79,1.79,0,0,1-.28-.35l-.18-.3-.72-1.19-1.41-2.39-2.79-4.81c-1.83-3.22-3.66-6.45-5.41-9.71q-5.28-9.78-10.17-19.77c-3.24-6.67-6.34-13.41-9.25-20.23s-5.62-13.75-8-20.79a186.46,186.46,0,0,1-5.95-21.51,111.31,111.31,0,0,1-1.75-11.07c-.14-1.87-.34-3.73-.36-5.61s-.06-3.75,0-5.63a67.48,67.48,0,0,1,1.31-11.2A37.16,37.16,0,0,1,203,576.63a21.84,21.84,0,0,1,8-8.32,19.16,19.16,0,0,1,2.66-1.28,22.29,22.29,0,0,1,2.77-.88,23.91,23.91,0,0,1,5.75-.73,37.13,37.13,0,0,1,11.27,1.69A55.56,55.56,0,0,1,244,571.48,84.86,84.86,0,0,1,261.85,585a97.4,97.4,0,0,1,24.25,37.25l1,2.63c.3.88.52,1.79.78,2.69.48,1.8,1.07,3.58,1.45,5.4l1.09,5.49a23.41,23.41,0,0,1,.41,2.77l.31,2.78.32,2.77c.12.93.08,1.86.13,2.79l.18,5.59a61.33,61.33,0,0,1-1.11,11.14A63.24,63.24,0,0,1,287.51,677a72,72,0,0,1-4.91,10A83.51,83.51,0,0,1,268.68,704.3Z"/><path class="cls-53" d="M249.72,602.45a44.05,44.05,0,0,1,7.38,7.13,56.46,56.46,0,0,1,5.82,8.52,46.8,46.8,0,0,1,6,19.78,23.21,23.21,0,0,1-1.62,10.46,14.46,14.46,0,0,1-3.06,4.56,12.33,12.33,0,0,1-4.76,2.89,13.64,13.64,0,0,1-5.48.61,20,20,0,0,1-5.28-1.2,33.32,33.32,0,0,1-9.14-5.34,48.9,48.9,0,0,1-7.28-7.53,52.92,52.92,0,0,1-5.66-8.77c-3.14-6.19-5.41-13-5.5-20A23.8,23.8,0,0,1,223,603.19a15.05,15.05,0,0,1,3.07-4.39,12.51,12.51,0,0,1,4.64-2.68,14.75,14.75,0,0,1,5.28-.43,19.69,19.69,0,0,1,5,1.31l1.2.49,1.14.61c.76.42,1.54.78,2.26,1.25a36.43,36.43,0,0,1,4.1,3.1,36.16,36.16,0,0,0-4.28-2.8c-.74-.42-1.53-.74-2.29-1.11L242,598l-1.19-.42a19.36,19.36,0,0,0-4.9-1,13.9,13.9,0,0,0-4.86.64,11.69,11.69,0,0,0-4.08,2.54,13.76,13.76,0,0,0-2.64,4,22.41,22.41,0,0,0-1.43,9.7,40.7,40.7,0,0,0,1.77,9.82,54.63,54.63,0,0,0,3.89,9.24,52.88,52.88,0,0,0,5.49,8.39,47,47,0,0,0,7,7.13,31.13,31.13,0,0,0,8.45,5,14.4,14.4,0,0,0,9.31.63,10.8,10.8,0,0,0,6.63-6.18,22.48,22.48,0,0,0,1.7-9.59,45.72,45.72,0,0,0-5.19-19.3A52.58,52.58,0,0,0,249.72,602.45Z"/><polygon class="cls-54" points="550.01 523.07 330.01 396.01 330.2 205.79 549.43 332.58 550.01 523.07"/><g class="cls-55"><polygon class="cls-56" points="550.01 523.07 330.01 396.01 330.2 205.79 549.43 332.58 550.01 523.07"/></g><polygon class="cls-57" points="550.01 523.07 477.02 564.84 427.37 593.25 330.01 648.96 329.63 459.05 427.37 402.81 475.22 375.28 549.43 332.58 550.01 523.07"/><g class="cls-58"><polygon class="cls-59" points="550.01 523.07 477.02 564.84 427.37 593.25 330.01 648.96 329.63 459.05 427.37 402.81 475.22 375.28 549.43 332.58 550.01 523.07"/></g><polygon class="cls-60" points="477.02 375.28 477.02 564.84 427.37 593.25 427.37 402.81 475.22 375.28 477.02 375.28"/><polygon class="cls-61" points="110.21 331.93 55.69 426.72 275.29 553.52 329.63 459.05 110.21 331.93"/><path class="cls-62" d="M616.5,282.15c21.33,12.31,38.55,42.15,38.48,66.65s-17.41,34.38-38.73,22.07-38.55-42.15-38.48-66.65S595.18,269.84,616.5,282.15Z"/><path class="cls-63" d="M612.65,283.13c21.32,12.31,38.55,42.15,38.48,66.65s-17.41,34.38-38.73,22.07-38.56-42.15-38.49-66.66S591.33,270.82,612.65,283.13Z"/><g class="cls-64"><path class="cls-65" d="M612.65,283.13c21.32,12.31,38.55,42.15,38.48,66.65s-17.41,34.38-38.73,22.07-38.56-42.15-38.49-66.66S591.33,270.82,612.65,283.13Z"/></g><path class="cls-41" d="M620.69,347l-1.46,5.65-20.85-12a2.13,2.13,0,0,1-1-1.66c0-.62.43-.86,1-.55l19.35,11.17,1-3.73Z"/><path class="cls-41" d="M601.36,342.61a6.86,6.86,0,0,1,3.13,5.42c0,2-1.42,2.8-3.15,1.8a6.93,6.93,0,0,1-3.13-5.43C598.22,342.41,599.63,341.61,601.36,342.61Zm0,5c.67.39,1.21.08,1.21-.69a2.63,2.63,0,0,0-1.2-2.08c-.66-.38-1.21-.07-1.21.69a2.67,2.67,0,0,0,1.2,2.08"/><path class="cls-41" d="M625,324.61l1.24.72-.32,1.26L620.69,347l-2-1.16-21-12.13-8.13-29.58,34.75,20.06ZM619.2,343.9l4.59-17.78L592.34,308,599,332.24,619.2,343.9"/><path class="cls-41" d="M634,317.45a2.11,2.11,0,0,1,.88,1.17c.22.68,0,1.21-.49,1.18l-6.54-.44L626,326.54a.43.43,0,0,1,0,0l.32-1.26-1.24-.72-.75-.43,1.9-7.37,7.39.51A.79.79,0,0,1,634,317.45Z"/><path class="cls-41" d="M614.91,350.43a6.92,6.92,0,0,1,3.13,5.42c0,2-1.42,2.8-3.15,1.8a6.89,6.89,0,0,1-3.13-5.43C611.76,350.23,613.17,349.43,614.91,350.43Zm0,5c.67.39,1.21.08,1.21-.69a2.64,2.64,0,0,0-1.2-2.08c-.66-.38-1.21-.07-1.21.69a2.67,2.67,0,0,0,1.2,2.08"/><path class="cls-66" d="M265.39,685.53"/><path class="cls-41" d="M617.78,599.45l-3.43,5.16a15.67,15.67,0,0,0-.62-3.39l-19.16-8.9V581.88l19.16,8.9C615.23,594,616.29,596.25,617.78,599.45Z"/><path class="cls-41" d="M733,560.38v10.44L727,579.74c-.94-2-1.8-3.83-2.87-6.12Z"/><path class="cls-41" d="M747.38,591.19v10.44c-2.91,6.38-3.22,7-6.14,13.43L717,617.23l-10.93,6.35-3.67,14-23.17,3.6-15.42-11.07-15-2.33L626,633l-17-9.83V612.69l17,9.84,22.84-5.14,15,2.32,15.42,11.07,23.17-3.6,3.67-14L717,606.8l24.21-2.17C744.16,598.24,744.47,597.57,747.38,591.19Z"/><path class="cls-41" d="M707.18,591.82c-1.58-3.71-4.89-7.23-9.91-10.13-14.62-8.43-38.24-8.44-52.76,0-4.93,2.86-8.17,6.33-9.74,10-3-7.09.21-14.89,9.74-20.43,14.52-8.43,38.14-8.43,52.76,0C706.92,576.83,710.23,584.69,707.18,591.82Z"/><path class="cls-67" d="M728.23,582.29l-1.2-2.55c-.94-2-1.8-3.83-2.87-6.12l8.8-13.24-17-9.83-22.83,5.13-15-2.32-15.42-11.07-23.18,3.6-3.66,14-10.92,6.34-24.22,2.18c-2.92,6.38-3.23,7-6.14,13.43l19.16,8.9c1.5,3.2,2.56,5.47,4,8.67l-3.43,5.16L609,612.69l17,9.84,22.84-5.14,15,2.32,15.42,11.07,23.17-3.6,3.67-14L717,606.8l24.21-2.17c2.92-6.39,3.23-7.06,6.14-13.44Zm-83.72-11c14.52-8.43,38.14-8.43,52.76,0,9.65,5.57,13,13.43,9.91,20.56-1.56,3.66-4.81,7.14-9.74,10-14.51,8.43-38.15,8.43-52.76,0-5-2.9-8.33-6.42-9.91-10.14C631.74,584.59,635,576.79,644.51,571.25Z"/><path class="cls-41" d="M497.31,648.31l-2.12,3.19c0-.58-.16.74-.39-.1L483,645.9v-8.46L494.8,643C495.73,644.92,496.39,646.33,497.31,648.31Z"/><path class="cls-41" d="M568.53,624.15v8.45l-3.66,5.52c-.59-1.25-1.12-4.37-1.78-5.79Z"/><path class="cls-41" d="M577.45,643.2v8.45c-1.8,4-2,4.36-3.8,8.31l-15,1.34-6.76,3.93-2.27,8.68-14.32,2.23-9.54-6.85-9.26-1.44L502.4,671,491.87,665v-8.46l10.53,6.09,14.13-3.18,9.26,1.43,9.54,6.85,14.32-2.23,2.27-8.68,6.76-3.92,15-1.34Z"/><path class="cls-41" d="M552.59,643.59a10.36,10.36,0,0,1-.5,1,14.82,14.82,0,0,0-5.63-5.27c-9-5.21-23.65-5.22-32.62,0a14.76,14.76,0,0,0-5.53,5.18,8.48,8.48,0,0,1-.5-1c-1.78-4.18-.05-8.75,5.22-12.14l.81-.49c.56-.33,1.14-.63,1.74-.92l.92-.41c.62-.27,1.26-.51,1.91-.74a34.37,34.37,0,0,1,6.35-1.48c.65-.09,1.3-.17,2-.22a40.75,40.75,0,0,1,6.72,0c.73.06,1.46.14,2.18.24a34.84,34.84,0,0,1,6.24,1.47c.65.23,1.3.47,1.92.74l.92.41c.61.29,1.2.59,1.76.92s1.1.67,1.6,1C552.78,635.24,554.29,639.6,552.59,643.59Z"/><path class="cls-68" d="M565.61,637.69c-.27-.56-.51-1.08-.75-1.57l-1.77-3.79,5.44-8.19L558,618.07l-14.11,3.17-9.27-1.44L525.08,613l-14.34,2.22-2.26,8.69-6.75,3.92-15,1.34c-1.8,4-2,4.36-3.8,8.31l11.85,5.5c.93,2,1.59,3.38,2.51,5.36l-2.12,3.19-3.32,5,10.53,6.09,14.13-3.18,9.26,1.43,9.53,6.85,14.33-2.23,2.27-8.68,6.76-3.92,15-1.34,3.8-8.31Zm-19,12.08c-9,5.21-23.6,5.21-32.63,0a14.82,14.82,0,0,1-5.63-5.27,8.48,8.48,0,0,1-.5-1c-1.78-4.18-.05-8.75,5.22-12.14l.81-.49c.56-.33,1.14-.63,1.74-.92l.92-.41c.62-.27,1.26-.52,1.91-.74a34.37,34.37,0,0,1,6.35-1.48c.64-.09,1.3-.17,2-.22a40.75,40.75,0,0,1,6.72,0c.73.06,1.46.14,2.18.24a34.84,34.84,0,0,1,6.24,1.47c.65.22,1.3.47,1.92.74l.92.41c.61.29,1.2.59,1.76.92s1.1.67,1.6,1c4.72,3.35,6.23,7.71,4.53,11.7a10.36,10.36,0,0,1-.5,1A14.8,14.8,0,0,1,546.57,649.77Z"/><polyline class="cls-69" points="329.63 459.05 275.29 553.52 329.88 463.37 329.63 459.05"/><path class="cls-70" d="M110.21,331.93,96.85,355.78,83.42,379.6l-27,47.54L56.11,426l55,31.59,54.86,31.78c18.29,10.57,36.52,21.27,54.75,31.95q13.69,8,27.33,16.06l27.27,16.16L247.67,538q-13.81-7.77-27.58-15.64Q192.55,506.67,165,490.89L110.1,459.27,55.26,427.46l-.74-.43.42-.74,27.53-47.24,13.84-23.58Z"/><path class="cls-71" d="M311.19,151.91c23.95-13.83,43.42-2.73,43.5,24.79s-19.27,61-43.22,74.86-43.42,2.73-43.5-24.79S287.24,165.73,311.19,151.91Z"/><g class="cls-72"><path class="cls-73" d="M311.19,151.91c23.95-13.83,43.42-2.73,43.5,24.79s-19.27,61-43.22,74.86-43.42,2.73-43.5-24.79S287.24,165.73,311.19,151.91Z"/></g><path class="cls-74" d="M342.54,218.48a101.16,101.16,0,0,1-10.8,16,83.41,83.41,0,0,1-13.88,13.46,53.56,53.56,0,0,1-17.19,9,32.92,32.92,0,0,1-9.73,1.3,25.43,25.43,0,0,1-4.91-.66c-.82-.16-1.6-.46-2.4-.7a24.33,24.33,0,0,1-2.29-1,22.35,22.35,0,0,1-7.65-6.31,29.84,29.84,0,0,1-4.55-8.78,51,51,0,0,1-1.85-19.43,82,82,0,0,1,4.08-19,100.35,100.35,0,0,1,7.9-17.76c6.48-11.21,14.77-21.56,25.3-29.28.66-.48,1.29-1,2-1.44l2.07-1.31,2.07-1.3,2.14-1.18a47,47,0,0,1,9.11-3.65,32.69,32.69,0,0,1,9.8-1.2,24.87,24.87,0,0,1,4.93.73c.81.17,1.59.48,2.38.73a24.74,24.74,0,0,1,2.28,1,22.2,22.2,0,0,1,7.55,6.39,30,30,0,0,1,4.43,8.78A50.3,50.3,0,0,1,355,182.13,81.1,81.1,0,0,1,350.68,201a100.35,100.35,0,0,1-8.14,17.49c6.08-11.3,10.47-23.66,11.43-36.43a49.44,49.44,0,0,0-1.87-18.85,28.83,28.83,0,0,0-4.34-8.32,21,21,0,0,0-7.13-5.87c-.68-.37-1.42-.61-2.13-.92s-1.47-.5-2.23-.65a23.78,23.78,0,0,0-4.61-.62,31.63,31.63,0,0,0-9.26,1.2,44.47,44.47,0,0,0-8.75,3.55l-2.08,1.15-2,1.28-2,1.28c-.67.43-1.28.95-1.92,1.41-10.23,7.57-18.33,17.78-24.64,28.8a98.72,98.72,0,0,0-7.84,17.39,80.78,80.78,0,0,0-4.07,18.58,49.11,49.11,0,0,0,1.69,18.75,28.78,28.78,0,0,0,4.22,8.3,20.86,20.86,0,0,0,7,6,19.22,19.22,0,0,0,4.35,1.64,23.11,23.11,0,0,0,4.61.68,31.13,31.13,0,0,0,9.34-1.11,52.85,52.85,0,0,0,16.95-8.53C327.65,239.62,336,229.5,342.54,218.48Z"/><polygon class="cls-75" points="333.56 165.14 339.96 169.16 302.95 231.22 282.63 215.79 289.64 204.81 303.58 215.4 333.56 165.14"/><path class="cls-76" d="M340,169.16q-4.44,7.86-9,15.67t-9.13,15.59c-3.08,5.18-6.11,10.38-9.23,15.53l-9.32,15.47-.24.38-.35-.27-10.07-7.83-10-7.91L293,223.3l10.24,7.6-.58.11,9.18-15.56c3-5.19,6.19-10.33,9.28-15.5s6.22-10.31,9.37-15.44S336.76,174.26,340,169.16Z"/><path class="cls-77" d="M282.63,215.79c2.24-3.73,4.52-7.42,6.79-11.12l.15-.24.22.17c4.69,3.49,9.39,6.94,14.06,10.45l-.64.13,7.45-12.6c2.47-4.2,5-8.36,7.52-12.54s5-8.37,7.57-12.52,5.08-8.33,7.67-12.46l.09-.14.13.08,6.32,4.16-6.49-3.88.23-.06c-2.41,4.25-4.88,8.45-7.32,12.67s-4.94,8.42-7.42,12.61-4.94,8.41-7.46,12.58L304,215.62l-.25.42-.39-.3c-4.63-3.54-9.22-7.15-13.84-10.73l.38-.06C287.45,208.56,285.07,212.19,282.63,215.79Z"/><path class="cls-78" d="M194.49,242c18.41-9.61,33.39-1.9,33.45,17.23s-14.82,42.42-33.24,52-33.38,1.9-33.44-17.23S176.08,251.57,194.49,242Z"/><path class="cls-79" d="M218.59,288.23a70.22,70.22,0,0,1-8.38,11.19,62.42,62.42,0,0,1-10.55,9.25A43.54,43.54,0,0,1,187,314.78a23.49,23.49,0,0,1-14.08,0,17.37,17.37,0,0,1-3.26-1.55,17.11,17.11,0,0,1-2.86-2.22,18.82,18.82,0,0,1-4.06-5.93,30,30,0,0,1-2-14,50.85,50.85,0,0,1,3.07-13.79,65.89,65.89,0,0,1,6.2-12.68,68.1,68.1,0,0,1,19.38-20.3c.49-.33,1-.67,1.47-1l1.54-.88c1-.6,2.05-1.18,3.12-1.68a38.83,38.83,0,0,1,6.65-2.5,23.34,23.34,0,0,1,14.13.18,16.49,16.49,0,0,1,6.05,3.84,18.71,18.71,0,0,1,4,5.94,30,30,0,0,1,1.87,13.93c-.85,9.4-4.55,18.29-9.59,26.11,4.76-8,8.29-16.89,8.88-26.16a29.29,29.29,0,0,0-2-13.52,18,18,0,0,0-3.83-5.57,15.49,15.49,0,0,0-5.72-3.51,22.66,22.66,0,0,0-13.42,0,38.4,38.4,0,0,0-6.42,2.45c-1,.49-2,1.06-3,1.65l-1.49.86c-.49.31-1,.65-1.43,1a66.8,66.8,0,0,0-18.89,20,64.5,64.5,0,0,0-6.12,12.38,50,50,0,0,0-3.06,13.41,28.7,28.7,0,0,0,1.84,13.42,16.37,16.37,0,0,0,9.4,9.15,22.39,22.39,0,0,0,13.46.18,43.13,43.13,0,0,0,12.52-5.81A68.45,68.45,0,0,0,218.59,288.23Z"/><polygon class="cls-80" points="211.69 251.16 216.61 253.95 188.16 297.08 172.53 286.36 177.92 278.73 188.64 286.09 211.69 251.16"/><path class="cls-81" d="M216.61,254c-2.3,3.64-4.58,7.29-6.92,10.91s-4.66,7.24-7,10.84-4.7,7.22-7.09,10.79l-7.16,10.75-.17.26-.25-.18-7.75-5.45-7.71-5.51,7.92,5.2,7.88,5.28-.42.08L195,286.1c2.34-3.61,4.75-7.18,7.13-10.77s4.78-7.16,7.2-10.72S214.17,257.5,216.61,254Z"/><path class="cls-82" d="M172.53,286.36l5.24-7.74.1-.15.16.1c3.59,2.42,7.21,4.81,10.79,7.26l-.44.08,5.73-8.75,5.78-8.72,5.81-8.7c2-2.88,3.9-5.78,5.89-8.65l.06-.09.09.06,4.87,2.89-5-2.69.15,0c-1.84,3-3.75,5.88-5.63,8.82l-5.71,8.77-5.74,8.74-5.79,8.71-.18.27-.27-.18c-3.56-2.47-7.09-5-10.65-7.47l.26-.05Z"/><g class="cls-83"><path class="cls-84" d="M138,431l16.09-4.93L159,443l19-3.45,2.85,16.72,19.52-4,2.6,16.4,23.5-.74-1.38,13.76,17.79-6.3,4,20.24s13.94-46.35,34.82-65c0-.75-114.11-65.63-114.11-65.63L138,431"/></g><path class="cls-85" d="M358.26,380.18l-.52,93.07-28.39-16.06-77.21-43.68a113,113,0,0,1,50.32-66.42,37,37,0,0,1,26.89-3.73,38,38,0,0,1,8.31,3.07l0,0A37.3,37.3,0,0,1,358.26,380.18Z"/><path class="cls-86" d="M339.92,347.67a37.17,37.17,0,0,1,10.24,8.17,36.65,36.65,0,0,1,6.75,11.37,39,39,0,0,1,2.29,13.1v13.07c-.07,8.72-.16,17.43-.37,26.14s-.49,17.43-.92,26.14q-.51-13.07-.64-26.14c-.11-8.72-.1-17.43-.07-26.15l.13-13.07a37.85,37.85,0,0,0-17.4-32.63Z"/><path class="cls-87" d="M507.92,243.7a27.25,27.25,0,0,0-26.89.19,80.94,80.94,0,0,0-12.74,9,82.07,82.07,0,0,0-28.77,62.44V426.35l-81.78,46.9.52-93.07a37.3,37.3,0,0,0-20.56-33.73l0,0-8.31-4.7V253a82.17,82.17,0,0,1,41.51-71.4,27.2,27.2,0,0,1,26.65-.32l.79.44Z"/><g class="cls-88"><path class="cls-89" d="M507.92,243.7a27.25,27.25,0,0,0-26.89.19,80.94,80.94,0,0,0-12.74,9,82.07,82.07,0,0,0-28.77,62.44V426.35l-81.78,46.9.52-93.07a37.3,37.3,0,0,0-20.56-33.73l0,0-8.31-4.7V253a82.17,82.17,0,0,1,41.51-71.4,27.2,27.2,0,0,1,26.65-.32l.79.44Z"/></g><path class="cls-90" d="M522.25,283.37l-54-30.52a80.94,80.94,0,0,1,12.74-9,27.52,27.52,0,0,1,41.13,23.74Z"/><path class="cls-91" d="M507.92,243.7a28.21,28.21,0,0,0-11.3-3.26,27.1,27.1,0,0,0-11.55,1.82,33.17,33.17,0,0,0-5.25,2.66q-2.54,1.52-4.95,3.23a82.09,82.09,0,0,0-32.51,47.76,80.4,80.4,0,0,0-2,11.62,113.39,113.39,0,0,0-.39,11.82l-.07,23.74-.14,23.74-.25,23.74-.24-23.74-.14-23.74-.07-23.74a115.63,115.63,0,0,1,.35-11.91,79.31,79.31,0,0,1,2-11.76,82.22,82.22,0,0,1,23.83-40.6,84.18,84.18,0,0,1,9.29-7.45c1.64-1.13,3.31-2.19,5-3.2a31.67,31.67,0,0,1,5.36-2.62,27.17,27.17,0,0,1,11.74-1.61A28.32,28.32,0,0,1,507.92,243.7Z"/><path class="cls-92" d="M329.35,338.42l-.24-24.32L329,289.79l-.07-24.31,0-12.16c.05-2,.11-4.07.2-6.11s.35-4.06.66-6.08a83.45,83.45,0,0,1,7.06-23.31,79.51,79.51,0,0,1,13.54-20.23,83.15,83.15,0,0,1,18.9-15.3,27.86,27.86,0,0,1,11.37-4.22,27.22,27.22,0,0,1,12,1.11,26.9,26.9,0,0,0-12-.86,27.36,27.36,0,0,0-11.16,4.39,82.31,82.31,0,0,0-38.77,58.57c-1.28,8-.78,16.09-.9,24.2l-.08,24.31-.14,24.31Z"/><path class="cls-93" d="M337.66,346.43a38,38,0,0,0-8.31-3.07,37,37,0,0,0-26.89,3.73A112.92,112.92,0,0,0,248,442.62l-.29,30.68-.12,21.92-10.77-25.63-11.09,12.63-11.22-25.29-10.86,12.31L192.47,444l-10.88,12.91-11.21-26.21-10.64,12.9-11-25.3-11.37,12.17.18-18.84,0-3.17.27-28.11a112.95,112.95,0,0,1,54.42-95.53h0a37.29,37.29,0,0,1,39.25,1.73l97.8,55.23Z"/><g class="cls-94"><path class="cls-95" d="M337.66,346.43a38,38,0,0,0-8.31-3.07,37,37,0,0,0-26.89,3.73A112.92,112.92,0,0,0,248,442.62l-.29,30.68-.12,21.92-10.77-25.63-11.09,12.63-11.22-25.29-10.86,12.31L192.47,444l-10.88,12.91-11.21-26.21-10.64,12.9-11-25.3-11.37,12.17.18-18.84,0-3.17.27-28.11a112.95,112.95,0,0,1,54.42-95.53h0a37.29,37.29,0,0,1,39.25,1.73l97.8,55.23Z"/></g><path class="cls-96" d="M337.66,346.43a37.21,37.21,0,0,0-24.77-3.12,35.72,35.72,0,0,0-11.65,4.84c-1.79,1.15-3.57,2.28-5.27,3.56-.86.62-1.73,1.22-2.58,1.86l-2.49,2c-1.69,1.28-3.24,2.74-4.84,4.12s-3.08,2.91-4.61,4.38a118.6,118.6,0,0,0-8.39,9.53,112.79,112.79,0,0,0-13.38,21.52A115.41,115.41,0,0,0,251.43,419a113.83,113.83,0,0,0-2.66,25.17l-.27,51,0,4.25-1.65-3.92L236,469.94l1.51.24-11.08,12.65-1,1.08-.58-1.32-11.25-25.28,1.59.25-10.85,12.32-1,1.14-.62-1.39-11.24-25.28,1.67.24-10.89,12.9-1,1.21-.62-1.46L169.51,431l1.6.23-10.66,12.89-1,1.16-.6-1.38L147.94,418.6l1.47.26L138,431l-1.54,1.65,0-2.25.47-41.23c.06-3.44.07-6.87.16-10.32s.35-6.91.73-10.35,1-6.84,1.68-10.23,1.59-6.73,2.6-10a112.83,112.83,0,0,1,50-63.69l.06,0h.08l-.12,0a37.49,37.49,0,0,1,39.37,2,37.81,37.81,0,0,0-19.39-6.31,37.32,37.32,0,0,0-19.74,4.8l0,0h-.08l.13,0a113.47,113.47,0,0,0-49,63.63q-1.46,4.92-2.5,9.94c-.66,3.35-1.23,6.72-1.58,10.12-.81,6.78-.68,13.63-.74,20.51l-.32,41.24-1.51-.61,11.36-12.18.93-1,.54,1.25,11,25.29L159,443l10.62-12.91,1-1.2.61,1.43,11.24,26.19-1.65-.24,10.87-12.92,1-1.23.64,1.46,11.2,25.3-1.62-.25,10.88-12.29,1-1.12.6,1.36,11.19,25.3-1.53-.23L236.18,469l1-1.08.55,1.33,10.74,25.64-1.67.33L247,469.7l.33-25.51a114.22,114.22,0,0,1,2.87-25.45,116,116,0,0,1,8.5-24.14A110.53,110.53,0,0,1,272.33,373a116.93,116.93,0,0,1,8.57-9.51c1.55-1.45,3.08-2.95,4.69-4.35s3.2-2.81,4.92-4.08l2.53-2c.86-.63,1.74-1.23,2.61-1.84,1.72-1.26,3.54-2.38,5.34-3.51A36.17,36.17,0,0,1,312.83,343,37.4,37.4,0,0,1,337.66,346.43Z"/><polygon class="cls-97" points="385.85 553.19 604.33 427.05 549.43 332.58 329.63 459.05 385.85 553.19"/><g class="cls-98"><polygon class="cls-99" points="385.85 553.19 604.33 427.05 549.43 332.58 329.63 459.05 385.85 553.19"/></g><g class="cls-100"><path class="cls-101" d="M417.25,536l-29.77-52.17s-1.25-3,.8-4.41,123.88-69.13,123.88-69.13l30.12,58Z"/></g><path class="cls-102" d="M329.88,459.11l14.26,23.36,14.2,23.4,28.24,46.89-1.13-.32,10.75-5.86c3.59-1.94,7.23-3.77,10.85-5.66s7.28-3.69,10.94-5.49c1.83-.91,3.67-1.81,5.52-2.66s3.7-1.74,5.57-2.56c-1.72,1.1-3.48,2.14-5.23,3.19s-3.52,2.08-5.29,3.09c-3.55,2-7.08,4.08-10.68,6s-7.15,3.94-10.76,5.83L386.25,554l-.73.38-.41-.7-27.72-47.19L343.6,482.79Z"/><path class="cls-103" d="M391.75,458.94,389,461.09a3.08,3.08,0,0,0-.71,4.08l53.31,84.44a1.74,1.74,0,0,0,2,.71l1.73-.6-53.6-90.78"/><path class="cls-104" d="M609.54,451.31l-50.41-85.39a2.94,2.94,0,0,0-3.84-1.39L391.75,458.94a2.88,2.88,0,0,0-.65,4l50.41,85.38a2.93,2.93,0,0,0,3.84,1.4l163.54-94.41A2.88,2.88,0,0,0,609.54,451.31Z"/><polygon class="cls-105" points="555.42 379.16 562.59 391.31 552.8 396.96 545.63 384.81 555.42 379.16"/><polygon class="cls-106" points="589.13 436.25 596.3 448.4 586.55 454.04 579.37 441.89 589.13 436.25"/><polygon class="cls-107" points="574.91 444.46 582.09 456.61 572.33 462.24 565.16 450.09 574.91 444.46"/><polygon class="cls-108" points="560.72 452.65 567.9 464.8 558.14 470.44 550.97 458.29 560.72 452.65"/><polygon class="cls-109" points="566.54 398 573.72 410.15 563.93 415.81 556.76 403.65 566.54 398"/><polygon class="cls-110" points="552.05 406.37 559.23 418.52 549.44 424.17 542.26 412.02 552.05 406.37"/><polygon class="cls-111" points="577.89 417.22 585.07 429.37 566.05 440.35 558.88 428.2 577.89 417.22"/><polygon class="cls-112" points="555.75 430.01 562.92 442.16 553.16 447.79 545.99 435.64 555.75 430.01"/><polygon class="cls-113" points="541.71 438.11 548.88 450.26 539.12 455.9 531.95 443.75 541.71 438.11"/><g class="cls-1"><polygon class="cls-114" points="528.12 445.96 535.29 458.11 525.53 463.74 518.36 451.59 528.12 445.96"/><polygon class="cls-115" points="514.08 454.06 521.26 466.21 511.5 471.85 504.33 459.69 514.08 454.06"/><polygon class="cls-116" points="500.04 462.17 507.22 474.32 497.46 479.95 490.28 467.8 500.04 462.17"/><polygon class="cls-117" points="486 470.27 493.17 482.43 483.42 488.06 476.24 475.91 486 470.27"/><polygon class="cls-118" points="546.43 460.9 553.61 473.06 486.26 511.94 479.09 499.79 546.43 460.9"/><polygon class="cls-119" points="471.96 478.38 479.13 490.53 469.38 496.17 462.2 484.01 471.96 478.38"/></g><polygon class="cls-120" points="457.92 486.49 465.1 498.63 455.34 504.27 448.17 492.12 457.92 486.49"/><polygon class="cls-121" points="475.72 501.73 482.89 513.88 473.14 519.51 465.96 507.36 475.72 501.73"/><polygon class="cls-122" points="461.38 510.01 468.55 522.16 458.79 527.8 451.62 515.64 461.38 510.01"/><polygon class="cls-123" points="447.03 518.29 454.2 530.45 444.45 536.08 437.27 523.93 447.03 518.29"/><polygon class="cls-124" points="538.01 414.48 545.18 426.63 535.39 432.28 528.22 420.13 538.01 414.48"/><polygon class="cls-125" points="540.92 387.52 548.1 399.68 538.31 405.33 531.13 393.18 540.92 387.52"/><polygon class="cls-126" points="526.88 395.63 534.06 407.78 524.27 413.44 517.09 401.28 526.88 395.63"/><polygon class="cls-127" points="512.85 403.74 520.02 415.89 510.23 421.54 503.05 409.39 512.85 403.74"/><polygon class="cls-128" points="509.93 430.69 517.11 442.84 507.31 448.49 500.14 436.34 509.93 430.69"/><polygon class="cls-129" points="445.36 493.74 452.53 505.89 433.51 516.87 426.34 504.72 445.36 493.74"/><polygon class="cls-130" points="523.98 422.58 514.18 428.24 521.35 440.39 531.15 434.73 523.98 422.58"/><polygon class="cls-131" points="498.81 411.84 505.98 423.99 496.19 429.65 489.01 417.5 498.81 411.84"/><polygon class="cls-132" points="484.31 420.21 491.49 432.36 481.69 438.02 474.52 425.87 484.31 420.21"/><polygon class="cls-133" points="495.44 439.06 502.62 451.21 492.82 456.86 485.64 444.71 495.44 439.06"/><polygon class="cls-134" points="470.27 428.32 477.45 440.47 467.66 446.12 460.48 433.97 470.27 428.32"/><polygon class="cls-135" points="481.4 447.16 488.57 459.31 478.78 464.96 471.61 452.81 481.4 447.16"/><polygon class="cls-136" points="456.23 436.42 463.4 448.57 453.62 454.23 446.44 442.07 456.23 436.42"/><polygon class="cls-137" points="467.36 455.27 474.53 467.42 464.74 473.07 457.57 460.92 467.36 455.27"/><polygon class="cls-138" points="441.74 444.79 448.91 456.94 439.12 462.59 431.95 450.44 441.74 444.79"/><polygon class="cls-139" points="452.86 463.64 460.04 475.79 450.25 481.44 443.07 469.29 452.86 463.64"/><polygon class="cls-140" points="427.7 452.89 434.88 465.05 425.08 470.7 417.91 458.55 427.7 452.89"/><polygon class="cls-141" points="438.83 471.74 446 483.89 436.21 489.55 429.03 477.4 438.83 471.74"/><polygon class="cls-142" points="413.66 461 420.83 473.15 411.04 478.81 403.87 466.66 413.66 461"/><polygon class="cls-143" points="424.79 479.85 431.96 492 422.17 497.65 414.99 485.5 424.79 479.85"/><polygon class="cls-144" points="558.65 377.22 565.82 389.37 556.03 395.02 548.86 382.87 558.65 377.22"/><polygon class="cls-145" points="592.36 434.32 599.53 446.47 589.78 452.1 582.6 439.95 592.36 434.32"/><polygon class="cls-146" points="578.14 442.52 585.32 454.67 575.56 460.31 568.39 448.16 578.14 442.52"/><polygon class="cls-147" points="563.95 450.72 571.13 462.87 561.37 468.5 554.2 456.35 563.95 450.72"/><polygon class="cls-148" points="569.78 396.07 576.95 408.22 567.16 413.87 559.99 401.72 569.78 396.07"/><polygon class="cls-149" points="555.28 404.43 562.46 416.58 552.67 422.24 545.49 410.09 555.28 404.43"/><polygon class="cls-150" points="581.12 415.28 588.3 427.44 569.28 438.41 562.11 426.26 581.12 415.28"/><polygon class="cls-151" points="558.98 428.07 566.15 440.22 556.39 445.85 549.22 433.7 558.98 428.07"/><polygon class="cls-152" points="544.94 436.18 552.11 448.33 542.35 453.96 535.18 441.81 544.94 436.18"/><g class="cls-1"><polygon class="cls-153" points="531.35 444.02 538.52 456.17 528.76 461.81 521.59 449.65 531.35 444.02"/><polygon class="cls-154" points="517.31 452.13 524.49 464.27 514.73 469.91 507.56 457.76 517.31 452.13"/><polygon class="cls-155" points="503.27 460.23 510.45 472.38 500.69 478.01 493.51 465.87 503.27 460.23"/><polygon class="cls-156" points="489.23 468.34 496.4 480.49 486.65 486.12 479.47 473.97 489.23 468.34"/><polygon class="cls-157" points="549.66 458.97 556.84 471.12 489.49 510 482.32 497.85 549.66 458.97"/><polygon class="cls-158" points="475.19 476.44 482.36 488.6 472.61 494.23 465.43 482.08 475.19 476.44"/></g><polygon class="cls-159" points="461.15 484.55 468.33 496.7 458.57 502.33 451.4 490.18 461.15 484.55"/><polygon class="cls-160" points="478.95 499.79 486.13 511.94 476.37 517.58 469.19 505.43 478.95 499.79"/><polygon class="cls-161" points="464.61 508.07 471.78 520.23 462.02 525.86 454.85 513.71 464.61 508.07"/><polygon class="cls-162" points="450.26 516.36 457.44 528.51 447.68 534.14 440.5 521.99 450.26 516.36"/><polygon class="cls-163" points="541.24 412.54 548.41 424.69 538.63 430.34 531.45 418.19 541.24 412.54"/><polygon class="cls-164" points="544.15 385.59 551.33 397.74 541.54 403.39 534.37 391.24 544.15 385.59"/><polygon class="cls-165" points="530.11 393.69 537.29 405.85 527.5 411.5 520.32 399.35 530.11 393.69"/><polygon class="cls-166" points="516.08 401.8 523.25 413.95 513.46 419.61 506.28 407.45 516.08 401.8"/><polygon class="cls-167" points="513.16 428.75 520.34 440.9 510.54 446.56 503.37 434.41 513.16 428.75"/><polygon class="cls-168" points="448.59 491.8 455.76 503.95 436.74 514.93 429.57 502.78 448.59 491.8"/><polygon class="cls-169" points="527.21 420.64 517.41 426.3 524.58 438.45 534.38 432.8 527.21 420.64"/><polygon class="cls-170" points="502.04 409.9 509.21 422.06 499.42 427.71 492.24 415.56 502.04 409.9"/><polygon class="cls-171" points="487.54 418.27 494.72 430.42 484.92 436.08 477.75 423.93 487.54 418.27"/><polygon class="cls-172" points="498.67 437.12 505.85 449.27 496.05 454.93 488.88 442.77 498.67 437.12"/><polygon class="cls-173" points="473.5 426.38 480.68 438.53 470.89 444.18 463.71 432.03 473.5 426.38"/><polygon class="cls-174" points="484.63 445.23 491.8 457.38 482.01 463.03 474.84 450.88 484.63 445.23"/><polygon class="cls-175" points="459.46 434.49 466.63 446.64 456.85 452.29 449.67 440.14 459.46 434.49"/><polygon class="cls-176" points="470.59 453.33 477.76 465.48 467.97 471.13 460.8 458.98 470.59 453.33"/><polygon class="cls-177" points="444.97 442.85 452.14 455 442.35 460.66 435.18 448.51 444.97 442.85"/><polygon class="cls-178" points="456.1 461.7 463.27 473.85 453.48 479.5 446.31 467.35 456.1 461.7"/><polygon class="cls-179" points="430.93 450.96 438.11 463.11 428.31 468.76 421.14 456.61 430.93 450.96"/><polygon class="cls-180" points="442.06 469.8 449.23 481.95 439.44 487.61 432.26 475.46 442.06 469.8"/><polygon class="cls-181" points="416.89 459.06 424.07 471.21 414.27 476.87 407.1 464.72 416.89 459.06"/><polygon class="cls-182" points="428.02 477.91 435.19 490.06 425.4 495.72 418.22 483.57 428.02 477.91"/><line class="cls-183" x1="360.41" y1="211.66" x2="422.1" y2="246.2"/><line class="cls-183" x1="354.11" y1="221.56" x2="415.8" y2="256.1"/><line class="cls-183" x1="351.86" y1="233.26" x2="388.19" y2="254.21"/></g></g></svg>