<svg width="496" height="465" viewBox="0 0 496 465" fill="none" xmlns="http://www.w3.org/2000/svg">
<g opacity="0.57">
<path d="M433.013 306.562L198.624 441.751" stroke="#D7D7F5" stroke-width="0.5" stroke-miterlimit="10"/>
<path d="M471.78 329.558L237.391 464.747" stroke="#D7D7F5" stroke-width="0.5" stroke-miterlimit="10"/>
<path d="M392.751 284.831L158.362 420.02" stroke="#D7D7F5" stroke-width="0.5" stroke-miterlimit="10"/>
<path d="M353.128 261.824L118.739 397.013" stroke="#D7D7F5" stroke-width="0.5" stroke-miterlimit="10"/>
<path d="M314.784 238.815L80.3945 374.004" stroke="#D7D7F5" stroke-width="0.5" stroke-miterlimit="10"/>
<path d="M275.798 217.089L41.4092 352.278" stroke="#D7D7F5" stroke-width="0.5" stroke-miterlimit="10"/>
<path d="M235.389 194.421L1 329.61" stroke="#D7D7F5" stroke-width="0.5" stroke-miterlimit="10"/>
<path d="M314.926 441.34L42.3362 284.085" stroke="#D7D7F5" stroke-width="0.5" stroke-miterlimit="10"/>
<path d="M275.477 464.178L2.88721 306.923" stroke="#D7D7F5" stroke-width="0.5" stroke-miterlimit="10"/>
<path d="M392.792 396.698L120.198 239.443" stroke="#D7D7F5" stroke-width="0.5" stroke-miterlimit="10"/>
<path d="M353.342 419.536L80.7483 262.281" stroke="#D7D7F5" stroke-width="0.5" stroke-miterlimit="10"/>
<path d="M471.001 351.019L198.407 193.764" stroke="#D7D7F5" stroke-width="0.5" stroke-miterlimit="10"/>
<path d="M431.551 373.856L158.957 216.601" stroke="#D7D7F5" stroke-width="0.5" stroke-miterlimit="10"/>
</g>
<path opacity="0.38" d="M445.828 330.504L264.996 226.1L56.3408 346.569L237.176 450.969L445.828 330.504Z" fill="url(#paint0_linear_253_4)"/>
<path d="M394.113 358.087L392.034 361.466C391.986 360.717 391.862 359.975 391.664 359.25L380.05 353.419V346.587L391.661 352.415C392.57 354.527 393.212 356.005 394.113 358.087Z" fill="#BECEF8"/>
<path d="M463.905 332.513V339.345L460.327 345.187C459.758 343.861 459.219 342.68 458.587 341.18L463.905 332.513Z" fill="#BECEF8"/>
<path d="M472.643 352.682V359.518C470.882 363.695 470.693 364.134 468.924 368.311L454.255 369.729L447.63 373.887L445.414 383.079L431.38 385.435L422.036 378.189L412.959 376.664L399.121 380.029L388.803 373.592V366.76L399.121 373.2L412.959 369.836C416.305 370.39 418.687 370.789 422.037 371.354L431.38 378.6L445.414 376.244L447.63 367.052L454.256 362.902L468.925 361.484C470.693 357.298 470.881 356.859 472.643 352.682Z" fill="#BECEF8"/>
<path d="M448.284 353.094C447.327 350.664 445.329 348.36 442.279 346.444C433.415 340.927 419.108 340.905 410.311 346.444C407.324 348.317 405.361 350.588 404.402 352.985C402.556 348.343 404.528 343.239 410.311 339.608C419.108 334.091 433.423 334.091 442.279 339.608C448.14 343.282 450.134 348.426 448.284 353.094Z" fill="#BECEF8"/>
<path d="M461.04 346.859C460.782 346.259 460.545 345.709 460.302 345.19C459.733 343.864 459.194 342.682 458.562 341.183L463.895 332.515L453.555 326.078L439.724 329.435C436.378 328.881 433.996 328.482 430.647 327.917L421.303 320.671L407.27 323.027L405.054 332.219L398.436 336.369L383.759 337.795C381.99 341.972 381.802 342.411 380.04 346.588L391.651 352.415C392.56 354.509 393.201 355.994 394.101 358.088L392.022 361.467L388.776 366.759L399.095 373.199L412.933 369.835C416.279 370.389 418.661 370.788 422.01 371.353L431.354 378.599L445.388 376.243L447.604 367.051L454.229 362.901L468.898 361.483C470.667 357.298 470.856 356.859 472.617 352.683L461.04 346.859ZM410.312 339.628C419.109 334.111 433.424 334.111 442.28 339.628C448.13 343.278 450.135 348.421 448.285 353.089C447.339 355.486 445.371 357.765 442.376 359.639C433.586 365.157 419.261 365.157 410.408 359.639C407.365 357.739 405.358 355.437 404.403 352.989C402.575 348.359 404.536 343.256 410.312 339.626V339.628Z" fill="url(#paint1_linear_253_4)"/>
<path d="M458.85 308.733L457.883 310.31C457.86 309.96 457.8 309.613 457.705 309.276L452.288 306.554V303.363L457.705 306.085L458.85 308.733Z" fill="#BECEF8"/>
<path d="M491.415 296.774V299.964L489.739 302.69C489.473 302.073 489.229 301.519 488.926 300.821L491.415 296.774Z" fill="#BECEF8"/>
<path d="M495.493 306.192V309.382C494.673 311.332 494.584 311.535 493.757 313.485L486.91 314.15L483.815 316.089L482.78 320.382L476.23 321.49L471.865 318.107L467.629 317.394L461.17 318.968L456.37 315.962V312.771L461.17 315.777L467.629 314.207L471.865 314.916L476.23 318.299L482.78 317.191L483.818 312.9L486.918 310.95L493.765 310.285C494.584 308.364 494.673 308.142 495.493 306.192Z" fill="#BECEF8"/>
<path d="M484.122 306.384C483.546 305.077 482.562 303.992 481.319 303.289C477.183 300.704 470.502 300.704 466.395 303.289C465.174 303.985 464.209 305.054 463.64 306.339C462.783 304.175 463.699 301.789 466.395 300.097C470.502 297.512 477.182 297.512 481.319 300.097C484.048 301.801 484.986 304.205 484.122 306.384Z" fill="#BECEF8"/>
<path d="M490.08 303.47L489.74 302.691C489.474 302.074 489.231 301.521 488.928 300.823L491.417 296.76L486.617 293.758L480.158 295.324L475.922 294.615L471.557 291.232L465.001 292.34L463.967 296.631L460.876 298.57L454.026 299.235C453.199 301.185 453.11 301.388 452.291 303.338L457.708 306.06L458.853 308.734L457.886 310.311L456.368 312.782L461.168 315.788L467.627 314.218L471.863 314.927L476.228 318.31L482.778 317.202L483.815 312.911L486.915 310.95L493.762 310.285C494.59 308.331 494.678 308.128 495.498 306.178L490.08 303.47ZM466.396 300.098C470.503 297.513 477.184 297.513 481.32 300.098C484.049 301.798 484.987 304.205 484.123 306.377C483.555 307.664 482.59 308.736 481.368 309.435C477.265 312.02 470.577 312.02 466.444 309.435C465.201 308.729 464.218 307.642 463.641 306.335C462.784 304.176 463.7 301.79 466.396 300.098H466.396Z" fill="url(#paint2_linear_253_4)"/>
<path d="M444.816 288.905L264.996 185.082L56.3369 305.55L237.169 409.954L444.816 290.069C444.918 290.01 445.003 289.925 445.062 289.823C445.121 289.72 445.152 289.605 445.152 289.487C445.152 289.369 445.121 289.253 445.062 289.151C445.003 289.049 444.918 288.964 444.816 288.905Z" fill="url(#paint3_linear_253_4)"/>
<path d="M158.004 280.038C157.365 280.408 157.362 281.006 158.004 281.375L168.943 287.742C169.301 287.924 169.696 288.019 170.097 288.019C170.499 288.019 170.894 287.924 171.251 287.742L190.001 276.918C190.64 276.548 190.648 275.946 190.001 275.577L179.07 269.216C178.712 269.033 178.316 268.938 177.914 268.938C177.512 268.938 177.116 269.033 176.758 269.216L158.004 280.038Z" fill="url(#paint4_linear_253_4)"/>
<path d="M121.372 322.206C120.733 322.576 120.726 323.178 121.372 323.547L132.326 329.91C132.684 330.092 133.08 330.187 133.482 330.187C133.883 330.187 134.28 330.092 134.638 329.91L153.376 319.074C154.015 318.705 154.019 318.11 153.376 317.741L142.423 311.374C142.065 311.192 141.67 311.098 141.269 311.098C140.868 311.098 140.472 311.192 140.115 311.374L121.372 322.206Z" fill="#BECEF8"/>
<path d="M139.125 332.971C139.032 333.002 138.95 333.062 138.893 333.142C138.835 333.222 138.804 333.318 138.804 333.416C138.804 333.515 138.835 333.611 138.893 333.691C138.95 333.771 139.032 333.83 139.125 333.861L150.847 340.675C151.086 340.797 151.351 340.861 151.619 340.861C151.887 340.861 152.152 340.797 152.391 340.675L171.898 329.415C171.991 329.384 172.072 329.324 172.129 329.244C172.187 329.164 172.217 329.069 172.217 328.97C172.217 328.872 172.187 328.776 172.129 328.696C172.072 328.616 171.991 328.557 171.898 328.525L160.172 321.712C159.934 321.59 159.671 321.526 159.404 321.526C159.137 321.526 158.873 321.59 158.636 321.712L139.125 332.971Z" fill="#BECEF8"/>
<path d="M166.51 317.155C166.417 317.187 166.336 317.247 166.279 317.327C166.222 317.407 166.191 317.503 166.191 317.602C166.191 317.7 166.222 317.796 166.279 317.876C166.336 317.956 166.417 318.016 166.51 318.048L178.236 324.862C178.474 324.983 178.737 325.045 179.004 325.045C179.271 325.045 179.534 324.983 179.772 324.862L199.298 313.587C199.391 313.556 199.472 313.497 199.53 313.417C199.587 313.337 199.618 313.241 199.618 313.142C199.618 313.044 199.587 312.948 199.53 312.868C199.472 312.788 199.391 312.729 199.298 312.697L187.572 305.884C187.334 305.764 187.071 305.701 186.804 305.701C186.537 305.701 186.274 305.764 186.036 305.884L166.51 317.155Z" fill="#BECEF8"/>
<path d="M148.756 306.396C148.117 306.766 148.113 307.364 148.756 307.733L159.709 314.096C160.067 314.278 160.462 314.373 160.863 314.373C161.265 314.373 161.66 314.278 162.017 314.096L180.76 303.268C181.399 302.899 181.402 302.304 180.76 301.935L169.806 295.568C169.449 295.386 169.054 295.291 168.654 295.291C168.253 295.291 167.858 295.386 167.501 295.568L148.756 306.396Z" fill="url(#paint5_linear_253_4)"/>
<path d="M193.901 301.347C193.808 301.378 193.726 301.438 193.669 301.517C193.611 301.597 193.58 301.693 193.58 301.792C193.58 301.89 193.611 301.986 193.669 302.066C193.726 302.146 193.808 302.206 193.901 302.237L205.624 309.052C205.863 309.172 206.127 309.235 206.394 309.235C206.662 309.235 206.926 309.172 207.164 309.052L226.686 297.78C227.111 297.533 227.118 297.134 226.686 296.887L214.962 290.072C214.724 289.951 214.46 289.888 214.192 289.888C213.925 289.888 213.661 289.951 213.422 290.072L193.901 301.347Z" fill="#BECEF8"/>
<path d="M176.149 290.581C175.51 290.951 175.506 291.549 176.149 291.918L187.102 298.281C187.46 298.463 187.855 298.558 188.256 298.558C188.657 298.558 189.053 298.463 189.41 298.281L208.16 287.457C208.799 287.087 208.807 286.489 208.16 286.12L197.207 279.753C196.848 279.571 196.452 279.476 196.051 279.476C195.649 279.476 195.253 279.571 194.895 279.753L176.149 290.581Z" fill="url(#paint6_linear_253_4)"/>
<path d="M323.096 249.507C323.002 249.538 322.921 249.598 322.863 249.678C322.805 249.759 322.774 249.855 322.774 249.954C322.774 250.053 322.805 250.149 322.863 250.229C322.921 250.309 323.002 250.369 323.096 250.4L334.814 257.21C335.053 257.331 335.318 257.395 335.586 257.395C335.854 257.395 336.118 257.331 336.358 257.21L355.872 245.95C355.965 245.918 356.046 245.858 356.104 245.778C356.161 245.698 356.192 245.601 356.192 245.503C356.192 245.404 356.161 245.308 356.104 245.228C356.046 245.148 355.965 245.088 355.872 245.056L344.15 238.246C343.912 238.124 343.649 238.061 343.382 238.061C343.115 238.061 342.851 238.124 342.614 238.246L323.096 249.507Z" fill="#BECEF8"/>
<path d="M158.765 344.383C158.671 344.414 158.589 344.473 158.531 344.554C158.473 344.634 158.442 344.73 158.442 344.829C158.442 344.928 158.473 345.025 158.531 345.105C158.589 345.185 158.671 345.245 158.765 345.276L170.483 352.086C170.722 352.208 170.987 352.271 171.255 352.271C171.523 352.271 171.788 352.208 172.027 352.086L191.548 340.815C191.641 340.783 191.723 340.724 191.78 340.644C191.838 340.564 191.869 340.468 191.869 340.37C191.869 340.271 191.838 340.175 191.78 340.095C191.723 340.015 191.641 339.956 191.548 339.925L179.826 333.107C179.587 332.987 179.323 332.924 179.056 332.924C178.789 332.924 178.525 332.987 178.286 333.107L158.765 344.383Z" fill="#BECEF8"/>
<path d="M267.548 216.775C266.909 217.145 266.902 217.743 267.548 218.116L278.502 224.483C278.86 224.665 279.256 224.76 279.658 224.76C280.06 224.76 280.456 224.665 280.814 224.483L299.564 213.658C300.203 213.289 300.206 212.691 299.564 212.321L288.61 205.952C288.252 205.77 287.856 205.675 287.454 205.675C287.052 205.675 286.656 205.77 286.298 205.952L267.548 216.775Z" fill="url(#paint7_linear_253_4)"/>
<path d="M240.171 232.6C239.532 232.97 239.528 233.568 240.171 233.937L251.124 240.304C251.481 240.486 251.876 240.581 252.276 240.581C252.677 240.581 253.072 240.486 253.429 240.304L272.182 229.48C272.821 229.11 272.828 228.508 272.182 228.139L261.232 221.776C260.874 221.593 260.478 221.498 260.076 221.498C259.674 221.498 259.278 221.593 258.92 221.776L240.171 232.6Z" fill="url(#paint8_linear_253_4)"/>
<path d="M258.315 243.145C257.676 243.514 257.672 244.112 258.315 244.482L269.268 250.845C269.626 251.027 270.021 251.121 270.422 251.121C270.823 251.121 271.219 251.027 271.576 250.845L290.326 240.02C290.965 239.651 290.973 239.053 290.326 238.683L279.365 232.316C279.007 232.134 278.611 232.039 278.209 232.039C277.807 232.039 277.411 232.134 277.053 232.316L258.315 243.145Z" fill="url(#paint9_linear_253_4)"/>
<path d="M212.779 248.415C212.14 248.784 212.137 249.382 212.779 249.752L223.733 256.119C224.09 256.301 224.486 256.395 224.887 256.395C225.288 256.395 225.683 256.301 226.041 256.119L244.794 245.291C245.433 244.921 245.437 244.323 244.794 243.954L233.841 237.591C233.483 237.408 233.087 237.312 232.685 237.312C232.283 237.312 231.887 237.408 231.529 237.591L212.779 248.415Z" fill="url(#paint10_linear_253_4)"/>
<path d="M276.064 253.906C275.971 253.938 275.89 253.998 275.833 254.078C275.776 254.158 275.745 254.254 275.745 254.352C275.745 254.451 275.776 254.547 275.833 254.627C275.89 254.707 275.971 254.767 276.064 254.799L287.789 261.613C288.027 261.734 288.291 261.797 288.558 261.797C288.825 261.797 289.088 261.734 289.326 261.613L308.846 250.346C308.94 250.315 309.022 250.255 309.08 250.174C309.138 250.094 309.169 249.998 309.169 249.899C309.169 249.8 309.138 249.703 309.08 249.623C309.022 249.543 308.94 249.483 308.846 249.452L297.128 242.627C296.889 242.507 296.624 242.444 296.357 242.444C296.089 242.444 295.824 242.507 295.585 242.627L276.064 253.906Z" fill="#BECEF8"/>
<path d="M230.923 258.958C230.284 259.328 230.281 259.926 230.923 260.295L241.878 266.658C242.235 266.84 242.63 266.935 243.031 266.935C243.431 266.935 243.826 266.84 244.183 266.658L262.939 255.828C263.578 255.459 263.581 254.861 262.939 254.495L251.985 248.128C251.627 247.946 251.232 247.852 250.831 247.852C250.43 247.852 250.034 247.946 249.677 248.128L230.923 258.958Z" fill="url(#paint11_linear_253_4)"/>
<path d="M185.395 264.224C184.756 264.593 184.749 265.195 185.395 265.564L196.349 271.931C196.706 272.113 197.102 272.208 197.503 272.208C197.904 272.208 198.299 272.113 198.657 271.931L217.403 261.092C218.042 260.723 218.045 260.125 217.403 259.755L206.449 253.388C206.091 253.206 205.695 253.111 205.293 253.111C204.891 253.111 204.495 253.206 204.137 253.388L185.395 264.224Z" fill="url(#paint12_linear_253_4)"/>
<path d="M248.676 269.719C248.583 269.75 248.502 269.81 248.445 269.89C248.387 269.97 248.356 270.066 248.356 270.164C248.356 270.262 248.387 270.358 248.445 270.438C248.502 270.518 248.583 270.578 248.676 270.609L260.402 277.423C260.64 277.545 260.903 277.609 261.17 277.609C261.437 277.609 261.701 277.545 261.938 277.423L281.467 266.152C281.561 266.121 281.642 266.061 281.7 265.981C281.757 265.901 281.788 265.805 281.788 265.707C281.788 265.608 281.757 265.512 281.7 265.432C281.642 265.352 281.561 265.293 281.467 265.262L269.739 258.448C269.502 258.326 269.238 258.263 268.971 258.263C268.704 258.263 268.441 258.326 268.203 258.448L248.676 269.719Z" fill="#BECEF8"/>
<path d="M203.535 274.757C202.896 275.126 202.889 275.724 203.535 276.094L214.489 282.461C214.847 282.643 215.243 282.738 215.645 282.738C216.047 282.738 216.443 282.643 216.801 282.461L235.551 271.633C236.19 271.263 236.193 270.665 235.551 270.296L224.597 263.933C224.24 263.751 223.844 263.656 223.443 263.656C223.042 263.656 222.647 263.751 222.289 263.933L203.535 274.757Z" fill="url(#paint13_linear_253_4)"/>
<path d="M221.288 285.533C221.195 285.564 221.113 285.624 221.056 285.704C220.998 285.783 220.967 285.879 220.967 285.978C220.967 286.076 220.998 286.172 221.056 286.252C221.113 286.332 221.195 286.392 221.288 286.423L233.006 293.223C233.245 293.345 233.508 293.408 233.776 293.408C234.044 293.408 234.308 293.345 234.546 293.223L254.068 281.952C254.496 281.705 254.5 281.306 254.068 281.062L242.342 274.249C242.104 274.127 241.84 274.063 241.572 274.063C241.304 274.063 241.041 274.127 240.802 274.249L221.288 285.533Z" fill="#BECEF8"/>
<path d="M186.108 328.598C186.015 328.629 185.934 328.689 185.876 328.769C185.819 328.849 185.788 328.945 185.788 329.043C185.788 329.142 185.819 329.238 185.876 329.317C185.934 329.397 186.015 329.457 186.108 329.488L197.831 336.298C198.069 336.419 198.332 336.482 198.599 336.482C198.866 336.482 199.129 336.419 199.367 336.298L328.462 261.765C328.887 261.517 328.894 261.118 328.462 260.871L316.747 254.076C316.509 253.954 316.245 253.89 315.978 253.89C315.71 253.89 315.446 253.954 315.207 254.076L186.108 328.598Z" fill="#BECEF8"/>
<path d="M130.616 295.851C129.977 296.221 129.973 296.819 130.616 297.188L141.566 303.562C141.923 303.744 142.319 303.839 142.72 303.839C143.121 303.839 143.516 303.744 143.874 303.562L162.626 292.734C163.265 292.365 163.268 291.767 162.626 291.397L151.676 285.034C151.318 284.851 150.922 284.756 150.52 284.756C150.118 284.756 149.722 284.851 149.364 285.034L130.616 295.851Z" fill="url(#paint14_linear_253_4)"/>
<path d="M103.229 311.662C102.59 312.031 102.582 312.633 103.229 313.002L114.175 319.369C114.534 319.552 114.93 319.646 115.331 319.646C115.733 319.646 116.129 319.552 116.487 319.369L135.237 308.545C135.876 308.175 135.88 307.577 135.237 307.208L124.284 300.845C123.927 300.662 123.531 300.566 123.13 300.566C122.729 300.566 122.333 300.662 121.976 300.845L103.229 311.662Z" fill="#BECEF8"/>
<path d="M303.455 238.096C303.362 238.127 303.28 238.186 303.223 238.266C303.165 238.346 303.134 238.442 303.134 238.541C303.134 238.639 303.165 238.735 303.223 238.815C303.28 238.895 303.362 238.955 303.455 238.986L315.188 245.799C315.427 245.92 315.691 245.984 315.958 245.984C316.226 245.984 316.49 245.92 316.728 245.799L336.239 234.528C336.331 234.496 336.412 234.435 336.469 234.355C336.526 234.275 336.556 234.18 336.556 234.081C336.556 233.983 336.526 233.887 336.469 233.807C336.412 233.727 336.331 233.667 336.239 233.635L324.513 226.825C324.275 226.703 324.012 226.639 323.745 226.639C323.478 226.639 323.214 226.703 322.977 226.825L303.455 238.096Z" fill="#BECEF8"/>
<path d="M285.704 227.331C285.061 227.701 285.057 228.299 285.704 228.668L296.657 235.035C297.015 235.217 297.41 235.312 297.811 235.312C298.212 235.312 298.608 235.217 298.965 235.035L317.719 224.211C318.358 223.841 318.361 223.243 317.719 222.874L306.765 216.511C306.408 216.329 306.012 216.234 305.611 216.234C305.21 216.234 304.815 216.329 304.457 216.511L285.704 227.331Z" fill="url(#paint15_linear_253_4)"/>
<path style="mix-blend-mode:multiply" opacity="0.22" d="M56.3447 305.549L103.72 333.369C103.72 333.369 134.623 302.059 254.076 281.075C373.529 260.091 445.131 289.665 445.131 289.665L264.993 185.084L56.3447 305.549Z" fill="url(#paint16_linear_253_4)"/>
<path d="M315.876 213.514L440.706 286.674L315.506 214.149L315.876 213.514Z" fill="#6A98FD"/>
<path d="M12.1676 120.593L52.3076 303.218L56.3406 305.548L15.2736 123.568C14.8236 121.692 15.8606 120.388 17.1571 119.328L16.9281 118.416L15.2106 116.621L13.5266 117.568C13.0054 117.859 12.5918 118.31 12.3471 118.855C12.1023 119.4 12.0394 120.009 12.1676 120.592V120.593Z" fill="url(#paint17_linear_253_4)"/>
<path d="M13.5476 119.496L14.0941 119.681C14.8297 119.928 15.6159 119.987 16.3801 119.851L16.5391 119.821L223.194 2.61764L221.148 0.97764C220.439 0.414389 219.576 0.0778648 218.673 0.0119534C217.77 -0.053958 216.868 0.153802 216.085 0.60814L13.4896 117.558C13.319 117.659 13.1786 117.803 13.0828 117.977C12.9871 118.15 12.9396 118.346 12.9453 118.544C12.9509 118.742 13.0096 118.935 13.1151 119.102C13.2206 119.27 13.3691 119.406 13.5451 119.497L13.5476 119.496Z" fill="url(#paint18_linear_253_4)"/>
<path d="M18.5156 118.998C17.5928 119.531 16.8645 120.344 16.4373 121.321C16.01 122.297 15.9063 123.384 16.1411 124.423L23.3831 156.473L42.6386 241.723L57.0596 305.551L265.701 185.086L224.845 4.16903C224.745 3.73106 224.543 3.32267 224.257 2.97675C223.97 2.63082 223.606 2.35702 223.194 2.17739C222.783 1.99775 222.335 1.9173 221.886 1.94251C221.437 1.96772 221.001 2.09789 220.612 2.32253L18.5156 118.998Z" fill="url(#paint19_linear_253_4)"/>
<path d="M37.9795 130.131L71.6935 297.107L85.3935 305.099L112.781 292.372L47.157 122.919L37.9795 130.131Z" fill="url(#paint20_linear_253_4)"/>
<path d="M47.2668 122.82C45.9552 123.575 44.9199 124.73 44.3125 126.117C43.7051 127.503 43.5575 129.047 43.8913 130.524L50.7912 161.062L70.0508 246.32L82.3563 300.77C82.6005 301.852 83.0957 302.862 83.8018 303.718C84.5079 304.574 85.4052 305.252 86.4215 305.698C87.4377 306.144 88.5444 306.344 89.6524 306.284C90.7603 306.223 91.8386 305.903 92.8003 305.35L259.055 209.636C260.367 208.881 261.403 207.726 262.011 206.34C262.619 204.953 262.767 203.409 262.434 201.933L223.97 31.6856C223.724 30.6031 223.228 29.5933 222.522 28.7375C221.815 27.8818 220.917 27.2038 219.901 26.7583C218.884 26.3128 217.777 26.1122 216.669 26.1726C215.561 26.233 214.482 26.5527 213.52 27.1061L47.2668 122.82Z" fill="url(#paint21_linear_253_4)"/>
<path d="M48.2563 139.31L223.574 39.2456" stroke="#A8BCF2" stroke-miterlimit="10" stroke-linecap="round"/>
<path d="M53.5594 129.914C54.3732 129.914 55.0329 128.877 55.0329 127.598C55.0329 126.319 54.3732 125.283 53.5594 125.283C52.7456 125.283 52.0859 126.319 52.0859 127.598C52.0859 128.877 52.7456 129.914 53.5594 129.914Z" fill="#B0C3F4"/>
<path d="M60.5028 126.129C61.3166 126.129 61.9763 125.092 61.9763 123.814C61.9763 122.535 61.3166 121.498 60.5028 121.498C59.689 121.498 59.0293 122.535 59.0293 123.814C59.0293 125.092 59.689 126.129 60.5028 126.129Z" fill="#B0C3F4"/>
<path d="M68.4947 122.34C69.3085 122.34 69.9682 121.303 69.9682 120.024C69.9682 118.746 69.3085 117.709 68.4947 117.709C67.6809 117.709 67.0212 118.746 67.0212 120.024C67.0212 121.303 67.6809 122.34 68.4947 122.34Z" fill="#B0C3F4"/>
<path d="M119.045 313.456V313.475L101.06 299.208C101.06 299.208 66.9438 154.07 66.3233 149.727C65.7028 145.384 68.7733 142.448 77.7733 138.024L84.7883 169.044L104.048 254.294L116.556 309.668C116.891 311.194 117.777 312.542 119.045 313.453V313.456Z" fill="url(#paint22_linear_253_4)"/>
<path d="M293.5 217.381L125.985 313.814C125.118 314.315 124.145 314.604 123.145 314.659C122.145 314.715 121.146 314.534 120.229 314.132C119.312 313.73 118.502 313.119 117.865 312.346C117.227 311.574 116.78 310.662 116.56 309.685L104.052 254.311L84.7927 169.061L77.7757 138.039C77.4759 136.708 77.6103 135.316 78.1592 134.066C78.708 132.817 79.6424 131.776 80.8257 131.096L248.345 34.6394C249.212 34.1398 250.184 33.851 251.184 33.7962C252.183 33.7414 253.182 33.9222 254.098 34.324C255.015 34.7257 255.824 35.3372 256.461 36.1092C257.098 36.8812 257.545 37.7921 257.766 38.7684L296.543 210.434C296.844 211.765 296.711 213.158 296.163 214.408C295.616 215.658 294.682 216.7 293.5 217.381Z" fill="url(#paint23_linear_253_4)"/>
<path d="M81.0283 151.183L256.346 51.1187" stroke="#A8BCF2" stroke-miterlimit="10" stroke-linecap="round"/>
<path d="M251.084 337.672L252.58 338.536L306.724 369.798L374.079 330.91L376.276 329.644L320.632 297.517L251.084 337.672Z" fill="url(#paint24_linear_253_4)"/>
<path d="M251.084 337.672L252.58 338.536L320.38 299.615L374.077 330.91L376.275 329.643L320.632 297.517L251.084 337.672Z" fill="url(#paint25_linear_253_4)"/>
<path d="M56.3447 305.549V311.535C56.3443 313.163 56.778 314.76 57.6013 316.164C58.4245 317.568 59.6073 318.726 61.0277 319.52L227.508 412.585C230.455 414.232 233.778 415.086 237.154 415.063C240.529 415.039 243.84 414.14 246.764 412.452L440.403 300.656C441.466 300.043 442.375 299.197 443.064 298.182C443.753 297.167 444.203 296.009 444.381 294.795L445.119 289.672L240.569 407.995C239.538 408.59 238.368 408.903 237.177 408.903C235.986 408.903 234.817 408.59 233.785 407.995L56.3447 305.549Z" fill="url(#paint26_linear_253_4)"/>
<path d="M126.292 74.8987C128.464 74.8987 130.225 72.2565 130.225 68.9972C130.225 65.7379 128.464 63.0957 126.292 63.0957C124.12 63.0957 122.359 65.7379 122.359 68.9972C122.359 72.2565 124.12 74.8987 126.292 74.8987Z" stroke="#2E6EE8" stroke-miterlimit="10" stroke-linecap="round"/>
<path d="M122.551 71.3711L17.7817 131.761" stroke="#2E6EE8" stroke-miterlimit="10" stroke-linecap="round"/>
<path d="M224.678 12.5068L129.881 67.1458" stroke="#2E6EE8" stroke-miterlimit="10" stroke-linecap="round"/>
<path d="M283.377 111.293V141.543L309.568 126.427L309.557 96.1885L283.377 111.293Z" fill="url(#paint27_linear_253_4)"/>
<path d="M283.377 141.544L257.259 126.487V96.1523L283.377 111.294V141.544Z" fill="url(#paint28_linear_253_4)"/>
<path d="M257.259 96.1514L283.414 81.0874L309.557 96.1874L283.377 111.292L257.259 96.1514Z" fill="url(#paint29_linear_253_4)"/>
<path d="M91.5732 223.84V254.09L117.765 238.974L117.754 208.735L91.5732 223.84Z" fill="url(#paint30_linear_253_4)"/>
<path d="M91.5733 254.091L65.4558 239.034V208.699L91.5733 223.841V254.091Z" fill="url(#paint31_linear_253_4)"/>
<path d="M65.4558 208.698L91.6058 193.634L117.753 208.734L91.5723 223.839L65.4558 208.698Z" fill="url(#paint32_linear_253_4)"/>
<path style="mix-blend-mode:multiply" opacity="0.42" d="M270.259 116.652H270.329C270.577 116.652 270.815 116.751 270.99 116.926C271.165 117.101 271.264 117.339 271.264 117.587V132.942H269.329V117.583C269.33 117.336 269.428 117.1 269.602 116.926C269.777 116.752 270.013 116.653 270.259 116.652Z" fill="url(#paint33_linear_253_4)"/>
<path d="M199.628 168.248V221.775L245.973 195.03L245.954 141.521L199.628 168.248Z" fill="url(#paint34_linear_253_4)"/>
<path d="M237.439 136.433L270.329 117.243" stroke="white" stroke-width="2" stroke-miterlimit="10" stroke-linecap="round"/>
<path d="M199.628 221.776L153.417 195.134V141.455L199.628 168.249V221.776Z" fill="url(#paint35_linear_253_4)"/>
<path d="M153.417 141.455L199.692 114.802L245.955 141.522L199.629 168.249L153.417 141.455Z" fill="url(#paint36_linear_253_4)"/>
<path d="M199.692 114.802C195.895 117.133 192.066 119.402 188.242 121.702L176.765 128.512C172.939 130.787 169.087 133.012 165.246 135.262L153.696 141.95L153.973 141.47L153.944 154.891C153.911 159.363 153.911 163.841 153.844 168.311L153.694 181.732C153.601 186.204 153.544 190.676 153.42 195.149C153.295 190.676 153.239 186.204 153.147 181.732L152.992 168.311C152.929 163.839 152.929 159.361 152.896 154.891L152.866 141.47V141.153L153.143 140.994L164.728 134.344C168.599 132.128 172.458 129.912 176.347 127.763L187.991 121.233C191.888 119.09 195.773 116.918 199.692 114.802Z" fill="white"/>
<path style="mix-blend-mode:multiply" opacity="0.42" d="M172.946 173.271H173.005C173.128 173.271 173.25 173.295 173.363 173.342C173.476 173.389 173.579 173.457 173.666 173.544C173.753 173.631 173.822 173.734 173.869 173.847C173.916 173.961 173.94 174.082 173.94 174.205V204.281H172.005V174.202C172.005 174.079 172.03 173.957 172.078 173.843C172.125 173.73 172.195 173.627 172.282 173.541C172.37 173.454 172.474 173.386 172.588 173.34C172.701 173.293 172.823 173.27 172.946 173.271Z" fill="url(#paint37_linear_253_4)"/>
<path d="M115.379 207.181L173.242 173.588" stroke="white" stroke-width="2" stroke-miterlimit="10" stroke-linecap="round"/>
<path d="M146.936 321.6L130.686 310.189L286.912 223.054L296.595 239.337L154.485 321.925C153.326 322.597 152 322.923 150.663 322.865C149.325 322.808 148.032 322.369 146.936 321.6Z" fill="url(#paint38_linear_253_4)"/>
<path d="M226.555 221.388C226.437 221.327 226.306 221.295 226.173 221.295C226.04 221.295 225.909 221.327 225.791 221.388C222.275 222.95 221.101 234.495 217.574 237.188L150.824 275.638C150.469 275.843 150.174 276.137 149.968 276.491C149.763 276.846 149.654 277.248 149.653 277.658L149.59 320.72C149.588 321.307 149.808 321.873 150.205 322.306C150.602 322.738 151.147 323.005 151.732 323.054C149.926 323.094 146.894 320.757 146.898 319.183L146.965 276.122C146.965 275.712 147.073 275.309 147.278 274.954C147.483 274.598 147.777 274.303 148.132 274.098L214.884 235.648C218.411 232.956 219.017 222.175 222.534 220.613C223.66 220.099 225.115 219.73 226.555 221.388Z" fill="white"/>
<path d="M316.692 182.101C316.344 181.663 315.849 181.365 315.299 181.261C314.75 181.157 314.181 181.255 313.697 181.536L231.263 229.286C230.155 229.907 229.468 228.965 228.944 227.532L311.009 179.996C312.489 179.143 316.326 180.425 316.692 182.101Z" fill="url(#paint39_linear_253_4)"/>
<path d="M317.308 226.226C317.309 226.638 317.202 227.042 316.997 227.399C316.792 227.755 316.497 228.052 316.14 228.258L153.102 322.745C152.689 322.988 152.21 323.095 151.732 323.051C151.488 323.029 151.249 322.969 151.023 322.874C150.596 322.699 150.231 322.399 149.976 322.015C149.721 321.63 149.586 321.178 149.59 320.717L149.653 277.655C149.654 277.245 149.763 276.843 149.968 276.489C150.174 276.134 150.469 275.84 150.824 275.635L217.574 237.185C221.101 234.493 222.274 222.948 225.791 221.385C225.909 221.324 226.04 221.292 226.173 221.292C226.306 221.292 226.437 221.324 226.555 221.385C227.689 221.991 228.132 225.329 228.934 227.523C229.458 228.956 230.134 229.898 231.253 229.277L271.758 205.815L313.708 181.533C314.192 181.252 314.761 181.154 315.311 181.258C315.861 181.362 316.355 181.66 316.703 182.098C317.038 182.509 317.221 183.023 317.22 183.553L317.308 226.226Z" fill="url(#paint40_linear_253_4)"/>
<path d="M317.209 183.558L317.309 226.228C317.31 226.639 317.203 227.043 316.998 227.4C316.793 227.756 316.498 228.053 316.142 228.259L153.103 322.745C152.69 322.988 152.211 323.095 151.733 323.051C151.489 323.029 151.25 322.969 151.024 322.874C197.882 291.224 249.024 249.669 271.77 205.824L313.712 181.538C314.196 181.257 314.765 181.159 315.315 181.263C315.865 181.367 316.359 181.665 316.707 182.103C317.036 182.516 317.213 183.029 317.209 183.558Z" fill="url(#paint41_linear_253_4)"/>
<path d="M190.717 258.108V295.043" stroke="#707070" stroke-miterlimit="10" stroke-linecap="round"/>
<path d="M232.507 233.689V270.624" stroke="#707070" stroke-miterlimit="10" stroke-linecap="round"/>
<path d="M274.299 209.522V246.457" stroke="#707070" stroke-miterlimit="10" stroke-linecap="round"/>
<path d="M453.468 200.058V243.965C453.468 245.937 451.053 248.23 449.195 247.839C449.727 247.632 450.184 247.269 450.505 246.798C450.827 246.326 450.997 245.769 450.995 245.198V201.295C450.995 199.838 450.61 198.407 449.879 197.148C449.148 195.888 448.097 194.844 446.832 194.122L408.739 172.352C408.144 172.013 407.446 171.901 406.775 172.037C406.104 172.173 405.505 172.547 405.089 173.091C405.72 171.244 409.483 170.136 411.212 171.13L449.306 192.897C450.569 193.618 451.618 194.66 452.349 195.918C453.08 197.175 453.466 198.603 453.468 200.058Z" fill="#94B0F5"/>
<path d="M450.996 201.293V245.211C450.996 245.708 450.867 246.196 450.619 246.627C450.372 247.058 450.016 247.416 449.586 247.666C449.157 247.915 448.669 248.047 448.172 248.049C447.676 248.051 447.187 247.922 446.756 247.675L405.929 224.325C405.495 224.077 405.134 223.72 404.883 223.288C404.632 222.856 404.5 222.365 404.5 221.865V174.814C404.496 174.185 404.704 173.574 405.091 173.078C405.507 172.535 406.106 172.16 406.777 172.025C407.448 171.889 408.146 172.001 408.741 172.339L446.835 194.11C447.696 194.6 448.461 195.244 449.091 196.01C450.326 197.493 451 199.363 450.996 201.293Z" fill="url(#paint42_linear_253_4)"/>
<path d="M450.996 201.294V245.212C450.996 245.709 450.867 246.197 450.619 246.628C450.372 247.059 450.016 247.417 449.586 247.666C449.157 247.916 448.669 248.048 448.172 248.05C447.676 248.051 447.187 247.922 446.756 247.676L405.929 224.326C405.495 224.078 405.134 223.72 404.883 223.288C404.632 222.856 404.5 222.366 404.5 221.866V219.071C422.666 216.275 437.819 208.494 449.09 196.021C450.323 197.501 450.997 199.367 450.996 201.294Z" fill="url(#paint43_linear_253_4)"/>
<path d="M453.469 115.233V159.162C453.469 161.13 451.054 163.424 449.196 163.036C449.728 162.828 450.184 162.464 450.505 161.992C450.827 161.52 450.998 160.962 450.996 160.392V116.472C450.995 115.017 450.609 113.588 449.878 112.33C449.148 111.072 448.097 110.029 446.834 109.308L408.74 87.5186C408.145 87.1798 407.447 87.0679 406.776 87.2037C406.105 87.3394 405.506 87.7136 405.09 88.2571C405.721 86.4106 409.484 85.3026 411.213 86.2961L449.307 108.063C450.571 108.786 451.622 109.83 452.353 111.089C453.084 112.349 453.469 113.779 453.469 115.235V115.233Z" fill="#94B0F5"/>
<path d="M450.996 116.475V160.378C450.996 160.875 450.867 161.363 450.619 161.794C450.372 162.225 450.016 162.583 449.586 162.832C449.157 163.082 448.669 163.214 448.172 163.216C447.676 163.217 447.187 163.088 446.756 162.842L405.929 139.509C405.495 139.261 405.134 138.903 404.883 138.471C404.632 138.039 404.5 137.549 404.5 137.049V89.997C404.496 89.3684 404.704 88.7569 405.091 88.261C405.507 87.7176 406.106 87.3434 406.777 87.2076C407.448 87.0719 408.146 87.1837 408.741 87.5225L446.835 109.312C448.099 110.034 449.15 111.078 449.881 112.337C450.612 113.597 450.997 115.027 450.997 116.484L450.996 116.475Z" fill="url(#paint44_linear_253_4)"/>
<path d="M450.996 116.475V160.378C450.996 160.875 450.867 161.363 450.619 161.794C450.372 162.225 450.016 162.583 449.586 162.832C449.157 163.082 448.669 163.214 448.172 163.216C447.676 163.217 447.187 163.088 446.756 162.842L405.929 139.509C405.495 139.261 405.134 138.903 404.883 138.471C404.632 138.039 404.5 137.549 404.5 137.049V133.338C418.334 130.878 436.116 122.259 448.687 110.747C450.169 112.285 450.997 114.339 450.995 116.475L450.996 116.475Z" fill="url(#paint45_linear_253_4)"/>
<path d="M420.675 221.513L416.075 207.066L420.65 205.611L423.405 214.275L438.277 205.349L440.748 209.463L420.675 221.513Z" fill="#3433A0"/>
<path d="M334.734 271.625C334.692 271.661 334.639 271.682 334.583 271.684L334.734 271.625Z" fill="url(#paint46_linear_253_4)"/>
<path style="mix-blend-mode:multiply" opacity="0.42" d="M225.38 171.483L229.55 204.277L240.585 198.261L225.38 171.483Z" fill="url(#paint47_linear_253_4)"/>
<path d="M227.474 47.1011L84.3267 129.088L80.8267 131.097C80.8267 131.097 76.7642 133.368 77.7797 138.043C78.7952 142.718 89.2277 188.821 89.2277 188.821C89.2277 188.821 79.3337 143.038 79.1457 138.485C78.9577 133.931 80.4717 132.985 84.4527 130.522C88.4337 128.06 227.474 47.1011 227.474 47.1011Z" fill="url(#paint48_linear_253_4)"/>
<path d="M193.316 38.5142L50.1724 120.501L46.6724 122.506C46.6724 122.506 42.6099 124.778 43.6254 129.453C44.6409 134.128 62.8289 215.159 62.8289 215.159C62.8289 215.159 45.1834 134.464 44.9914 129.914C44.7994 125.364 46.3209 124.419 50.3019 121.952C54.2829 119.485 193.316 38.5142 193.316 38.5142Z" fill="url(#paint49_linear_253_4)"/>
<path d="M173.334 153.229L199.851 167.654L199.304 168.618L173.334 153.229Z" fill="white"/>
<path d="M91.7724 224.557L72.4224 212.828L92.3224 223.597L91.7724 224.557Z" fill="white"/>
<path d="M245.955 141.521C242.155 143.858 238.322 146.13 234.505 148.438L223.001 155.252C219.172 157.534 215.316 159.765 211.468 162.017L199.905 168.728L200.182 168.248L200.152 181.628C200.119 186.089 200.115 190.55 200.052 195.011L199.897 208.391C199.805 212.853 199.753 217.314 199.628 221.775C199.502 217.314 199.447 212.852 199.354 208.391L199.199 195.011C199.136 190.55 199.136 186.089 199.103 181.628L199.074 168.248V167.926L199.351 167.767L210.947 161.117C214.825 158.92 218.703 156.686 222.577 154.521L234.236 147.971C238.144 145.823 242.033 143.652 245.955 141.521Z" fill="white"/>
<path d="M117.51 209.533C115.416 210.841 113.292 212.083 111.183 213.359C109.074 214.635 106.94 215.863 104.805 217.089C102.671 218.315 100.532 219.539 98.3975 220.764L91.957 224.379L92.2415 223.899L92.164 230.377C92.1195 232.534 92.094 234.694 92.0275 236.851C91.961 239.008 91.898 241.168 91.8205 243.328C91.743 245.489 91.643 247.642 91.503 249.802C91.392 247.642 91.353 245.481 91.2775 243.325C91.202 241.168 91.185 239.004 91.163 236.847C91.141 234.691 91.1335 232.526 91.113 230.37L91.1315 223.892V223.567L91.416 223.412L97.8865 219.848C100.055 218.678 102.211 217.492 104.387 216.34C106.562 215.187 108.737 214.028 110.92 212.89C113.103 211.752 115.294 210.623 117.51 209.533Z" fill="white"/>
<path d="M283.548 112.046L264.198 100.317L284.098 111.086L283.548 112.046Z" fill="white"/>
<path d="M309.28 97.0239C307.19 98.3314 305.063 99.5739 302.958 100.85C300.853 102.126 298.714 103.354 296.58 104.58C294.445 105.806 292.307 107.03 290.169 108.251L283.732 111.87L284.016 111.39L283.939 117.867C283.894 120.024 283.869 122.184 283.802 124.341C283.736 126.498 283.673 128.658 283.592 130.819C283.51 132.979 283.418 135.132 283.274 137.293C283.163 135.132 283.124 132.972 283.049 130.811C282.973 128.651 282.956 126.494 282.934 124.334C282.912 122.173 282.905 120.017 282.89 117.86L282.908 111.382V111.057L283.193 110.902L289.663 107.338C291.827 106.168 293.984 104.982 296.163 103.83C298.342 102.677 300.513 101.518 302.696 100.377C304.879 99.2359 307.065 98.1134 309.28 97.0239Z" fill="white"/>
<path d="M56.3447 305.55L64.2112 309.982L72.0662 314.413L87.7767 323.277L119.131 341.144C129.594 347.079 140.001 353.109 150.434 359.094L181.722 377.079L212.939 395.175L228.55 404.225L232.45 406.489L234.403 407.619L235.378 408.188C235.521 408.275 235.669 408.353 235.821 408.42C235.964 408.489 236.112 408.544 236.264 408.586C237.033 408.816 237.86 408.756 238.587 408.416C238.741 408.344 238.891 408.264 239.037 408.176L240.016 407.619L243.938 405.403L275.292 387.539L291.003 378.676L298.858 374.244L306.724 369.831L298.969 374.436L291.213 379.023L275.673 388.153L244.525 406.374L240.629 408.653L239.658 409.221C239.503 409.31 239.314 409.421 239.119 409.517C238.923 409.61 238.72 409.689 238.513 409.753C237.673 410.014 236.775 410.025 235.928 409.786C235.719 409.727 235.514 409.653 235.315 409.565C235.125 409.478 234.94 409.381 234.761 409.273L233.783 408.712L231.829 407.604L227.918 405.354L212.274 396.361L180.99 378.378L149.772 360.282C139.369 354.24 128.943 348.239 118.572 342.149L87.4222 323.927L71.8777 314.76L64.1222 310.177L56.3447 305.55Z" fill="white"/>
<path d="M340.549 309.169L349.534 314.177C352.534 315.846 355.527 317.527 358.512 319.218L367.479 324.274L376.429 329.359H376.126L393.317 319.329L410.553 309.357C416.292 306.034 422.068 302.754 427.822 299.457C430.697 297.808 433.582 296.168 436.475 294.538L445.142 289.649L436.6 294.753C433.749 296.453 430.896 298.146 428.04 299.831C422.319 303.191 416.617 306.585 410.878 309.917L393.686 319.951L376.454 329.922L376.288 330.018L376.126 329.926L367.214 324.772L358.314 319.602C355.345 317.879 352.383 316.147 349.428 314.406L340.549 309.169Z" fill="#ADC2F7"/>
<path d="M416.077 207.067C416.815 206.775 417.577 206.502 418.33 206.228C419.083 205.955 419.833 205.674 420.59 205.412L420.782 205.346L420.852 205.549C421.358 206.974 421.845 208.411 422.329 209.849C422.812 211.287 423.289 212.722 423.747 214.166L423.219 213.966C424.452 213.227 425.692 212.488 426.938 211.75C428.182 211.011 429.434 210.273 430.683 209.563C431.931 208.854 433.194 208.13 434.457 207.429C435.72 206.727 436.991 206.029 438.276 205.364C437.083 206.184 435.868 206.967 434.656 207.761C433.445 208.555 432.223 209.32 430.996 210.092C429.77 210.864 428.546 211.621 427.303 212.363C426.06 213.105 424.833 213.866 423.588 214.579L423.193 214.811L423.056 214.379C422.598 212.935 422.159 211.484 421.719 210.036C421.28 208.589 420.859 207.13 420.445 205.671L420.707 205.808C419.939 206.029 419.164 206.232 418.392 206.447C417.62 206.661 416.856 206.871 416.077 207.067Z" fill="#ADC2F7"/>
<path d="M254.723 244.939C254.822 245.063 254.889 245.21 254.916 245.366C254.943 245.522 254.93 245.683 254.878 245.833L254.623 247.059C254.495 247.619 254.154 248.107 253.673 248.421L252.621 249.027C252.181 249.282 251.79 249.177 251.664 248.768L251.384 247.849C251.306 247.485 251.359 247.106 251.534 246.778C251.702 246.398 251.981 246.078 252.334 245.858L253.937 244.931C254.051 244.846 254.189 244.801 254.331 244.803C254.473 244.804 254.611 244.852 254.723 244.939ZM254.483 245.925C254.513 245.84 254.521 245.748 254.505 245.659C254.49 245.57 254.452 245.486 254.395 245.416C254.328 245.361 254.246 245.332 254.16 245.332C254.075 245.332 253.992 245.361 253.926 245.416L252.319 246.343C252.113 246.471 251.95 246.657 251.85 246.878C251.751 247.068 251.72 247.285 251.762 247.495L252.042 248.415C252.112 248.651 252.345 248.71 252.604 248.565L253.654 247.955C253.933 247.773 254.132 247.49 254.208 247.165L254.481 245.924" fill="#3433A0"/>
<path d="M254.483 245.925C254.513 245.84 254.521 245.748 254.505 245.659C254.49 245.57 254.452 245.486 254.395 245.416C254.328 245.361 254.246 245.332 254.16 245.332C254.075 245.332 253.992 245.361 253.926 245.416L252.319 246.343C252.113 246.471 251.95 246.657 251.85 246.878C251.751 247.068 251.72 247.285 251.762 247.495L252.042 248.415C252.112 248.651 252.345 248.71 252.604 248.565L253.654 247.955C253.933 247.773 254.132 247.49 254.208 247.165L254.481 245.924M254.723 244.939C254.822 245.063 254.889 245.21 254.916 245.366C254.943 245.522 254.93 245.683 254.878 245.833L254.623 247.059C254.495 247.619 254.154 248.107 253.673 248.421L252.621 249.027C252.181 249.282 251.79 249.177 251.664 248.768L251.384 247.849C251.306 247.485 251.359 247.106 251.534 246.778C251.702 246.398 251.981 246.078 252.334 245.858L253.937 244.931C254.051 244.846 254.189 244.801 254.331 244.803C254.473 244.804 254.611 244.852 254.723 244.939Z" stroke="#3433A0" stroke-width="0.5" stroke-miterlimit="10"/>
<path d="M255.59 241.866C255.79 241.751 255.96 241.844 255.96 242.076C255.952 242.202 255.914 242.325 255.85 242.434C255.786 242.543 255.697 242.635 255.59 242.704C255.388 242.818 255.221 242.726 255.221 242.497C255.229 242.37 255.267 242.247 255.331 242.137C255.395 242.028 255.484 241.935 255.59 241.866Z" fill="#3433A0" stroke="#3433A0" stroke-width="0.5" stroke-miterlimit="10"/>
<path d="M250.634 244.728C250.837 244.614 251.003 244.706 251.003 244.938C250.995 245.065 250.958 245.188 250.894 245.297C250.83 245.406 250.741 245.498 250.634 245.566C250.434 245.68 250.265 245.588 250.265 245.356C250.273 245.229 250.31 245.107 250.375 244.998C250.439 244.889 250.527 244.797 250.634 244.728Z" fill="#3433A0" stroke="#3433A0" stroke-width="0.5" stroke-miterlimit="10"/>
<path d="M248.016 237.265L248.234 237.542C245.549 241.006 243.953 245.238 243.965 248.865C243.965 252 245.195 254.238 247.318 254.999L247.396 255.025V256.568C247.396 256.968 247.68 257.126 248.027 256.938L248.827 256.476C248.989 256.374 249.128 256.239 249.236 256.08C249.343 255.921 249.417 255.742 249.451 255.553L249.507 255.253L249.728 255.227C250.711 255.105 251.789 254.489 252.928 253.824L253.142 253.706L253.349 253.584C254.446 253.008 255.454 252.276 256.341 251.412L256.562 251.183L256.618 251.42C256.684 251.708 256.935 251.789 257.231 251.623L258.031 251.161C258.213 251.042 258.364 250.882 258.473 250.693C258.581 250.504 258.644 250.293 258.655 250.076V248.535L258.732 248.42C260.845 245.215 262.056 241.573 262.056 238.449C262.056 234.922 260.501 232.54 257.924 232.111L258.149 231.583C260.845 232.045 262.459 234.538 262.47 238.209C262.47 241.448 261.244 245.203 259.087 248.527V249.846C259.068 250.206 258.963 250.558 258.782 250.87C258.601 251.183 258.349 251.449 258.046 251.646L257.246 252.107C256.84 252.344 256.481 252.285 256.308 251.978C255.357 252.848 254.298 253.593 253.158 254.194L252.925 254.331C251.955 254.971 250.889 255.453 249.768 255.76C249.608 256.258 249.278 256.685 248.837 256.967L248.028 257.399C247.456 257.732 246.987 257.462 246.983 256.805V255.485C244.812 254.661 243.563 252.342 243.556 249.099C243.543 245.312 245.209 240.888 248.016 237.265Z" fill="#3433A0" stroke="#3433A0" stroke-width="0.5" stroke-miterlimit="10"/>
<path d="M252.963 227.967C255.263 226.634 257.144 227.705 257.151 230.349C257.159 232.993 255.305 236.229 252.989 237.558C250.674 238.888 248.809 237.817 248.801 235.173C248.794 232.529 250.659 229.295 252.963 227.967ZM252.989 237.085C254.081 236.374 254.99 235.415 255.642 234.286C256.294 233.157 256.67 231.891 256.739 230.589C256.736 228.204 255.039 227.239 252.961 228.439C251.869 229.15 250.959 230.109 250.308 231.238C249.656 232.366 249.28 233.633 249.211 234.935C249.219 237.321 250.911 238.281 252.986 237.085" fill="#3433A0"/>
<path d="M252.989 237.085C254.081 236.374 254.99 235.415 255.642 234.286C256.294 233.157 256.67 231.891 256.739 230.589C256.736 228.204 255.039 227.239 252.961 228.439C251.869 229.15 250.959 230.109 250.308 231.238C249.656 232.366 249.28 233.633 249.211 234.935C249.219 237.321 250.911 238.281 252.986 237.085M252.963 227.967C255.263 226.634 257.144 227.705 257.151 230.349C257.159 232.993 255.305 236.229 252.989 237.558C250.674 238.888 248.809 237.817 248.801 235.173C248.794 232.529 250.659 229.295 252.963 227.967Z" stroke="#3433A0" stroke-width="0.5" stroke-miterlimit="10"/>
<path d="M304.604 203.705C306.243 205.467 306.247 209.116 304.604 212.779C303.285 215.734 301.162 218.229 298.92 219.527C298.469 219.788 297.995 220.006 297.502 220.177L293.03 230.809C292.692 231.633 292.158 232.362 291.475 232.933C291.325 233.055 291.166 233.164 290.998 233.261C290.598 233.523 290.116 233.628 289.643 233.557L288.764 233.368C288.488 233.294 288.242 233.135 288.061 232.912C287.881 232.69 287.775 232.417 287.759 232.131C287.671 231.319 287.823 230.498 288.195 229.771L293.114 219.221C291.607 217.375 291.637 213.907 293.247 210.321C294.555 207.367 296.726 204.855 298.972 203.559C299.49 203.257 300.041 203.016 300.615 202.843L300.903 202.758L296.782 212.046C296.54 212.541 296.447 213.095 296.512 213.641C296.526 213.834 296.601 214.018 296.724 214.166C296.848 214.315 297.016 214.421 297.203 214.469L297.997 214.642C298.323 214.69 298.656 214.616 298.931 214.435C299.545 214.044 300.025 213.477 300.309 212.807L304.43 203.519L304.604 203.705ZM304.282 212.713C305.759 209.389 305.804 206.095 304.432 204.374L300.651 212.894C300.302 213.731 299.705 214.441 298.941 214.929C298.598 215.157 298.182 215.25 297.774 215.187L296.98 215.017C296.746 214.955 296.537 214.821 296.383 214.634C296.229 214.448 296.137 214.217 296.119 213.976C296.033 213.298 296.149 212.609 296.452 211.996L300.233 203.473C299.798 203.629 299.378 203.824 298.978 204.056C296.869 205.275 294.828 207.646 293.597 210.416C292.075 213.85 292.053 217.166 293.547 218.873L293.624 218.965L288.535 229.878C288.225 230.484 288.097 231.166 288.166 231.843C288.177 232.08 288.264 232.306 288.414 232.49C288.563 232.673 288.768 232.804 288.997 232.863L289.876 233.055C290.263 233.11 290.657 233.022 290.984 232.807C291.122 232.727 291.254 232.637 291.379 232.538C291.944 232.063 292.386 231.459 292.668 230.776L297.314 219.767L297.454 219.723C297.969 219.558 298.464 219.337 298.931 219.065C301.036 217.85 303.034 215.513 304.275 212.721" fill="#3433A0"/>
<path d="M304.282 212.713C305.759 209.389 305.804 206.095 304.432 204.374L300.651 212.894C300.302 213.731 299.705 214.441 298.941 214.929C298.598 215.157 298.182 215.25 297.774 215.187L296.98 215.017C296.746 214.955 296.537 214.821 296.383 214.634C296.229 214.448 296.137 214.217 296.119 213.976C296.033 213.298 296.149 212.609 296.452 211.996L300.233 203.473C299.798 203.629 299.378 203.824 298.978 204.056C296.869 205.275 294.828 207.646 293.597 210.416C292.075 213.85 292.053 217.166 293.547 218.873L293.624 218.965L288.535 229.878C288.225 230.484 288.097 231.166 288.166 231.843C288.177 232.08 288.264 232.306 288.414 232.49C288.563 232.673 288.768 232.804 288.997 232.863L289.876 233.055C290.263 233.11 290.657 233.022 290.984 232.807C291.122 232.727 291.254 232.637 291.379 232.538C291.944 232.063 292.386 231.459 292.668 230.776L297.314 219.767L297.454 219.723C297.969 219.558 298.464 219.337 298.931 219.065C301.036 217.85 303.034 215.513 304.275 212.721M304.604 203.705C306.243 205.467 306.247 209.116 304.604 212.779C303.285 215.734 301.162 218.229 298.92 219.527C298.469 219.788 297.995 220.006 297.502 220.177L293.03 230.809C292.692 231.633 292.158 232.362 291.475 232.933C291.325 233.055 291.166 233.164 290.998 233.261C290.598 233.523 290.116 233.628 289.643 233.557L288.764 233.368C288.488 233.294 288.242 233.135 288.061 232.912C287.881 232.69 287.775 232.417 287.759 232.131C287.671 231.319 287.823 230.498 288.195 229.771L293.114 219.221C291.607 217.375 291.637 213.907 293.247 210.321C294.555 207.367 296.726 204.855 298.972 203.559C299.49 203.257 300.041 203.016 300.615 202.843L300.903 202.758L296.782 212.046C296.54 212.541 296.447 213.095 296.512 213.641C296.526 213.834 296.601 214.018 296.724 214.166C296.848 214.315 297.016 214.421 297.203 214.469L297.997 214.642C298.323 214.69 298.656 214.616 298.931 214.435C299.545 214.044 300.025 213.477 300.309 212.807L304.43 203.519L304.604 203.705Z" stroke="#3433A0" stroke-width="0.5" stroke-miterlimit="10"/>
<path d="M180.056 285.097C180.211 285.215 180.335 285.37 180.417 285.547C180.499 285.723 180.537 285.918 180.528 286.113C180.526 286.411 180.457 286.704 180.328 286.973L176.178 296.092C175.572 297.486 174.574 298.674 173.305 299.512C173.185 299.579 173.062 299.639 172.936 299.693C172.833 299.594 172.705 299.528 172.566 299.501L172.038 299.372C172.476 299.39 172.909 299.274 173.279 299.039C174.4 298.296 175.283 297.244 175.82 296.011L179.97 286.893C180.05 286.723 180.092 286.537 180.092 286.35C180.097 286.124 180.021 285.904 179.878 285.729C179.815 285.65 179.735 285.585 179.645 285.54C179.554 285.495 179.455 285.47 179.354 285.467C179.211 285.467 179.07 285.505 178.948 285.578C178.752 285.7 178.588 285.867 178.471 286.066C178.549 285.877 178.63 285.696 178.693 285.56C178.75 285.432 178.8 285.301 178.843 285.168L178.943 285.105C179.124 284.996 179.331 284.938 179.543 284.935C179.726 284.935 179.905 284.992 180.056 285.097Z" fill="#3433A0" stroke="#3433A0" stroke-width="0.5" stroke-miterlimit="10"/>
<path d="M165.915 298.308C166.064 298.22 166.226 298.155 166.395 298.116C166.543 298.081 166.697 298.081 166.845 298.116L167.831 298.356L172.059 299.382L172.587 299.511C172.726 299.538 172.855 299.605 172.957 299.703C173.179 299.953 173.293 300.281 173.274 300.615C173.263 301.042 173.163 301.463 172.979 301.849L171.786 304.471C171.517 305.093 171.068 305.621 170.496 305.986C170.223 306.166 169.892 306.235 169.569 306.178L169.687 305.915L169.809 305.653C170.047 305.694 170.292 305.643 170.492 305.509C170.916 305.244 171.251 304.858 171.452 304.401L172.645 301.779C172.781 301.492 172.855 301.18 172.863 300.863C172.891 300.689 172.857 300.511 172.765 300.361C172.673 300.21 172.531 300.098 172.363 300.043L171.85 299.921L167.603 298.887L166.62 298.651C166.382 298.609 166.138 298.661 165.937 298.795C165.513 299.059 165.178 299.445 164.977 299.903L163.773 302.525C163.637 302.81 163.562 303.121 163.555 303.437C163.555 303.858 163.728 304.175 164.05 304.253L169.796 305.65L169.674 305.912L169.556 306.174L163.813 304.778C163.377 304.675 163.145 304.246 163.141 303.67C163.152 303.243 163.253 302.822 163.437 302.437L164.63 299.815C164.9 299.196 165.347 298.672 165.915 298.308Z" fill="#3433A0" stroke="#3433A0" stroke-width="0.5" stroke-miterlimit="10"/>
<path d="M167.95 298.972C167.821 298.943 167.703 298.909 167.581 298.872L171.828 299.906C171.763 299.899 171.698 299.887 171.636 299.869C170.247 299.533 169.272 299.297 167.95 298.972Z" fill="#3433A0" stroke="#3433A0" stroke-width="0.5" stroke-miterlimit="10"/>
<path d="M177.625 283.42C177.767 283.313 177.937 283.251 178.115 283.243C178.292 283.235 178.468 283.281 178.619 283.376C178.754 283.495 178.86 283.644 178.927 283.812C178.994 283.979 179.021 284.16 179.006 284.34C179.002 284.623 178.955 284.905 178.866 285.174C178.823 285.307 178.773 285.438 178.716 285.566C178.653 285.699 178.572 285.883 178.472 286.101L176.888 289.576C176.853 289.656 176.795 289.724 176.722 289.772C176.685 289.794 176.642 289.803 176.6 289.798C176.507 289.776 176.485 289.639 176.55 289.495C176.55 289.454 176.919 288.704 177.318 287.811C177.716 286.917 178.182 285.911 178.374 285.484C178.512 285.202 178.587 284.893 178.595 284.579C178.605 284.447 178.584 284.314 178.535 284.19C178.485 284.067 178.409 283.956 178.311 283.867C178.207 283.801 178.086 283.769 177.963 283.774C177.841 283.778 177.722 283.82 177.624 283.893C177.317 284.095 177.058 284.362 176.867 284.676C176.848 284.701 176.826 284.724 176.804 284.746L177.136 284.007C177.184 283.9 177.225 283.791 177.258 283.679C177.371 283.58 177.493 283.493 177.624 283.42H177.625Z" fill="#3433A0" stroke="#3433A0" stroke-width="0.5" stroke-miterlimit="10"/>
<path d="M176.049 282.081C176.225 281.97 176.427 281.904 176.636 281.889C176.789 281.885 176.938 281.939 177.053 282.039C177.165 282.163 177.251 282.307 177.306 282.465C177.36 282.622 177.382 282.789 177.371 282.955C177.37 283.206 177.332 283.454 177.26 283.694C177.226 283.806 177.185 283.916 177.138 284.022L176.805 284.761C176.525 285.381 176.152 286.197 175.808 286.951L174.852 289.026C174.817 289.107 174.759 289.175 174.686 289.222C174.649 289.245 174.606 289.254 174.564 289.248C174.471 289.222 174.449 289.089 174.514 288.945C174.578 288.801 176.297 285.031 176.796 283.93C176.898 283.698 176.951 283.446 176.951 283.192C176.958 282.999 176.913 282.808 176.822 282.638C176.786 282.571 176.733 282.515 176.668 282.476C176.603 282.438 176.528 282.418 176.452 282.42C176.307 282.43 176.166 282.476 176.042 282.553C175.777 282.722 175.537 282.927 175.329 283.162L175.303 283.184C175.28 283.214 175.251 283.238 175.218 283.254C175.141 283.304 175.063 283.291 175.03 283.221C175.014 283.156 175.015 283.087 175.034 283.022C175.053 282.958 175.088 282.899 175.136 282.852C175.316 282.656 175.51 282.473 175.717 282.305C175.821 282.223 175.93 282.147 176.045 282.08L176.049 282.081Z" fill="#3433A0" stroke="#3433A0" stroke-width="0.5" stroke-miterlimit="10"/>
<path d="M166.793 297.728C167.075 298.028 167.434 298.244 167.831 298.352L166.845 298.112C166.697 298.077 166.543 298.077 166.395 298.112C166.081 297.657 165.927 297.11 165.956 296.558V296.491C165.956 295.753 166.022 294.131 166.106 292.429C166.189 290.726 166.279 288.994 166.327 288.056C166.36 287.438 166.535 286.836 166.841 286.298C167.078 285.847 167.428 285.466 167.856 285.19C168.043 285.066 168.268 285.012 168.491 285.035C168.593 285.053 168.688 285.096 168.769 285.161C168.85 285.225 168.913 285.309 168.953 285.405C169.322 286.125 170.061 287.48 170.397 288.112L170.43 288.175C171.316 286.225 174.83 278.506 175.567 276.896C175.694 276.609 175.865 276.342 176.073 276.106C176.246 275.909 176.448 275.74 176.673 275.606C176.925 275.449 177.218 275.372 177.515 275.384C177.635 275.388 177.752 275.42 177.857 275.478C177.962 275.536 178.052 275.618 178.12 275.717C178.224 275.882 178.276 276.075 178.27 276.271C178.258 276.612 178.174 276.947 178.023 277.253L175.723 282.303C175.516 282.471 175.322 282.654 175.143 282.85C175.094 282.897 175.059 282.955 175.04 283.02C175.021 283.085 175.02 283.154 175.036 283.219C175.069 283.289 175.147 283.3 175.224 283.252C175.257 283.235 175.286 283.211 175.309 283.182C175.259 283.315 175.191 283.474 175.121 283.629C173.943 286.214 172.934 288.429 172.883 288.541C172.848 288.624 172.788 288.693 172.713 288.741C172.695 288.752 172.676 288.76 172.656 288.764C172.636 288.768 172.615 288.767 172.595 288.763C172.502 288.741 172.48 288.604 172.545 288.46L177.686 277.171C177.788 276.963 177.847 276.737 177.859 276.506C177.865 276.375 177.83 276.246 177.759 276.136C177.696 276.041 177.602 275.969 177.493 275.933C177.355 275.898 177.212 275.891 177.071 275.914C176.931 275.937 176.796 275.989 176.677 276.066C176.518 276.159 176.374 276.277 176.253 276.416C176.108 276.579 175.99 276.763 175.903 276.963L170.563 288.688L170.36 289.135L170.21 288.858C170.154 288.751 169.069 286.772 168.577 285.804C168.55 285.741 168.508 285.686 168.454 285.643C168.401 285.6 168.338 285.57 168.271 285.557C168.125 285.544 167.98 285.581 167.857 285.66C167.554 285.859 167.308 286.133 167.141 286.454C166.893 286.888 166.751 287.373 166.727 287.872C166.683 288.814 166.587 290.553 166.506 292.241C166.425 293.929 166.356 295.565 166.356 296.259C166.354 296.281 166.354 296.303 166.356 296.326C166.327 296.831 166.483 297.329 166.793 297.728Z" fill="#3433A0" stroke="#3433A0" stroke-width="0.5" stroke-miterlimit="10"/>
<path d="M220.771 253.503V253.994L219.811 254.552C219.503 254.742 219.248 255.008 219.072 255.324C218.885 255.63 218.781 255.98 218.772 256.339V258.555C218.772 259.076 219.083 259.355 219.54 259.242C221.121 258.873 222.232 259.933 222.236 261.827C222.24 263.722 221.128 266.059 219.57 267.515C219.12 267.921 218.846 268.487 218.809 269.092V271.958C218.783 272.088 218.799 272.223 218.854 272.343C218.909 272.464 219.001 272.564 219.116 272.629C219.232 272.694 219.365 272.722 219.496 272.707C219.628 272.693 219.752 272.638 219.85 272.549L221.032 271.869V272.36L219.854 273.04C219.715 273.166 219.54 273.244 219.354 273.265C219.168 273.286 218.98 273.248 218.817 273.156C218.653 273.064 218.523 272.923 218.444 272.753C218.365 272.583 218.342 272.393 218.377 272.209V269.339C218.434 268.49 218.818 267.696 219.448 267.123C220.857 265.813 221.703 264.007 221.808 262.086C221.801 260.405 220.822 259.464 219.419 259.796C218.776 259.946 218.344 259.549 218.34 258.81V256.594C218.354 256.086 218.499 255.59 218.761 255.154C219.008 254.702 219.365 254.321 219.799 254.046L220.771 253.503Z" fill="#3433A0" stroke="#3433A0" stroke-width="0.5" stroke-miterlimit="10"/>
<path d="M219.538 263.567C219.538 265.901 217.928 268.738 215.911 269.986V273.653C215.881 274.207 215.72 274.746 215.443 275.226C215.166 275.706 214.78 276.115 214.316 276.419L211.195 278.219L211.217 277.912C211.217 276.893 210.848 276.132 210.231 275.77C209.615 275.408 208.754 275.497 207.875 276.01C206.89 276.624 206.079 277.48 205.519 278.496C204.922 279.484 204.59 280.61 204.555 281.764L204.581 282.023L204.341 282.182L202.125 283.456C201.243 283.965 200.522 283.556 200.519 282.544L200.463 267.236C200.494 266.683 200.654 266.144 200.931 265.664C201.208 265.184 201.595 264.776 202.059 264.473L214.246 257.434C215.128 256.925 215.849 257.334 215.852 258.346V261.352C217.888 260.264 219.515 261.233 219.538 263.567ZM215.788 269.567C216.756 268.939 217.562 268.09 218.139 267.091C218.717 266.092 219.05 264.97 219.112 263.817C219.112 261.709 217.605 260.863 215.788 261.917L215.71 261.967L215.478 262.126V258.603C215.478 257.865 214.946 257.562 214.303 257.935L202.116 264.977C201.77 265.19 201.485 265.488 201.288 265.842C201.075 266.189 200.958 266.586 200.948 266.992L200.998 282.296C200.998 283.035 201.53 283.341 202.172 282.968L204.167 281.818C204.244 280.585 204.617 279.388 205.253 278.328C205.883 277.182 206.797 276.216 207.908 275.525C208.913 274.945 209.858 274.849 210.567 275.252C211.276 275.654 211.631 276.419 211.675 277.468L214.345 275.92C214.685 275.698 214.968 275.399 215.171 275.048C215.373 274.696 215.49 274.302 215.512 273.896V269.714L215.749 269.603L215.823 269.559" fill="#3433A0"/>
<path d="M215.788 269.567C216.756 268.939 217.562 268.09 218.139 267.091C218.717 266.092 219.05 264.97 219.112 263.817C219.112 261.709 217.605 260.863 215.788 261.917L215.71 261.967L215.478 262.126V258.603C215.478 257.865 214.946 257.562 214.303 257.935L202.116 264.977C201.77 265.19 201.485 265.488 201.288 265.842C201.075 266.189 200.958 266.586 200.948 266.992L200.998 282.296C200.998 283.035 201.53 283.341 202.172 282.968L204.167 281.818C204.244 280.585 204.617 279.388 205.253 278.328C205.883 277.182 206.797 276.216 207.908 275.525C208.913 274.945 209.858 274.849 210.567 275.252C211.276 275.654 211.631 276.419 211.675 277.468L214.345 275.92C214.685 275.698 214.968 275.399 215.171 275.048C215.373 274.696 215.49 274.302 215.512 273.896V269.714L215.749 269.603L215.823 269.559M219.538 263.567C219.538 265.901 217.928 268.738 215.911 269.986V273.653C215.881 274.207 215.72 274.746 215.443 275.226C215.166 275.706 214.78 276.115 214.316 276.419L211.195 278.219L211.217 277.912C211.217 276.893 210.848 276.132 210.231 275.77C209.615 275.408 208.754 275.497 207.875 276.01C206.89 276.624 206.079 277.48 205.519 278.496C204.922 279.484 204.59 280.61 204.555 281.764L204.581 282.023L204.341 282.182L202.125 283.456C201.243 283.965 200.522 283.556 200.519 282.544L200.463 267.236C200.494 266.683 200.654 266.144 200.931 265.664C201.208 265.184 201.595 264.776 202.059 264.473L214.246 257.434C215.128 256.925 215.849 257.334 215.852 258.346V261.352C217.888 260.264 219.515 261.233 219.538 263.567Z" stroke="#3433A0" stroke-width="0.5" stroke-miterlimit="10"/>
<path d="M86.3326 141.787C87.1464 141.787 87.8061 140.751 87.8061 139.472C87.8061 138.193 87.1464 137.156 86.3326 137.156C85.5188 137.156 84.8591 138.193 84.8591 139.472C84.8591 140.751 85.5188 141.787 86.3326 141.787Z" fill="#B0C3F4"/>
<path d="M93.2748 138.002C94.0886 138.002 94.7483 136.965 94.7483 135.687C94.7483 134.408 94.0886 133.371 93.2748 133.371C92.461 133.371 91.8013 134.408 91.8013 135.687C91.8013 136.965 92.461 138.002 93.2748 138.002Z" fill="#B0C3F4"/>
<path d="M101.267 134.216C102.081 134.216 102.74 133.18 102.74 131.901C102.74 130.622 102.081 129.585 101.267 129.585C100.453 129.585 99.7932 130.622 99.7932 131.901C99.7932 133.18 100.453 134.216 101.267 134.216Z" fill="#B0C3F4"/>
<path d="M264.852 166.062L226.259 170.032C226.118 170.046 225.981 170.089 225.857 170.158L227.541 167.942C227.714 167.713 227.932 167.521 228.181 167.378C228.43 167.235 228.706 167.144 228.991 167.111C234.501 166.45 263.584 162.978 265.083 162.901C267.03 162.797 266.93 165.933 265.874 167.672C265.977 167.503 266.03 167.308 266.029 167.11C266.027 166.912 265.97 166.719 265.864 166.551C265.758 166.384 265.607 166.249 265.429 166.163C265.25 166.077 265.051 166.042 264.854 166.062H264.852Z" fill="#9DB5F6"/>
<path d="M271.648 188.055C271.684 187.779 271.637 187.498 271.513 187.249C271.39 187 271.195 186.793 270.953 186.655L258.641 179.638L259.944 177.478C261.026 178.142 270.248 183.797 271.023 184.184C271.799 184.572 272.084 186.541 271.648 188.055Z" fill="url(#paint50_linear_253_4)"/>
<path d="M271.647 188.055C271.645 188.063 271.645 188.072 271.647 188.081C271.596 188.255 271.533 188.425 271.459 188.59L271.437 188.627L262.847 202.849C262.751 203.009 262.623 203.147 262.473 203.257C262.322 203.366 262.151 203.444 261.97 203.487C261.788 203.529 261.6 203.535 261.417 203.503C261.233 203.472 261.058 203.404 260.901 203.304L248.961 195.674L244.561 202.824C244.458 202.992 244.311 203.129 244.136 203.219C243.961 203.309 243.764 203.348 243.567 203.333C243.371 203.317 243.182 203.247 243.023 203.131C242.864 203.014 242.74 202.856 242.666 202.674L225.383 171.486C225.286 171.245 225.281 170.976 225.369 170.732C225.456 170.488 225.631 170.284 225.859 170.16C225.983 170.09 226.12 170.048 226.262 170.034L264.854 166.064C265.051 166.044 265.249 166.079 265.427 166.165C265.604 166.251 265.755 166.385 265.86 166.552C265.966 166.719 266.024 166.912 266.026 167.11C266.028 167.307 265.975 167.501 265.874 167.671L265.56 168.188C264.083 170.614 259.843 177.42 259.843 177.42L259.946 177.483L258.643 179.644L270.955 186.661C271.195 186.799 271.389 187.006 271.512 187.254C271.635 187.503 271.681 187.782 271.646 188.057L271.647 188.055Z" fill="white"/>
<path d="M372.34 113C372.308 113.18 372.245 113.352 372.151 113.509C372.226 113.344 372.289 113.174 372.34 113Z" fill="white" stroke="#231F20" stroke-width="1.005" stroke-miterlimit="10"/>
<defs>
<linearGradient id="paint0_linear_253_4" x1="44.6562" y1="451.868" x2="175.874" y2="235.659" gradientUnits="userSpaceOnUse">
<stop stop-color="#D6D7FF"/>
<stop offset="1" stop-color="#E4E4FF"/>
</linearGradient>
<linearGradient id="paint1_linear_253_4" x1="426.884" y1="374.834" x2="426.63" y2="344.824" gradientUnits="userSpaceOnUse">
<stop stop-color="#EBEFFC"/>
<stop offset="1" stop-color="#ADC5FF"/>
</linearGradient>
<linearGradient id="paint2_linear_253_4" x1="474.154" y1="316.55" x2="474.035" y2="302.522" gradientUnits="userSpaceOnUse">
<stop stop-color="#EBEFFC"/>
<stop offset="1" stop-color="#ADC5FF"/>
</linearGradient>
<linearGradient id="paint3_linear_253_4" x1="385.341" y1="410.218" x2="316.55" y2="175.296" gradientUnits="userSpaceOnUse">
<stop stop-color="#E8ECFB"/>
<stop offset="1" stop-color="#6B8DE4"/>
</linearGradient>
<linearGradient id="paint4_linear_253_4" x1="157.524" y1="278.478" x2="190.484" y2="278.478" gradientUnits="userSpaceOnUse">
<stop stop-color="#2F71F7"/>
<stop offset="1" stop-color="#352EA3"/>
</linearGradient>
<linearGradient id="paint5_linear_253_4" x1="148.275" y1="304.832" x2="181.241" y2="304.832" gradientUnits="userSpaceOnUse">
<stop stop-color="#2F71F7"/>
<stop offset="1" stop-color="#352EA3"/>
</linearGradient>
<linearGradient id="paint6_linear_253_4" x1="175.668" y1="289.017" x2="208.642" y2="289.017" gradientUnits="userSpaceOnUse">
<stop stop-color="#2F71F7"/>
<stop offset="1" stop-color="#352EA3"/>
</linearGradient>
<linearGradient id="paint7_linear_253_4" x1="267.066" y1="215.218" x2="300.045" y2="215.218" gradientUnits="userSpaceOnUse">
<stop stop-color="#2F71F7"/>
<stop offset="1" stop-color="#352EA3"/>
</linearGradient>
<linearGradient id="paint8_linear_253_4" x1="239.69" y1="231.04" x2="272.664" y2="231.04" gradientUnits="userSpaceOnUse">
<stop stop-color="#2F71F7"/>
<stop offset="1" stop-color="#352EA3"/>
</linearGradient>
<linearGradient id="paint9_linear_253_4" x1="257.834" y1="241.58" x2="290.808" y2="241.58" gradientUnits="userSpaceOnUse">
<stop stop-color="#2F71F7"/>
<stop offset="1" stop-color="#352EA3"/>
</linearGradient>
<linearGradient id="paint10_linear_253_4" x1="212.299" y1="246.854" x2="245.275" y2="246.854" gradientUnits="userSpaceOnUse">
<stop stop-color="#2F71F7"/>
<stop offset="1" stop-color="#352EA3"/>
</linearGradient>
<linearGradient id="paint11_linear_253_4" x1="230.443" y1="257.394" x2="263.42" y2="257.394" gradientUnits="userSpaceOnUse">
<stop stop-color="#2F71F7"/>
<stop offset="1" stop-color="#352EA3"/>
</linearGradient>
<linearGradient id="paint12_linear_253_4" x1="184.913" y1="262.66" x2="217.883" y2="262.66" gradientUnits="userSpaceOnUse">
<stop stop-color="#2F71F7"/>
<stop offset="1" stop-color="#352EA3"/>
</linearGradient>
<linearGradient id="paint13_linear_253_4" x1="203.053" y1="273.197" x2="236.031" y2="273.197" gradientUnits="userSpaceOnUse">
<stop stop-color="#2F71F7"/>
<stop offset="1" stop-color="#352EA3"/>
</linearGradient>
<linearGradient id="paint14_linear_253_4" x1="130.135" y1="294.297" x2="163.106" y2="294.297" gradientUnits="userSpaceOnUse">
<stop stop-color="#2F71F7"/>
<stop offset="1" stop-color="#352EA3"/>
</linearGradient>
<linearGradient id="paint15_linear_253_4" x1="285.22" y1="225.773" x2="318.199" y2="225.773" gradientUnits="userSpaceOnUse">
<stop stop-color="#2F71F7"/>
<stop offset="1" stop-color="#352EA3"/>
</linearGradient>
<linearGradient id="paint16_linear_253_4" x1="97.556" y1="231.053" x2="189.386" y2="435.955" gradientUnits="userSpaceOnUse">
<stop stop-color="#9FC4FF"/>
<stop offset="1" stop-color="#6E70FF"/>
</linearGradient>
<linearGradient id="paint17_linear_253_4" x1="-28.4998" y1="-81.5" x2="342.263" y2="70.4726" gradientUnits="userSpaceOnUse">
<stop stop-color="white"/>
<stop offset="1" stop-color="#7798EC"/>
</linearGradient>
<linearGradient id="paint18_linear_253_4" x1="147.925" y1="20.8665" x2="113.591" y2="160.695" gradientUnits="userSpaceOnUse">
<stop stop-color="#E8ECFB"/>
<stop offset="1" stop-color="#7798EC"/>
</linearGradient>
<linearGradient id="paint19_linear_253_4" x1="59.2134" y1="298.567" x2="166.531" y2="169.478" gradientUnits="userSpaceOnUse">
<stop stop-color="#E8ECFB"/>
<stop offset="1" stop-color="#D2DFFF"/>
</linearGradient>
<linearGradient id="paint20_linear_253_4" x1="75.8293" y1="293.257" x2="72.7262" y2="198.973" gradientUnits="userSpaceOnUse">
<stop stop-color="#EBEFFC"/>
<stop offset="1" stop-color="#ADC5FF"/>
</linearGradient>
<linearGradient id="paint21_linear_253_4" x1="232.839" y1="258.672" x2="60.5271" y2="136.685" gradientUnits="userSpaceOnUse">
<stop stop-color="#E8ECFB"/>
<stop offset="1" stop-color="#7798EC"/>
</linearGradient>
<linearGradient id="paint22_linear_253_4" x1="92.9626" y1="302.071" x2="88.8889" y2="211.353" gradientUnits="userSpaceOnUse">
<stop stop-color="#EBEFFC"/>
<stop offset="1" stop-color="#ADC5FF"/>
</linearGradient>
<linearGradient id="paint23_linear_253_4" x1="263" y1="315" x2="117.498" y2="90.8526" gradientUnits="userSpaceOnUse">
<stop stop-color="#E8ECFB"/>
<stop offset="1" stop-color="#7798EC"/>
</linearGradient>
<linearGradient id="paint24_linear_253_4" x1="359.25" y1="357.51" x2="316.523" y2="290.461" gradientUnits="userSpaceOnUse">
<stop stop-color="#E8ECFB"/>
<stop offset="1" stop-color="#7798EC"/>
</linearGradient>
<linearGradient id="paint25_linear_253_4" x1="349.484" y1="310.643" x2="344.803" y2="338.617" gradientUnits="userSpaceOnUse">
<stop stop-color="#AFC6FF"/>
<stop offset="1" stop-color="#A7A6F5"/>
</linearGradient>
<linearGradient id="paint26_linear_253_4" x1="231.682" y1="415.941" x2="233.587" y2="303.064" gradientUnits="userSpaceOnUse">
<stop stop-color="#EBEFFC"/>
<stop offset="1" stop-color="#6C93F2"/>
</linearGradient>
<linearGradient id="paint27_linear_253_4" x1="283.377" y1="118.866" x2="309.568" y2="118.866" gradientUnits="userSpaceOnUse">
<stop stop-color="#EBEFFC"/>
<stop offset="1" stop-color="#6C93F2"/>
</linearGradient>
<linearGradient id="paint28_linear_253_4" x1="257.259" y1="118.848" x2="283.377" y2="118.848" gradientUnits="userSpaceOnUse">
<stop stop-color="#7CAAF2"/>
<stop offset="1" stop-color="#3465EC"/>
</linearGradient>
<linearGradient id="paint29_linear_253_4" x1="257.259" y1="96.1899" x2="309.557" y2="96.1899" gradientUnits="userSpaceOnUse">
<stop stop-color="#EBEFFC"/>
<stop offset="1" stop-color="#6C93F2"/>
</linearGradient>
<linearGradient id="paint30_linear_253_4" x1="91.5732" y1="231.412" x2="117.765" y2="231.412" gradientUnits="userSpaceOnUse">
<stop stop-color="#EBEFFC"/>
<stop offset="1" stop-color="#6C93F2"/>
</linearGradient>
<linearGradient id="paint31_linear_253_4" x1="65.4558" y1="231.395" x2="91.5733" y2="231.395" gradientUnits="userSpaceOnUse">
<stop stop-color="#7CAAF2"/>
<stop offset="1" stop-color="#3465EC"/>
</linearGradient>
<linearGradient id="paint32_linear_253_4" x1="65.4558" y1="208.737" x2="117.753" y2="208.737" gradientUnits="userSpaceOnUse">
<stop stop-color="#EBEFFC"/>
<stop offset="1" stop-color="#6C93F2"/>
</linearGradient>
<linearGradient id="paint33_linear_253_4" x1="270.236" y1="128.902" x2="274.82" y2="125.043" gradientUnits="userSpaceOnUse">
<stop stop-color="#7CAAF2" stop-opacity="0.2"/>
<stop offset="1" stop-color="#2B2DCD"/>
</linearGradient>
<linearGradient id="paint34_linear_253_4" x1="180" y1="207" x2="245.973" y2="181.648" gradientUnits="userSpaceOnUse">
<stop stop-color="#FFE1BF"/>
<stop offset="1" stop-color="#558FFF"/>
</linearGradient>
<linearGradient id="paint35_linear_253_4" x1="133.845" y1="206.988" x2="199.691" y2="181.779" gradientUnits="userSpaceOnUse">
<stop stop-color="#FFE1BF"/>
<stop offset="1" stop-color="#558FFF"/>
</linearGradient>
<linearGradient id="paint36_linear_253_4" x1="153" y1="115" x2="213" y2="150.5" gradientUnits="userSpaceOnUse">
<stop stop-color="#FFE1BF"/>
<stop offset="1" stop-color="#558FFF"/>
</linearGradient>
<linearGradient id="paint37_linear_253_4" x1="172.858" y1="196.622" x2="176.963" y2="195.67" gradientUnits="userSpaceOnUse">
<stop stop-color="#7CAAF2" stop-opacity="0.2"/>
<stop offset="1" stop-color="#2B2DCD"/>
</linearGradient>
<linearGradient id="paint38_linear_253_4" x1="214.636" y1="316.384" x2="214.215" y2="264.672" gradientUnits="userSpaceOnUse">
<stop stop-color="#EBEFFC"/>
<stop offset="1" stop-color="#ADC5FF"/>
</linearGradient>
<linearGradient id="paint39_linear_253_4" x1="287.56" y1="192.313" x2="267.779" y2="244.449" gradientUnits="userSpaceOnUse">
<stop stop-color="white"/>
<stop offset="1" stop-color="#6C93F2"/>
</linearGradient>
<linearGradient id="paint40_linear_253_4" x1="182.463" y1="185.757" x2="237.229" y2="285.524" gradientUnits="userSpaceOnUse">
<stop stop-color="#EBEFFC"/>
<stop offset="1" stop-color="#6C93F2"/>
</linearGradient>
<linearGradient id="paint41_linear_253_4" x1="217.704" y1="237.107" x2="255.688" y2="286.962" gradientUnits="userSpaceOnUse">
<stop stop-color="#EBEFFC"/>
<stop offset="1" stop-color="#6C93F2"/>
</linearGradient>
<linearGradient id="paint42_linear_253_4" x1="425.469" y1="248.582" x2="431.294" y2="180.573" gradientUnits="userSpaceOnUse">
<stop stop-color="#EBEFFC"/>
<stop offset="1" stop-color="#6C93F2"/>
</linearGradient>
<linearGradient id="paint43_linear_253_4" x1="425.469" y1="248.414" x2="428.204" y2="201.724" gradientUnits="userSpaceOnUse">
<stop stop-color="#EBEFFC"/>
<stop offset="1" stop-color="#6C93F2"/>
</linearGradient>
<linearGradient id="paint44_linear_253_4" x1="425.47" y1="163.748" x2="431.291" y2="95.7537" gradientUnits="userSpaceOnUse">
<stop stop-color="#EBEFFC"/>
<stop offset="1" stop-color="#6C93F2"/>
</linearGradient>
<linearGradient id="paint45_linear_253_4" x1="425.469" y1="163.583" x2="428.25" y2="116.501" gradientUnits="userSpaceOnUse">
<stop stop-color="#EBEFFC"/>
<stop offset="1" stop-color="#6C93F2"/>
</linearGradient>
<linearGradient id="paint46_linear_253_4" x1="334.583" y1="271.655" x2="334.734" y2="271.655" gradientUnits="userSpaceOnUse">
<stop stop-color="#EBEFFC"/>
<stop offset="1" stop-color="#6C93F2"/>
</linearGradient>
<linearGradient id="paint47_linear_253_4" x1="235.202" y1="194.242" x2="222.671" y2="192.026" gradientUnits="userSpaceOnUse">
<stop stop-color="#7CAAF2" stop-opacity="0"/>
<stop offset="1" stop-color="#2B2DCD"/>
</linearGradient>
<linearGradient id="paint48_linear_253_4" x1="77.6167" y1="117.961" x2="376" y2="-1.5" gradientUnits="userSpaceOnUse">
<stop stop-color="#EBEFFC"/>
<stop offset="1" stop-color="#6C93F2"/>
</linearGradient>
<linearGradient id="paint49_linear_253_4" x1="43.4624" y1="126.837" x2="193.316" y2="126.837" gradientUnits="userSpaceOnUse">
<stop stop-color="#EBEFFC"/>
<stop offset="1" stop-color="#6C93F2"/>
</linearGradient>
<linearGradient id="paint50_linear_253_4" x1="262.221" y1="185.474" x2="265.973" y2="181.048" gradientUnits="userSpaceOnUse">
<stop stop-color="#3433A0"/>
<stop offset="1" stop-color="#286FFA"/>
</linearGradient>
</defs>
</svg>
