<?xml version="1.0" encoding="utf-8"?>
<!-- Generator: Adobe Illustrator 27.3.1, SVG Export Plug-In . SVG Version: 6.00 Build 0)  -->
<svg version="1.1" id="Layer_1" xmlns="http://www.w3.org/2000/svg" xmlns:xlink="http://www.w3.org/1999/xlink" x="0px" y="0px"
	 viewBox="0 0 940 296" style="enable-background:new 0 0 940 296;" xml:space="preserve">
<style type="text/css">
	.st0{fill:#FFFFFF;}
	.st1{fill:#226DB4;}
	.st2{fill:#E42527;}
</style>
<g>
	<g>
		<path d="M461.5,224.1c-7.1,21.8-27.7,33.2-49.9,33.2c-37,0-57.4-23.5-57.4-59.6c0-33,22.9-58.5,56.8-58.5
			c21.7,0,40.7,10.4,49.4,31l-18.4,7.8c-4.9-12.6-16.2-21.4-30.1-21.4c-24.3,0-34.4,20.8-34.4,42c0,22.1,11,41,34.9,41
			c15.1,0,26.1-9.2,31.3-23L461.5,224.1z"/>
		<path d="M476.4,171.6h20.1v15.8c5.7-11.5,14.8-17,27.6-17V189c-16.2,0-27.6,5.3-27.6,23.3v43.4h-20.1V171.6z"/>
		<path d="M614,237.4c-7,14.8-22.1,19.9-37.5,19.9c-26.5,0-43.2-17.7-43.2-43.9c0-24.6,17-43.6,42.3-43.6
			c27.2,0,40.4,15.9,40.4,48.3h-62.2c0,14.2,8.2,24.6,23.5,24.6c9.1,0,16.6-3.7,21-12.2L614,237.4z M595.9,204.9
			c-0.6-12.7-8.3-20.5-20.2-20.5c-12.6,0-20,8.9-21.7,20.5H595.9z"/>
		<path d="M680.7,245.4c-6.4,8.5-15.7,11.8-26.1,11.8c-15.8,0-28.2-8-28.2-24.5c0-23.3,24.6-27,44.2-27h9.9v-1.3
			c0-12-2.8-19.6-16.4-19.6c-8.2,0-15.7,4.2-18.7,12l-15.6-6.7c5.6-14.8,21.3-20.2,36.3-20.2c19.9,0,34.3,9.6,34.3,30.9v54.9h-19.8
			V245.4z M670.4,218.1c-9.3,0-24,1.1-24,13.8c0,8.1,5.9,11.1,13.4,11.1c10.2,0,20.7-5.3,20.7-16.7v-8.2H670.4z"/>
		<path d="M764.2,255.1c-4.3,1.3-8.8,2-13.8,2c-16,0-25.5-8.3-25.5-25v-45.7h-11.3v-14.8h11.3v-17.3l20.1-8.7v26.1h18.5v14.8h-18.5
			v43.9c0,6.6,2.8,10.7,10.2,10.7c2.8,0,6-0.6,9-1.6V255.1z"/>
		<path d="M818.1,169.8c25.5,0,45.1,17.9,45.1,43.6c0,26.4-20.6,43.8-46,43.8c-25.6,0-46.1-17.7-46.1-43.4
			C771.1,187.5,792.8,169.8,818.1,169.8z M841.6,213.6c0-15.5-7.8-28.3-24.3-28.3c-17,0-23.7,13.5-23.7,28.9
			c0,14.9,7.9,27.6,24.2,27.6C834.5,241.8,841.6,228.3,841.6,213.6z"/>
		<path d="M877.9,171.6H898v15.8c5.7-11.5,14.8-17,27.6-17V189c-16.2,0-27.6,5.3-27.6,23.3v43.4h-20.1V171.6z"/>
	</g>
	<g>
		<path d="M360.2,104.4l37-53.4h-33.2V40.5h50.6v5.2l-36.1,53.4h35v10.5h-53.3V104.4z"/>
		<path d="M446.2,58c15.4,0,27.2,10.8,27.2,26.3c0,15.9-12.4,26.4-27.7,26.4c-15.4,0-27.8-10.7-27.8-26.1
			C417.9,68.6,431,58,446.2,58z M460.4,84.3c0-9.3-4.7-17.1-14.7-17.1c-10.2,0-14.3,8.1-14.3,17.4c0,9,4.8,16.6,14.6,16.6
			C456.1,101.3,460.4,93.2,460.4,84.3z"/>
		<path d="M482.2,36.1h12.1v31c3.3-6.3,9.9-9.1,16.9-9.1c12.1,0,18.2,8.5,18.2,20v31.7h-12.2V79.2c0-7.3-3.8-11.3-10.8-11.3
			c-7.8,0-12.1,4.8-12.1,12v29.7h-12.1V36.1z"/>
		<path d="M565.6,58c15.4,0,27.2,10.8,27.2,26.3c0,15.9-12.4,26.4-27.7,26.4c-15.4,0-27.8-10.7-27.8-26.1
			C537.3,68.6,550.4,58,565.6,58z M579.8,84.3c0-9.3-4.7-17.1-14.7-17.1c-10.2,0-14.3,8.1-14.3,17.4c0,9,4.8,16.6,14.6,16.6
			C575.5,101.3,579.8,93.2,579.8,84.3z"/>
	</g>
</g>
<g>
	<g>
		<path class="st1" d="M156.4,287.3C156.4,287.3,156.4,287.3,156.4,287.3c-9.9,0-19.1-3.8-26.1-10.8L8.1,154c-3.3-3.3-3.3-8.7,0-12
			L130.4,19.5c7-7,16.2-10.8,26.1-10.8l0,0c9.8,0,19.1,3.8,26.1,10.8L226,63.1c3.3,3.3,3.3,8.7,0,12L153.2,148l72.8,72.9
			c3.3,3.3,3.3,8.7,0,12l-43.6,43.6C175.5,283.5,166.3,287.3,156.4,287.3z M26.1,148l116.3,116.5c3.7,3.7,8.7,5.8,14,5.8h0
			c5.3,0,10.3-2.1,14-5.8l37.6-37.6L135.2,154c-3.3-3.3-3.3-8.7,0-12L208,69.1l-37.5-37.6c-3.7-3.8-8.7-5.8-14-5.8
			c-5.3,0-10.3,2.1-14,5.8L26.1,148z"/>
	</g>
	<g>
		<path class="st2" d="M250,205.4c-2.3,0-4.4-0.9-6-2.5L195.2,154c-3.3-3.3-3.3-8.7,0-12L244,93.1c1.6-1.6,3.8-2.5,6-2.5
			c2.3,0,4.4,0.9,6,2.5l28.8,28.9c14.3,14.3,14.3,37.7,0,52L256,202.9C254.4,204.5,252.3,205.4,250,205.4z M213.2,148l36.8,36.8
			l22.8-22.8c7.7-7.7,7.7-20.3,0-28L250,111.2L213.2,148z"/>
	</g>
</g>
</svg>
