<svg id="eCNTKIEyFB71" xmlns="http://www.w3.org/2000/svg" xmlns:xlink="http://www.w3.org/1999/xlink" viewBox="-38 -30 1620 280" shape-rendering="geometricPrecision" text-rendering="geometricPrecision" project-id="d1b65ab44946419cace2ac55554c8a74" export-id="808eca1e35df4f5b80cb3656e76bbdf1" cached="false">
<style><![CDATA[
#eCNTKIEyFB713_to {animation: eCNTKIEyFB713_to__to 16400ms linear infinite normal forwards}@keyframes eCNTKIEyFB713_to__to { 0% {transform: translate(115.190458px,225.593208px)} 15.243902% {transform: translate(115.190458px,225.593208px)} 24.390244% {transform: translate(161.408276px,226.360458px)} 32.317073% {transform: translate(161.408276px,226.360458px)} 40.853659% {transform: translate(141.408276px,226.360458px)} 100% {transform: translate(141.408276px,226.360458px)}} #eCNTKIEyFB713_ts {animation: eCNTKIEyFB713_ts__ts 16400ms linear infinite normal forwards}@keyframes eCNTKIEyFB713_ts__ts { 0% {transform: scale(1,1)} 32.317073% {transform: scale(1,1)} 34.756098% {transform: scale(-1,1)} 100% {transform: scale(-1,1)}} #eCNTKIEyFB713 {animation: eCNTKIEyFB713_c_o 16400ms linear infinite normal forwards}@keyframes eCNTKIEyFB713_c_o { 0% {opacity: 0} 14.02439% {opacity: 0} 17.073171% {opacity: 1} 35.97561% {opacity: 1} 40.853659% {opacity: 0} 100% {opacity: 0}} #eCNTKIEyFB718 {animation: eCNTKIEyFB718_c_o 16400ms linear infinite normal forwards}@keyframes eCNTKIEyFB718_c_o { 0% {opacity: 1} 24.390244% {opacity: 1} 25% {opacity: 0} 100% {opacity: 0}} #eCNTKIEyFB721 {animation: eCNTKIEyFB721_f_p 16400ms linear infinite normal forwards}@keyframes eCNTKIEyFB721_f_p { 0% {fill: #bababa} 52.439024% {fill: #bababa} 54.268293% {fill: #070707} 100% {fill: #070707}} #eCNTKIEyFB722 {animation: eCNTKIEyFB722_f_p 16400ms linear infinite normal forwards}@keyframes eCNTKIEyFB722_f_p { 0% {fill: #bababa} 64.02439% {fill: #bababa} 65.853659% {fill: #000} 100% {fill: #000}} #eCNTKIEyFB723 {animation: eCNTKIEyFB723_f_p 16400ms linear infinite normal forwards}@keyframes eCNTKIEyFB723_f_p { 0% {fill: #bababa} 64.02439% {fill: #bababa} 65.853659% {fill: #000} 100% {fill: #000}} #eCNTKIEyFB724 {animation: eCNTKIEyFB724_f_p 16400ms linear infinite normal forwards}@keyframes eCNTKIEyFB724_f_p { 0% {fill: #bababa} 76.829268% {fill: #bababa} 78.658537% {fill: #000} 100% {fill: #000}} #eCNTKIEyFB725 {animation: eCNTKIEyFB725_s_p 16400ms linear infinite normal forwards}@keyframes eCNTKIEyFB725_s_p { 0% {stroke: #bababa} 52.439024% {stroke: #bababa} 54.268293% {stroke: #17984c} 100% {stroke: #17984c}} #eCNTKIEyFB726 {animation: eCNTKIEyFB726_f_p 16400ms linear infinite normal forwards}@keyframes eCNTKIEyFB726_f_p { 0% {fill: #bababa} 52.439024% {fill: #bababa} 54.268293% {fill: #17984c} 100% {fill: #17984c}} #eCNTKIEyFB728 {animation: eCNTKIEyFB728_s_do 16400ms linear infinite normal forwards}@keyframes eCNTKIEyFB728_s_do { 0% {stroke-dashoffset: 164.54} 41.463415% {stroke-dashoffset: 164.54} 53.04878% {stroke-dashoffset: 0} 100% {stroke-dashoffset: 0}} #eCNTKIEyFB729 {animation: eCNTKIEyFB729_s_p 16400ms linear infinite normal forwards}@keyframes eCNTKIEyFB729_s_p { 0% {stroke: #bababa} 39.634146% {stroke: #bababa} 41.463415% {stroke: #17984c} 100% {stroke: #17984c}} #eCNTKIEyFB730 {animation: eCNTKIEyFB730_f_p 16400ms linear infinite normal forwards}@keyframes eCNTKIEyFB730_f_p { 0% {fill: #bababa} 39.634146% {fill: #bababa} 41.463415% {fill: #17984c} 100% {fill: #17984c}} #eCNTKIEyFB731 {animation: eCNTKIEyFB731_s_p 16400ms linear infinite normal forwards}@keyframes eCNTKIEyFB731_s_p { 0% {stroke: #bababa} 64.02439% {stroke: #bababa} 65.853659% {stroke: #17984c} 100% {stroke: #17984c}} #eCNTKIEyFB732 {animation: eCNTKIEyFB732_f_p 16400ms linear infinite normal forwards}@keyframes eCNTKIEyFB732_f_p { 0% {fill: #bababa} 64.02439% {fill: #bababa} 65.853659% {fill: #17984c} 100% {fill: #17984c}} #eCNTKIEyFB733 {animation: eCNTKIEyFB733_s_p 16400ms linear infinite normal forwards}@keyframes eCNTKIEyFB733_s_p { 0% {stroke: #bababa} 76.829268% {stroke: #bababa} 78.658537% {stroke: #17984c} 100% {stroke: #17984c}} #eCNTKIEyFB734 {animation: eCNTKIEyFB734_f_p 16400ms linear infinite normal forwards}@keyframes eCNTKIEyFB734_f_p { 0% {fill: #bababa} 76.829268% {fill: #bababa} 78.658537% {fill: #17984c} 100% {fill: #17984c}} #eCNTKIEyFB737 {animation: eCNTKIEyFB737_s_do 16400ms linear infinite normal forwards}@keyframes eCNTKIEyFB737_s_do { 0% {stroke-dashoffset: 164.54} 65.853659% {stroke-dashoffset: 164.54} 76.829268% {stroke-dashoffset: 0} 100% {stroke-dashoffset: 0}} #eCNTKIEyFB738 {animation: eCNTKIEyFB738_s_do 16400ms linear infinite normal forwards}@keyframes eCNTKIEyFB738_s_do { 0% {stroke-dashoffset: 164.54} 54.268293% {stroke-dashoffset: 164.54} 64.02439% {stroke-dashoffset: 0} 100% {stroke-dashoffset: 0}} #eCNTKIEyFB739 {animation: eCNTKIEyFB739_f_p 16400ms linear infinite normal forwards}@keyframes eCNTKIEyFB739_f_p { 0% {fill: #c5c5c5} 39.634146% {fill: #c5c5c5} 41.463415% {fill: #000} 100% {fill: #000}} #eCNTKIEyFB740_to {animation: eCNTKIEyFB740_to__to 16400ms linear infinite normal forwards}@keyframes eCNTKIEyFB740_to__to { 0% {transform: translate(-128.201725px,221.239998px);animation-timing-function: cubic-bezier(0.175,0.005,0.83,0.995)} 15.243902% {transform: translate(223.284997px,221.239998px)} 27.439024% {transform: translate(223.284997px,221.239998px);animation-timing-function: cubic-bezier(0.175,0.005,0.83,0.995)} 85.365854% {transform: translate(1267.347397px,221.239998px)} 89.02439% {transform: translate(1267.347397px,221.239998px);animation-timing-function: cubic-bezier(0.42,0,0.58,1)} 100% {transform: translate(1396.006663px,221.239998px)}} #eCNTKIEyFB744_to {animation: eCNTKIEyFB744_to__to 16400ms linear infinite normal forwards}@keyframes eCNTKIEyFB744_to__to { 0% {transform: translate(256.734497px,215.787499px)} 1.219512% {transform: translate(256.734497px,216.203573px)} 2.439024% {transform: translate(256.734497px,215.787499px)} 3.658537% {transform: translate(256.734497px,216.203573px)} 4.878049% {transform: translate(256.734497px,215.787499px)} 6.097561% {transform: translate(256.734497px,216.203573px)} 7.317073% {transform: translate(256.734497px,215.787499px)} 8.536585% {transform: translate(256.734497px,216.203573px)} 9.756098% {transform: translate(256.734497px,215.787499px)} 10.97561% {transform: translate(256.734497px,216.203573px)} 12.195122% {transform: translate(256.734497px,215.787499px)} 13.414634% {transform: translate(256.734497px,216.203573px)} 14.634146% {transform: translate(256.734497px,215.787499px)} 15.853659% {transform: translate(256.734497px,216.203573px)} 17.073171% {transform: translate(256.734497px,215.787499px)} 18.292683% {transform: translate(256.734497px,216.203573px)} 19.512195% {transform: translate(256.734497px,215.787499px)} 20.731707% {transform: translate(256.734497px,216.203573px)} 21.95122% {transform: translate(256.734497px,215.787499px)} 23.170732% {transform: translate(256.734497px,216.203573px)} 24.390244% {transform: translate(256.734497px,215.787499px)} 25.609756% {transform: translate(256.734497px,216.203573px)} 26.829268% {transform: translate(256.734497px,215.787499px)} 28.04878% {transform: translate(256.734497px,216.203573px)} 29.268293% {transform: translate(256.734497px,215.787499px)} 30.487805% {transform: translate(256.734497px,216.203573px)} 31.707317% {transform: translate(256.734497px,215.787499px)} 32.926829% {transform: translate(256.734497px,216.203573px)} 34.146341% {transform: translate(256.734497px,215.787499px)} 35.365854% {transform: translate(256.734497px,216.203573px)} 36.585366% {transform: translate(256.734497px,215.787499px)} 37.804878% {transform: translate(256.734497px,216.203573px)} 39.02439% {transform: translate(256.734497px,215.787499px)} 40.243902% {transform: translate(256.734497px,216.203573px)} 41.463415% {transform: translate(256.734497px,215.787499px)} 42.682927% {transform: translate(256.734497px,216.203573px)} 43.902439% {transform: translate(256.734497px,215.787499px)} 45.121951% {transform: translate(256.734497px,216.203573px)} 46.341463% {transform: translate(256.734497px,215.787499px)} 47.560976% {transform: translate(256.734497px,216.203573px)} 48.780488% {transform: translate(256.734497px,215.787499px)} 50% {transform: translate(256.734497px,216.203573px)} 51.219512% {transform: translate(256.734497px,215.787499px)} 52.439024% {transform: translate(256.734497px,216.203573px)} 53.658537% {transform: translate(256.734497px,215.787499px)} 54.878049% {transform: translate(256.734497px,216.203573px)} 56.097561% {transform: translate(256.734497px,215.787499px)} 57.317073% {transform: translate(256.734497px,216.203573px)} 58.536585% {transform: translate(256.734497px,215.787499px)} 59.756098% {transform: translate(256.734497px,216.203573px)} 60.97561% {transform: translate(256.734497px,215.787499px)} 62.195122% {transform: translate(256.734497px,216.203573px)} 63.414634% {transform: translate(256.734497px,215.787499px)} 64.634146% {transform: translate(256.734497px,216.203573px)} 65.853659% {transform: translate(256.734497px,215.787499px)} 67.073171% {transform: translate(256.734497px,216.203573px)} 68.292683% {transform: translate(256.734497px,215.787499px)} 69.512195% {transform: translate(256.734497px,216.203573px)} 70.731707% {transform: translate(256.734497px,215.787499px)} 71.95122% {transform: translate(256.734497px,216.203573px)} 73.170732% {transform: translate(256.734497px,215.787499px)} 74.390244% {transform: translate(256.734497px,216.203573px)} 75.609756% {transform: translate(256.734497px,215.787499px)} 76.829268% {transform: translate(256.734497px,216.203573px)} 78.04878% {transform: translate(256.734497px,215.787499px)} 79.268293% {transform: translate(256.734497px,216.203573px)} 80.487805% {transform: translate(256.734497px,215.787499px)} 81.707317% {transform: translate(256.734497px,216.203573px)} 82.926829% {transform: translate(256.734497px,215.787499px)} 84.146341% {transform: translate(256.734497px,216.203573px)} 85.365854% {transform: translate(256.734497px,215.787499px)} 86.585366% {transform: translate(256.734497px,216.203573px)} 87.804878% {transform: translate(256.734497px,215.787499px)} 89.02439% {transform: translate(256.734497px,216.203573px)} 90.243902% {transform: translate(256.734497px,215.787499px)} 91.463415% {transform: translate(256.734497px,216.203573px)} 92.682927% {transform: translate(256.734497px,215.787499px)} 93.902439% {transform: translate(256.734497px,216.203573px)} 95.121951% {transform: translate(256.734497px,215.787499px)} 100% {transform: translate(256.734497px,215.787499px)}} #eCNTKIEyFB763_ts {animation: eCNTKIEyFB763_ts__ts 16400ms linear infinite normal forwards}@keyframes eCNTKIEyFB763_ts__ts { 0% {transform: translate(-7px,278px) scale(0,0)} 85.365854% {transform: translate(-7px,278px) scale(0,0);animation-timing-function: cubic-bezier(0.42,0,0.58,1)} 87.195122% {transform: translate(-7px,278px) scale(1,1)} 100% {transform: translate(-7px,278px) scale(1,1)}} #eCNTKIEyFB764_ts {animation: eCNTKIEyFB764_ts__ts 16400ms linear infinite normal forwards}@keyframes eCNTKIEyFB764_ts__ts { 0% {transform: translate(24px,278px) scale(0,0)} 85.97561% {transform: translate(24px,278px) scale(0,0);animation-timing-function: cubic-bezier(0.42,0,0.58,1)} 87.804878% {transform: translate(24px,278px) scale(1,1)} 100% {transform: translate(24px,278px) scale(1,1)}} #eCNTKIEyFB765_ts {animation: eCNTKIEyFB765_ts__ts 16400ms linear infinite normal forwards}@keyframes eCNTKIEyFB765_ts__ts { 0% {transform: translate(14px,253px) scale(0,0)} 86.585366% {transform: translate(14px,253px) scale(0,0);animation-timing-function: cubic-bezier(0.42,0,0.58,1)} 88.414634% {transform: translate(14px,253px) scale(1,1)} 100% {transform: translate(14px,253px) scale(1,1)}}
]]></style>
<defs><linearGradient id="eCNTKIEyFB749-fill" x1="0" y1="0.5" x2="1" y2="0.5" spreadMethod="pad" gradientUnits="objectBoundingBox" gradientTransform="translate(0 0)"><stop id="eCNTKIEyFB749-fill-0" offset="40%" stop-color="#fff"/><stop id="eCNTKIEyFB749-fill-1" offset="100%" stop-color="rgba(255,255,255,0)"/></linearGradient></defs><g clip-path="url(#eCNTKIEyFB711)"><g><path d="M225.978,240.536h-59.604c-.696,0-1.286.589-1.286,1.285v5.893c0,.697.59,1.286,1.286,1.286h5.414c.697,0,1.286-.589,1.286-1.286v-1.66c0-.697.59-1.286,1.287-1.286h7.021c.697,0,1.287.589,1.287,1.286v1.66c0,.697.589,1.286,1.286,1.286h6.164c.697,0,1.287-.589,1.287-1.286v-1.66c0-.697.589-1.286,1.286-1.286h7.022c.696,0,1.286.589,1.286,1.286v1.66c0,.697.59,1.286,1.286,1.286h6.164c.697,0,1.287-.589,1.287-1.286v-1.66c0-.697.589-1.286,1.286-1.286h7.022c.697,0,1.286.589,1.286,1.286v1.66c0,.697.59,1.286,1.287,1.286h5.413c.697,0,1.287-.589,1.287-1.286v-5.893c0-.696-.59-1.285-1.287-1.285h-.053Z" fill="#ededed"/><path d="M156.352,186.482h-111.006c-1.2328,0-2.1976.964-2.1976,2.197v58.178c0,1.232.9648,2.197,2.1976,2.197h111.059c1.233,0,2.198-.965,2.198-2.197v-58.178c0-1.233-.965-2.197-2.198-2.197h-.053ZM57.3524,244.714h-5.092v-53.946h5.092v53.946Zm11.524,0h-5.092v-53.946h5.092v53.946Zm11.524,0h-5.092v-53.946h5.092v53.946Zm11.4704,0h-5.092v-53.946h5.092v53.946Zm11.5242,0h-5.0922v-53.946h5.0922v53.946Zm11.524,0h-5.092v-53.946h5.092v53.946Zm11.47,0h-5.092v-53.946h5.092v53.946Zm11.524,0h-5.092v-53.946h5.092v53.946Zm11.524,0h-5.092v-53.946h5.092v53.946Z" fill="#ededed"/><path d="M266.928,96.375L136.198,18.5893c-1.34-.8036-3.056-.8036-4.396,0L1.07202,96.375c-1.875996,1.125-1.071996,4.018,1.1256,4.018h10.98798v148.607h20.4216v-148.607h200.8928v148.607h20.422v-148.607h10.988c2.197,0,3.001-2.893,1.125-4.018h-.107Z" fill="#ededed"/><path d="M92.4064,134.571h-46.6856c-.7104,0-1.2864.576-1.2864,1.286v46.661c0,.71.576,1.286,1.2864,1.286h46.6856c.7105,0,1.2864-.576,1.2864-1.286v-46.661c0-.71-.5759-1.286-1.2864-1.286Z" fill="#ededed"/><path d="M155.172,134.571h-46.686c-.71,0-1.286.576-1.286,1.286v46.661c0,.71.576,1.286,1.286,1.286h46.686c.71,0,1.286-.576,1.286-1.286v-46.661c0-.71-.576-1.286-1.286-1.286Z" fill="#ededed"/><path d="M219.545,136.982h-46.685c-.711,0-1.287.576-1.287,1.286v46.661c0,.71.576,1.285,1.287,1.285h46.685c.711,0,1.287-.575,1.287-1.285v-46.661c0-.71-.576-1.286-1.287-1.286Z" fill="#ededed"/><path d="M219.545,188.786h-46.685c-.711,0-1.287.575-1.287,1.285v46.661c0,.71.576,1.286,1.287,1.286h46.685c.711,0,1.287-.576,1.287-1.286v-46.661c0-.71-.576-1.285-1.287-1.285Z" fill="#ededed"/></g><clipPath id="eCNTKIEyFB711"><rect width="268" height="231" rx="0" ry="0" transform="translate(0 18)" fill="#fff"/></clipPath></g><g id="eCNTKIEyFB713_to" transform="translate(115.190458,225.593208)"><g id="eCNTKIEyFB713_ts" transform="scale(1,1)"><g id="eCNTKIEyFB713" transform="translate(-141.003766,-226.360458)" opacity="0" clip-path="url(#eCNTKIEyFB719)"><g><path d="M153.665,237.293l-1.992-4.88c.007-.111.015-.222-.015-.341l-1.392-5.821-5.214-3.481c-.519-.341-.859-.889-.941-1.503-.081-.615.104-1.23.519-1.696.296-.334.674-.563,1.103-.667.622-.148,1.274-.015,1.785.371l1.318,1.022-.037-.141c-.4-1.674-2.081-2.711-3.762-2.311-1.674.4-2.711,2.081-2.303,3.762l2.851,11.917c0,0,.03.059.044.096l-.992,5.525c-.052.281-.141.563-.274.822l-3.17,6.384c-.459.918-.052,2.029.882,2.444l.185.081c.881.385,1.91.008,2.333-.852l3.68-7.502c.223-.459.393-.948.497-1.451l.422-2.044l1.103,2.436c.134.296.222.615.252.941l.77,7.45c.097.955.933,1.666,1.889,1.607c1.014-.059,1.77-.948,1.681-1.955l-.8-8.487c-.059-.593-.2-1.178-.422-1.726Z" fill="#727272"/><path d="M145.029,219.934c-.644.733-.496,1.859.319,2.399l5.762,3.851c.244.163.548.215.837.148l5.761-1.377c.823-.2,1.334-1.029,1.141-1.852-.2-.822-1.029-1.333-1.851-1.14l-5.022,1.2c-.155.037-.318,0-.444-.097l-4.34-3.354c-.667-.504-1.614-.408-2.17.222h.007Z" fill="#727272"/><path d="M141.763,215.238c.371,1.556,1.933,2.511,3.489,2.141c1.555-.371,2.51-1.933,2.14-3.489l1.229-.296c.467-.111.756-.577.645-1.051-.112-.467-.578-.756-1.052-.645l-1.23.296-.214-.896c-.104-.437-.548-.711-.985-.607l-4.037.963c-.436.104-.71.548-.607.985l.622,2.585v.014Z" fill="#727272"/><path id="eCNTKIEyFB718" d="M183.992,201.722h-28.232c-1.466,0-2.658,1.193-2.658,2.659v18.263l3.784-.903c1.111-.267,2.229.422,2.496,1.533.266,1.111-.422,2.229-1.533,2.496l-3.496.836c.407.26.889.408,1.407.408h28.239v-25.292h-.007Z" fill="#727272"/></g><clipPath id="eCNTKIEyFB719"><rect width="42.9953" height="47.7422" rx="0" ry="0" transform="translate(141.004 201.722)" fill="#fff"/></clipPath></g></g></g><path id="eCNTKIEyFB721" d="M588.337,54.5625h6.992v1.1328h-5.601v3.8906h4.578v1.1329h-4.578v4.1484h5.89v1.1328h-7.281v-11.4375Zm7.852,3.0703h1.445l2.414,7.0234l2.383-7.0234h1.375L600.861,66h-1.695l-2.977-8.3672Zm13.641,7.3125c-.302.4011-.69.7005-1.164.8985-.474.1979-.966.2968-1.477.2968-.369,0-.721-.0521-1.054-.1562-.334-.1042-.625-.2578-.875-.461-.25-.2083-.451-.4635-.602-.7656-.146-.3073-.219-.6614-.219-1.0625c0-.4271.081-.7864.243-1.0781.166-.2969.385-.5417.656-.7344.276-.1927.591-.3437.945-.4531s.719-.1875,1.094-.2344c.38-.0521.755-.0833,1.125-.0937.375-.0105.719-.0157,1.031-.0157h.297v-.0547c0-.3593-.026-.6874-.078-.9843-.047-.3021-.143-.5599-.289-.7735-.141-.2135-.341-.3802-.602-.5-.255-.1198-.588-.1796-1-.1796-.229,0-.453.0338-.672.1015-.218.0677-.421.1667-.609.2969-.187.125-.352.2786-.492.4609-.141.1771-.248.375-.32.5938l-1.133-.4922c.151-.349.338-.6511.562-.9063.229-.2604.487-.4765.774-.6484.286-.1719.596-.2995.929-.3828.334-.0886.683-.1328,1.047-.1328.469,0,.899.0703,1.289.2109.396.1354.735.3333,1.016.5938.286.2604.508.5781.664.9531.161.375.242.7995.242,1.2734v5.4844h-1.328v-1.0547Zm-1.148-2.9141c-.183,0-.381.0079-.594.0235-.214.0104-.43.0364-.649.0781-.213.0417-.421.099-.625.1719-.203.0729-.382.1719-.539.2969-.151.1198-.273.2682-.367.4453s-.14.388-.14.6328c0,.2552.036.4739.109.6562.078.1771.185.323.32.4375.136.1094.297.1901.485.2422.187.0469.393.0703.617.0703.307,0,.612-.0416.914-.125.302-.0885.573-.2187.812-.3906.24-.1719.433-.3828.578-.6328.151-.25.227-.5391.227-.8672v-1.0391h-1.148Zm4.758-8.1328l1.343-.5937v12.6953h-1.343v-12.1016Zm9.336,10.7735c-.25.5104-.604.8828-1.063,1.1172-.458.2343-.963.3515-1.515.3515-.505,0-.956-.0729-1.352-.2187-.39-.1459-.718-.3568-.984-.6328-.266-.2761-.469-.612-.609-1.0079-.136-.3958-.204-.8463-.204-1.3515v-5.2969h1.329v5.2344c0,.7187.184,1.2526.554,1.6016.37.3489.909.5234,1.617.5234.349,0,.662-.0547.938-.1641s.508-.263.695-.4609c.193-.2031.339-.4453.438-.7266.104-.2812.156-.5937.156-.9375v-5.0703h1.328v8.3672h-1.328v-1.3281Zm8.344.2734c-.302.4011-.69.7005-1.164.8985-.474.1979-.966.2968-1.477.2968-.369,0-.721-.0521-1.054-.1562-.334-.1042-.625-.2578-.875-.461-.25-.2083-.451-.4635-.602-.7656-.146-.3073-.219-.6614-.219-1.0625c0-.4271.081-.7864.243-1.0781.166-.2969.385-.5417.656-.7344.276-.1927.591-.3437.945-.4531s.719-.1875,1.094-.2344c.38-.0521.755-.0833,1.125-.0937.375-.0105.719-.0157,1.031-.0157h.297v-.0547c0-.3593-.026-.6874-.078-.9843-.047-.3021-.143-.5599-.289-.7735-.141-.2135-.341-.3802-.602-.5-.255-.1198-.588-.1796-1-.1796-.229,0-.453.0338-.672.1015-.218.0677-.421.1667-.609.2969-.187.125-.352.2786-.492.4609-.141.1771-.248.375-.32.5938l-1.133-.4922c.151-.349.338-.6511.562-.9063.229-.2604.487-.4765.774-.6484.286-.1719.596-.2995.929-.3828.334-.0886.683-.1328,1.047-.1328.469,0,.899.0703,1.289.2109.396.1354.735.3333,1.016.5938.286.2604.508.5781.664.9531.161.375.242.7995.242,1.2734v5.4844h-1.328v-1.0547Zm-1.148-2.9141c-.183,0-.381.0079-.594.0235-.214.0104-.43.0364-.649.0781-.213.0417-.421.099-.625.1719-.203.0729-.382.1719-.539.2969-.151.1198-.273.2682-.367.4453s-.14.388-.14.6328c0,.2552.036.4739.109.6562.078.1771.185.323.32.4375.136.1094.297.1901.485.2422.187.0469.393.0703.617.0703.307,0,.612-.0416.914-.125.302-.0885.573-.2187.812-.3906.24-.1719.433-.3828.578-.6328.151-.25.227-.5391.227-.8672v-1.0391h-1.148Zm8.398,3.9063c-.364.1146-.747.1719-1.148.1719-.729,0-1.287-.1797-1.672-.5391-.38-.3594-.57-.9141-.57-1.6641v-5.1562h-1.203v-1.1172h1.203v-1.5703l1.328-.5781v2.1484h1.953v1.1172h-1.953v5.0234c0,.1771.018.3412.055.4922.036.1459.096.2735.179.3828.084.1094.196.1954.336.2578.141.0573.315.086.524.086.302,0,.625-.0599.968-.1797v1.125Zm8.54-1.8516c-.381.6823-.865,1.1953-1.453,1.5391-.589.3438-1.269.5156-2.04.5156-.635,0-1.205-.112-1.71-.3359-.5-.2292-.925-.5391-1.274-.9297-.344-.3906-.607-.8464-.789-1.3672-.182-.526-.273-1.0833-.273-1.6719c0-.5937.091-1.1536.273-1.6797.182-.526.443-.9869.781-1.3828.339-.3958.748-.7083,1.227-.9375.484-.2343,1.029-.3515,1.633-.3515.703,0,1.294.1224,1.773.3672s.867.5755,1.164.9922c.297.4166.508.9036.633,1.4609.13.5573.195,1.1484.195,1.7734h-6.304c-.006.4167.049.8047.164,1.1641.114.3594.284.6719.507.9375.23.2656.511.4739.844.625.339.151.727.2265,1.164.2265.245,0,.479-.0364.703-.1093s.433-.1745.625-.3047c.193-.1354.368-.2917.524-.4688.156-.1823.289-.3776.398-.5859l1.235.5234Zm-1.235-3.0781c-.021-.7396-.234-1.3255-.64-1.7578-.407-.4375-.99-.6562-1.75-.6562-.349,0-.67.0624-.961.1874-.287.125-.537.2969-.75.5157-.214.2187-.388.4739-.524.7656-.13.2917-.216.6068-.258.9453h4.883Zm12.86,3.0781c-.38.6823-.864,1.1953-1.453,1.5391-.588.3438-1.268.5156-2.039.5156-.635,0-1.206-.112-1.711-.3359-.5-.2292-.924-.5391-1.273-.9297-.344-.3906-.607-.8464-.789-1.3672-.183-.526-.274-1.0833-.274-1.6719c0-.5937.091-1.1536.274-1.6797.182-.526.442-.9869.781-1.3828.338-.3958.747-.7083,1.226-.9375.485-.2343,1.029-.3515,1.633-.3515.703,0,1.295.1224,1.774.3672s.867.5755,1.164.9922c.297.4166.508.9036.633,1.4609.13.5573.195,1.1484.195,1.7734h-6.305c-.005.4167.05.8047.164,1.1641.115.3594.284.6719.508.9375.229.2656.511.4739.844.625.338.151.726.2265,1.164.2265.245,0,.479-.0364.703-.1093s.432-.1745.625-.3047c.193-.1354.367-.2917.523-.4688.157-.1823.29-.3776.399-.5859l1.234.5234Zm-1.234-3.0781c-.021-.7396-.234-1.3255-.641-1.7578-.406-.4375-.989-.6562-1.75-.6562-.349,0-.669.0624-.961.1874-.286.125-.536.2969-.75.5157-.213.2187-.388.4739-.523.7656-.13.2917-.216.6068-.258.9453h4.883Zm4.985.6875l-2.797-4.0625h1.554l2.047,3.0391l2.032-3.0391h1.437l-2.766,3.9688L666.848,66h-1.57l-2.25-3.375L660.723,66h-1.43l2.993-4.3047Zm6.008-4.0469h1.328v8.3516h-1.328v-8.3516Zm-.242-2.4218c0-.25.083-.4584.25-.625.171-.1719.382-.2578.632-.2578s.459.0859.625.2578c.172.1666.258.375.258.625s-.086.4609-.258.6328c-.166.1666-.375.25-.625.25s-.461-.0834-.632-.25c-.167-.1719-.25-.3828-.25-.6328Zm4.258,8.289c.156.4844.422.8594.797,1.125.38.2604.822.3906,1.328.3906.229,0,.455-.0208.679-.0624.224-.0469.425-.1198.602-.2188.177-.1042.32-.2396.43-.4062.109-.1667.164-.375.164-.625s-.058-.4558-.172-.6172c-.11-.1667-.261-.3047-.453-.4141-.188-.1094-.404-.1979-.649-.2656-.245-.0729-.5-.1407-.765-.2031-.318-.0782-.636-.1641-.953-.2579-.318-.0937-.605-.2239-.86-.3906-.255-.1719-.463-.3932-.625-.6641-.156-.276-.234-.6302-.234-1.0624c0-.3698.08-.7006.242-.9922.161-.2917.372-.5391.633-.7422.26-.2032.557-.3568.89-.461.334-.1093.675-.164,1.024-.164.64,0,1.216.1718,1.726.5156.516.3385.927.8021,1.235,1.3906l-1.024.4532c-.187-.4063-.461-.7162-.82-.9297-.354-.2136-.742-.3203-1.164-.3203-.188,0-.372.0234-.555.0703-.177.0416-.338.1119-.484.2109-.141.099-.255.2266-.344.3828-.083.1511-.125.3333-.125.5469c0,.2396.055.4375.164.5937.115.1563.263.2865.446.3907.187.0989.403.1797.648.2421.245.0626.5.1224.766.1797.322.0677.645.1459.968.2344.323.0833.615.2083.875.375.261.1615.472.3802.633.6563.162.2708.242.625.242,1.0625c0,.4479-.086.8359-.257,1.164-.172.3281-.402.599-.688.8125s-.615.3724-.984.4766c-.37.0989-.753.1484-1.149.1484-.765,0-1.432-.1823-2-.5468-.562-.3698-.966-.9141-1.211-1.6329l1.024-.4453Zm10.586,2.4219c-.365.1146-.747.1719-1.149.1719-.729,0-1.286-.1797-1.671-.5391-.381-.3594-.571-.9141-.571-1.6641v-5.1562h-1.203v-1.1172h1.203v-1.5703l1.328-.5781v2.1484h1.954v1.1172h-1.954v5.0234c0,.1771.019.3412.055.4922.037.1459.096.2735.18.3828.083.1094.195.1954.336.2578.14.0573.315.086.523.086.302,0,.625-.0599.969-.1797v1.125Zm1.656-8.2891h1.329v8.3516h-1.329v-8.3516Zm-.242-2.4218c0-.25.084-.4584.25-.625.172-.1719.383-.2578.633-.2578s.458.0859.625.2578c.172.1666.258.375.258.625s-.086.4609-.258.6328c-.167.1666-.375.25-.625.25s-.461-.0834-.633-.25c-.166-.1719-.25-.3828-.25-.6328Zm3.922,2.4062h1.329v1.3281c.13-.2604.291-.4817.484-.664.193-.1875.406-.3412.641-.461.239-.1198.492-.2083.757-.2656.271-.0573.55-.0859.836-.0859.521,0,.974.0885,1.36.2656.385.1719.703.4115.953.7188.255.3072.445.6744.57,1.1015.125.4219.188.8802.188,1.375v5.0547h-1.328v-5.1484c0-.7136-.17-1.2605-.508-1.6407-.339-.3802-.854-.5703-1.547-.5703-.365,0-.695.0547-.992.1641-.292.1042-.545.2552-.758.4531-.208.1979-.37.4375-.485.7188-.114.2812-.171.5989-.171.9531v5.0703h-1.329v-8.3672Zm9.962,8.9297c.12.2552.278.4687.476.6406.203.1771.425.3203.664.4297.245.1094.5.1875.766.2344.271.0469.536.0703.797.0703.411,0,.792-.0547,1.14-.1641.349-.1093.652-.2708.907-.4843.255-.2136.455-.4844.601-.8125.146-.323.219-.698.219-1.125v-1.2266c-.156.25-.346.474-.57.6719-.219.1979-.461.3672-.727.5078-.26.1354-.536.2396-.828.3125-.286.0729-.575.1094-.867.1094-.583,0-1.11-.1068-1.578-.3204-.469-.2187-.87-.5104-1.203-.875-.329-.3697-.584-.7994-.766-1.289-.177-.4896-.266-1.0078-.266-1.5547c0-.5677.094-1.1068.282-1.6172.192-.5104.461-.9557.804-1.3359.344-.3854.756-.6901,1.235-.9141s1.005-.3359,1.578-.3359c.291,0,.578.0312.859.0937s.547.1563.797.2813.482.2812.695.4687c.214.1875.399.4063.555.6563v-1.3516h1.328v7.7969c0,.6094-.112,1.1406-.336,1.5937-.224.4532-.528.8308-.914,1.1328-.38.3021-.828.5261-1.344.6719-.51.1511-1.054.2266-1.632.2266-.381,0-.756-.0365-1.125-.1094-.365-.0677-.711-.1823-1.039-.3437-.323-.1563-.62-.3646-.891-.625-.266-.2605-.49-.5782-.672-.9532l1.055-.4609Zm2.797-1.9531c.448,0,.846-.0782,1.195-.2344.354-.1615.651-.3802.891-.6562.239-.2813.421-.6068.546-.9766.125-.375.188-.7761.188-1.2031c0-.4167-.06-.8047-.18-1.1641s-.297-.6693-.531-.9297c-.229-.2656-.51-.4713-.844-.6172-.333-.151-.713-.2265-1.14-.2265-.459,0-.862.0833-1.211.25-.344.1666-.633.3932-.868.6796-.234.2865-.411.6172-.531.9922-.114.3698-.172.7631-.172,1.1797c0,.375.063.7396.188,1.0938.13.3489.312.6588.547.9297.234.2656.513.4791.836.6406.328.1614.69.2422,1.086.2422Zm-86.992,17.039h1.328v8.3516h-1.328v-8.3516Zm-.242-2.4218c0-.25.083-.4584.25-.625.171-.1719.382-.2578.632-.2578s.459.0859.625.2578c.172.1666.258.375.258.625s-.086.4609-.258.6328c-.166.1666-.375.25-.625.25s-.461-.0834-.632-.25c-.167-.1719-.25-.3828-.25-.6328Zm3.922,2.4062h1.328v1.3281c.13-.2604.292-.4817.484-.664.193-.1875.406-.3412.641-.461.239-.1198.492-.2083.758-.2656.271-.0573.549-.0859.836-.0859.52,0,.974.0885,1.359.2656.385.1719.703.4115.953.7188.255.3072.445.6744.57,1.1015.125.4219.188.8802.188,1.375v5.0547h-1.328v-5.1484c0-.7136-.169-1.2605-.508-1.6407s-.854-.5703-1.547-.5703c-.364,0-.695.0547-.992.1641-.292.1042-.544.2552-.758.4531-.208.1979-.37.4375-.484.7188-.115.2812-.172.5989-.172.9531v5.0703h-1.328v-8.3672Zm8.328,0h1.445l2.415,7.0234l2.382-7.0234h1.375L630.679,90h-1.695l-2.977-8.3672Zm15.774,6.4531c-.38.6823-.865,1.1953-1.453,1.5391-.589.3438-1.268.5156-2.039.5156-.636,0-1.206-.112-1.711-.3359-.5-.2292-.925-.5391-1.274-.9297-.343-.3906-.606-.8464-.789-1.3672-.182-.526-.273-1.0833-.273-1.6719c0-.5937.091-1.1536.273-1.6797.183-.526.443-.9869.782-1.3828.338-.3958.747-.7083,1.226-.9375.484-.2343,1.029-.3515,1.633-.3515.703,0,1.294.1224,1.773.3672.48.2448.868.5755,1.164.9922.297.4166.508.9036.633,1.4609.13.5573.196,1.1484.196,1.7734h-6.305c-.005.4167.049.8047.164,1.1641s.284.6719.508.9375c.229.2656.51.4739.843.625.339.151.727.2265,1.165.2265.244,0,.479-.0364.703-.1093s.432-.1745.625-.3047c.192-.1354.367-.2917.523-.4688.156-.1823.289-.3776.399-.5859l1.234.5234Zm-1.234-3.0781c-.021-.7396-.235-1.3255-.641-1.7578-.406-.4375-.99-.6562-1.75-.6562-.349,0-.669.0624-.961.1874-.286.125-.536.2969-.75.5157s-.388.4739-.523.7656c-.131.2917-.217.6068-.258.9453h4.883Zm3.015-3.375h1.329v1.3281c.13-.2604.291-.4817.484-.664.193-.1875.406-.3412.641-.461.239-.1198.492-.2083.757-.2656.271-.0573.55-.0859.836-.0859.521,0,.974.0885,1.36.2656.385.1719.703.4115.953.7188.255.3072.445.6744.57,1.1015.125.4219.188.8802.188,1.375v5.0547h-1.328v-5.1484c0-.7136-.17-1.2605-.508-1.6407-.339-.3802-.854-.5703-1.547-.5703-.365,0-.695.0547-.992.1641-.292.1042-.545.2552-.758.4531-.208.1979-.37.4375-.485.7188-.114.2812-.171.5989-.171.9531v5.0703h-1.329v-8.3672Zm13.032,8.3047c-.365.1146-.747.1719-1.148.1719-.73,0-1.287-.1797-1.672-.5391-.38-.3594-.571-.9141-.571-1.6641v-5.1562h-1.203v-1.1172h1.203v-1.5703l1.329-.5781v2.1484h1.953v1.1172h-1.953v5.0234c0,.1771.018.3412.054.4922.037.1459.097.2735.18.3828.083.1094.195.1954.336.2578.141.0573.315.086.523.086.302,0,.625-.0599.969-.1797v1.125Zm5.11.2031c-.625,0-1.193-.112-1.703-.3359-.506-.224-.938-.5287-1.297-.9141-.354-.3906-.628-.8463-.821-1.3672-.192-.526-.289-1.0885-.289-1.6875c0-.6198.102-1.1953.305-1.7265.208-.5313.495-.9896.859-1.375.37-.3906.813-.6953,1.329-.9141.515-.2239,1.08-.3359,1.695-.3359.625,0,1.193.112,1.703.3359.51.224.945.5313,1.305.9219.359.3906.635.8489.828,1.375.198.5208.297,1.0807.297,1.6797c0,.6146-.104,1.1875-.313,1.7187-.203.5313-.492.9922-.867,1.3828-.37.3855-.812.6901-1.328.9141-.516.2187-1.083.3281-1.703.3281Zm.023-1.1094c.479,0,.896-.0885,1.25-.2656s.646-.414.875-.7109c.235-.2969.406-.638.516-1.0235.114-.3906.172-.7968.172-1.2187c0-.4375-.06-.849-.18-1.2344-.115-.3906-.292-.7317-.531-1.0234-.235-.2969-.529-.5313-.883-.7031-.354-.1719-.766-.2578-1.234-.2578-.474,0-.886.0885-1.235.2656-.344.1718-.627.4062-.851.7031s-.391.6406-.5,1.0313c-.105.3854-.157.7942-.157,1.2265c0,.4531.058.875.172,1.2656.115.3907.287.7318.516,1.0235.234.2864.523.513.867.6797.344.1614.745.2421,1.203.2421Zm5.875-7.3984h1.329v1.5c.302-.5625.677-.9713,1.125-1.2266.453-.2604.994-.401,1.625-.4218v1.25c-.459.0156-.86.0755-1.204.1797-.343.0989-.63.2552-.859.4687-.229.2083-.401.4792-.516.8125-.114.3281-.171.7318-.171,1.2109v4.5938h-1.329v-8.3672Zm7.985,7.5l-3.234-7.5h1.422l2.515,6l2.321-6h1.359l-4.625,11.2813h-1.344l1.586-3.7813Z" fill="#bababa"/><path id="eCNTKIEyFB722" d="M851.67,62.5078c.245.7917.636,1.4089,1.172,1.8516.537.4375,1.169.6562,1.899.6562.364,0,.703-.0547,1.015-.164.318-.1094.591-.2605.821-.4532.229-.1927.408-.4192.539-.6796.135-.2657.203-.5521.203-.8594c0-.3906-.081-.7084-.242-.9532-.157-.2447-.365-.4427-.625-.5937-.261-.1563-.563-.2786-.907-.3672-.338-.0885-.692-.1719-1.062-.25-.281-.0625-.568-.1276-.86-.1953-.286-.0677-.562-.151-.828-.25-.265-.1042-.515-.2292-.75-.375-.234-.1458-.437-.3255-.609-.5391s-.307-.4687-.406-.7656-.149-.6458-.149-1.0469c0-.4427.094-.8541.281-1.2343.188-.3802.443-.711.766-.9922.328-.2813.711-.5,1.149-.6563.437-.1614.906-.2422,1.406-.2422.911,0,1.669.2214,2.273.6641.61.4375,1.112,1.1016,1.508,1.9922l-1.148.5156c-.261-.6406-.615-1.1406-1.063-1.5-.443-.3646-.966-.5469-1.57-.5469-.344,0-.659.0443-.946.1328-.281.0834-.523.2084-.726.375-.203.1615-.359.3646-.469.6094-.109.2396-.164.513-.164.8203c0,.3907.083.7084.25.9532s.386.4427.656.5937c.276.1511.586.2708.93.3594s.695.1693,1.055.2422c.437.0885.87.1901,1.297.3047.432.1145.817.2812,1.156.5.338.2187.612.513.82.8828.214.3698.32.8567.32,1.4609c0,.4688-.104.9089-.312,1.3203-.203.4063-.484.763-.844,1.0703-.359.3073-.778.5495-1.258.7266-.479.1771-.992.2656-1.539.2656-1.114,0-2.02-.25-2.718-.75-.698-.5052-1.222-1.2864-1.571-2.3437l1.25-.5391Zm16.11,1.0547c-.328.8385-.82,1.4792-1.477,1.9219-.656.4375-1.429.6562-2.32.6562-.641,0-1.211-.112-1.711-.3359-.495-.2292-.914-.5391-1.258-.9297-.343-.3958-.604-.8594-.781-1.3906s-.266-1.1016-.266-1.711c0-.5937.099-1.151.297-1.6718s.477-.974.836-1.3594c.36-.3906.789-.6979,1.289-.9219.506-.2239,1.063-.3359,1.672-.3359c1.709,0,2.93.7734,3.664,2.3203l-1.211.5312c-.093-.2552-.226-.4895-.398-.7031-.167-.2135-.362-.3958-.586-.5469-.224-.1562-.471-.276-.742-.3593-.266-.0886-.544-.1328-.836-.1328-.443,0-.828.0963-1.156.289-.323.1875-.594.4375-.813.75-.213.3073-.375.6589-.484,1.0547-.104.3958-.157.7995-.157,1.2109c0,.4271.055.8308.165,1.211.114.375.283.7057.507.9922.23.2864.516.513.86.6796.343.1667.745.25,1.203.25.307,0,.596-.0468.867-.1406.271-.0989.516-.2344.734-.4062.219-.1771.409-.3854.571-.625.161-.2448.286-.5104.375-.7969l1.156.5Zm1.633-9.7187h1.328v5.1171c.266-.5156.633-.8906,1.102-1.125s.989-.3515,1.562-.3515c.516,0,.969.0885,1.36.2656.39.1719.716.4141.976.7266.261.3073.456.6718.586,1.0937.136.4219.203.8802.203,1.375v5.0547h-1.328v-5.1484c0-.724-.177-1.2735-.531-1.6485s-.878-.5625-1.57-.5625c-.745,0-1.326.2058-1.743.6172-.411.4063-.617.9636-.617,1.6719v5.0703h-1.328v-12.1562Zm16.266,10.2421c-.38.6823-.865,1.1953-1.453,1.5391-.589.3438-1.268.5156-2.039.5156-.636,0-1.206-.112-1.711-.3359-.5-.2292-.925-.5391-1.274-.9297-.343-.3906-.606-.8464-.789-1.3672-.182-.526-.273-1.0833-.273-1.6719c0-.5937.091-1.1536.273-1.6797.183-.526.443-.9869.782-1.3828.338-.3958.747-.7083,1.226-.9375.485-.2343,1.029-.3515,1.633-.3515.703,0,1.294.1224,1.773.3672.48.2448.868.5755,1.165.9922.296.4166.507.9036.632,1.4609.131.5573.196,1.1484.196,1.7734h-6.305c-.005.4167.049.8047.164,1.1641s.284.6719.508.9375c.229.2656.51.4739.844.625.338.151.726.2265,1.164.2265.244,0,.479-.0364.703-.1093s.432-.1745.625-.3047c.193-.1354.367-.2917.523-.4688.156-.1823.289-.3776.399-.5859l1.234.5234Zm-1.234-3.0781c-.021-.7396-.235-1.3255-.641-1.7578-.406-.4375-.99-.6562-1.75-.6562-.349,0-.669.0624-.961.1874-.286.125-.536.2969-.75.5157-.213.2187-.388.4739-.523.7656-.131.2917-.216.6068-.258.9453h4.883Zm9.195,3.5469c-.156.2396-.349.4583-.578.6562-.224.198-.471.3646-.742.5-.271.1355-.555.2396-.852.3125-.291.0782-.578.1172-.859.1172-.63,0-1.182-.112-1.656-.3359-.474-.2292-.867-.5365-1.18-.9219-.312-.3906-.547-.8463-.703-1.3672-.156-.5208-.234-1.0755-.234-1.664c0-.5782.086-1.1302.257-1.6563.178-.5312.433-.9974.766-1.3984.333-.4011.74-.7188,1.219-.9531.479-.2396,1.026-.3594,1.64-.3594.297,0,.586.0312.868.0937.281.0573.546.1485.796.2735.256.1198.49.2734.704.4609.213.1875.398.4089.554.6641v-5.1328h1.328v12.1562h-1.328v-1.4453Zm-2.836.4765c.495,0,.922-.0859,1.282-.2578.359-.1718.658-.4062.898-.7031s.417-.6458.531-1.0469c.115-.401.172-.8307.172-1.289c0-.4427-.055-.8542-.164-1.2344-.109-.3854-.276-.7188-.5-1s-.51-.5026-.859-.6641c-.344-.1614-.753-.2421-1.227-.2421-.505,0-.932.0911-1.281.2734-.344.1771-.625.4193-.844.7266-.213.302-.367.6536-.461,1.0546s-.14.823-.14,1.2657c0,.3958.052.7812.156,1.1562s.263.7083.476,1c.214.2917.482.5261.805.7031.328.1719.714.2578,1.156.2578Zm12.126-.3593c-.25.5104-.604.8828-1.063,1.1172-.458.2343-.963.3515-1.515.3515-.506,0-.956-.0729-1.352-.2187-.391-.1459-.719-.3568-.984-.6328-.266-.2761-.469-.612-.61-1.0079-.135-.3958-.203-.8463-.203-1.3515v-5.2969h1.328v5.2344c0,.7187.185,1.2526.555,1.6016.37.3489.909.5234,1.617.5234.349,0,.662-.0547.938-.1641s.507-.263.695-.4609c.193-.2031.338-.4453.437-.7266.105-.2812.157-.5937.157-.9375v-5.0703h1.328v8.3672h-1.328v-1.3281Zm3.148-10.7735l1.344-.5937v12.6953h-1.344v-12.1016ZM846.643,81.6328h1.328v1.4063c.146-.2448.331-.461.555-.6485.229-.1927.476-.3567.742-.4922.271-.1354.552-.2369.844-.3046.292-.073.575-.1094.851-.1094.636,0,1.191.1146,1.664.3437.48.2292.875.5391,1.188.9297.318.3906.555.8438.711,1.3594.161.5156.242,1.0625.242,1.6406c0,.5886-.083,1.1484-.25,1.6797-.161.5313-.401.9974-.719,1.3984-.312.4011-.703.7188-1.172.9532-.468.2343-1.007.3515-1.617.3515-.302,0-.601-.0312-.898-.0937s-.578-.1563-.844-.2813c-.266-.1302-.51-.289-.734-.4765-.224-.1927-.412-.4167-.563-.6719v4.2969h-1.328v-11.2813Zm4.109,7.3984c.5,0,.92-.0885,1.258-.2656.339-.1771.61-.414.813-.7109.203-.3021.349-.6511.437-1.0469.089-.3958.133-.8125.133-1.25c0-.4062-.055-.7995-.164-1.1797s-.273-.7161-.492-1.0078c-.219-.2969-.495-.5338-.828-.7109-.334-.1771-.724-.2656-1.172-.2656-.49,0-.912.0885-1.266.2656-.354.1718-.646.4062-.875.7031s-.398.6406-.508,1.0313c-.109.3906-.164.8046-.164,1.2421c0,.4584.058.8829.172,1.2735.12.3854.297.7213.531,1.0078.235.2864.529.5104.883.6719.354.1614.769.2421,1.242.2421Zm5.712-7.3984h1.328v1.5c.302-.5625.677-.9713,1.125-1.2266.453-.2604.995-.401,1.625-.4218v1.25c-.458.0156-.86.0755-1.203.1797-.344.0989-.63.2552-.86.4687-.229.2083-.401.4792-.515.8125-.115.3281-.172.7318-.172,1.2109v4.5938h-1.328v-8.3672Zm8.617,8.5078c-.625,0-1.192-.112-1.703-.3359-.505-.224-.937-.5287-1.297-.9141-.354-.3906-.627-.8463-.82-1.3672-.193-.526-.289-1.0885-.289-1.6875c0-.6198.101-1.1953.305-1.7265.208-.5313.494-.9896.859-1.375.37-.3906.812-.6953,1.328-.9141.516-.2239,1.081-.3359,1.695-.3359.625,0,1.193.112,1.703.3359.511.224.946.5313,1.305.9219.36.3906.636.8489.828,1.375.198.5208.297,1.0807.297,1.6797c0,.6146-.104,1.1875-.312,1.7187-.203.5313-.493.9922-.868,1.3828-.369.3855-.812.6901-1.328.9141-.515.2187-1.083.3281-1.703.3281Zm.024-1.1094c.479,0,.896-.0885,1.25-.2656s.646-.414.875-.7109c.234-.2969.406-.638.515-1.0235.115-.3906.172-.7968.172-1.2187c0-.4375-.06-.849-.18-1.2344-.114-.3906-.291-.7317-.531-1.0234-.234-.2969-.528-.5313-.883-.7031-.354-.1719-.765-.2578-1.234-.2578-.474,0-.885.0885-1.234.2656-.344.1718-.628.4062-.852.7031s-.391.6406-.5,1.0313c-.104.3854-.156.7942-.156,1.2265c0,.4531.057.875.172,1.2656.114.3907.286.7318.515,1.0235.235.2864.524.513.868.6797.343.1614.744.2421,1.203.2421Zm12.055-.4765c-.157.2396-.349.4583-.578.6562-.224.198-.472.3646-.743.5-.27.1355-.554.2396-.851.3125-.292.0782-.578.1172-.86.1172-.63,0-1.182-.112-1.656-.3359-.474-.2292-.867-.5365-1.18-.9219-.312-.3906-.546-.8463-.703-1.3672-.156-.5208-.234-1.0755-.234-1.664c0-.5782.086-1.1302.258-1.6563.177-.5312.432-.9974.765-1.3984.334-.4011.74-.7188,1.219-.9531.479-.2396,1.026-.3594,1.641-.3594.297,0,.586.0312.867.0937.281.0573.547.1485.797.2735.255.1198.489.2734.703.4609s.398.4089.555.6641v-5.1328h1.328v12.1562h-1.328v-1.4453Zm-2.836.4765c.495,0,.922-.0859,1.281-.2578.359-.1718.659-.4062.898-.7031.24-.2969.417-.6458.532-1.0469.114-.401.172-.8307.172-1.289c0-.4427-.055-.8542-.165-1.2344-.109-.3854-.276-.7188-.5-1-.223-.2812-.51-.5026-.859-.6641-.344-.1614-.752-.2421-1.226-.2421-.506,0-.933.0911-1.282.2734-.343.1771-.625.4193-.843.7266-.214.302-.368.6536-.461,1.0546-.094.4011-.141.823-.141,1.2657c0,.3958.052.7812.156,1.1562s.263.7083.477,1c.213.2917.482.5261.804.7031.329.1719.714.2578,1.157.2578Zm12.125-.3593c-.25.5104-.604.8828-1.062,1.1172-.459.2343-.964.3515-1.516.3515-.505,0-.956-.0729-1.352-.2187-.39-.1459-.718-.3568-.984-.6328-.266-.2761-.469-.612-.609-1.0079-.136-.3958-.204-.8463-.204-1.3515v-5.2969h1.329v5.2344c0,.7187.185,1.2526.554,1.6016.37.3489.909.5234,1.617.5234.349,0,.662-.0547.938-.1641s.508-.263.695-.4609c.193-.2031.339-.4453.438-.7266.104-.2812.156-.5937.156-.9375v-5.0703h1.328v8.3672h-1.328v-1.3281Zm10.828-1.1094c-.328.8385-.82,1.4792-1.476,1.9219-.656.4375-1.43.6562-2.32.6562-.641,0-1.211-.112-1.711-.3359-.495-.2292-.914-.5391-1.258-.9297-.344-.3958-.604-.8594-.781-1.3906s-.266-1.1016-.266-1.711c0-.5937.099-1.151.297-1.6718.198-.5209.476-.974.836-1.3594.359-.3906.789-.6979,1.289-.9219.505-.2239,1.062-.3359,1.672-.3359c1.708,0,2.929.7734,3.664,2.3203l-1.211.5312c-.094-.2552-.227-.4895-.399-.7031-.166-.2135-.362-.3958-.586-.5469-.223-.1562-.471-.276-.742-.3593-.265-.0886-.544-.1328-.836-.1328-.442,0-.828.0963-1.156.289-.323.1875-.594.4375-.812.75-.214.3073-.375.6589-.485,1.0547-.104.3958-.156.7995-.156,1.2109c0,.4271.055.8308.164,1.211.115.375.284.7057.508.9922.229.2864.515.513.859.6796.344.1667.745.25,1.203.25.308,0,.597-.0468.868-.1406.27-.0989.515-.2344.734-.4062.219-.1771.409-.3854.57-.625.162-.2448.287-.5104.375-.7969l1.156.5Zm5.313,2.375c-.364.1146-.747.1719-1.148.1719-.729,0-1.287-.1797-1.672-.5391-.38-.3594-.57-.9141-.57-1.6641v-5.1562h-1.203v-1.1172h1.203v-1.5703l1.328-.5781v2.1484h1.953v1.1172h-1.953v5.0234c0,.1771.018.3412.055.4922.036.1459.096.2735.179.3828.084.1094.196.1954.336.2578.141.0573.315.086.524.086.302,0,.625-.0599.968-.1797v1.125Zm1.657-8.2891h1.328v8.3516h-1.328v-8.3516Zm-.242-2.4218c0-.25.083-.4584.25-.625.172-.1719.382-.2578.632-.2578s.459.0859.625.2578c.172.1666.258.375.258.625s-.086.4609-.258.6328c-.166.1666-.375.25-.625.25s-.46-.0834-.632-.25c-.167-.1719-.25-.3828-.25-.6328Zm7.406,10.914c-.625,0-1.192-.112-1.703-.3359-.505-.224-.937-.5287-1.297-.9141-.354-.3906-.627-.8463-.82-1.3672-.193-.526-.289-1.0885-.289-1.6875c0-.6198.101-1.1953.305-1.7265.208-.5313.494-.9896.859-1.375.37-.3906.812-.6953,1.328-.9141.516-.2239,1.081-.3359,1.695-.3359.625,0,1.193.112,1.703.3359.511.224.946.5313,1.305.9219.36.3906.636.8489.828,1.375.198.5208.297,1.0807.297,1.6797c0,.6146-.104,1.1875-.312,1.7187-.203.5313-.493.9922-.868,1.3828-.369.3855-.812.6901-1.328.9141-.515.2187-1.083.3281-1.703.3281Zm.024-1.1094c.479,0,.896-.0885,1.25-.2656s.646-.414.875-.7109c.234-.2969.406-.638.515-1.0235.115-.3906.172-.7968.172-1.2187c0-.4375-.06-.849-.18-1.2344-.114-.3906-.291-.7317-.531-1.0234-.234-.2969-.528-.5313-.883-.7031-.354-.1719-.765-.2578-1.234-.2578-.474,0-.885.0885-1.234.2656-.344.1718-.628.4062-.852.7031s-.391.6406-.5,1.0313c-.104.3854-.156.7942-.156,1.2265c0,.4531.057.875.172,1.2656.114.3907.286.7318.515,1.0235.235.2864.524.513.868.6797.343.1614.744.2421,1.203.2421Zm5.875-7.3984h1.328v1.3281c.13-.2604.292-.4817.484-.664.193-.1875.407-.3412.641-.461.24-.1198.492-.2083.758-.2656.271-.0573.549-.0859.836-.0859.521,0,.974.0885,1.359.2656.386.1719.703.4115.953.7188.256.3072.446.6744.571,1.1015.125.4219.187.8802.187,1.375v5.0547h-1.328v-5.1484c0-.7136-.169-1.2605-.508-1.6407-.338-.3802-.854-.5703-1.547-.5703-.364,0-.695.0547-.992.1641-.291.1042-.544.2552-.758.4531-.208.1979-.369.4375-.484.7188-.115.2812-.172.5989-.172.9531v5.0703h-1.328v-8.3672Z" fill="#bababa"/><path id="eCNTKIEyFB723" d="M880.679,64.0859c-.38.6823-.865,1.1953-1.453,1.5391-.589.3438-1.268.5156-2.039.5156-.636,0-1.206-.112-1.711-.3359-.5-.2292-.925-.5391-1.274-.9297-.343-.3906-.606-.8464-.789-1.3672-.182-.526-.273-1.0833-.273-1.6719c0-.5937.091-1.1536.273-1.6797.183-.526.443-.9869.782-1.3828.338-.3958.747-.7083,1.226-.9375.485-.2343,1.029-.3515,1.633-.3515.703,0,1.294.1224,1.773.3672.48.2448.868.5755,1.165.9922.296.4166.507.9036.632,1.4609.131.5573.196,1.1484.196,1.7734h-6.305c-.005.4167.049.8047.164,1.1641s.284.6719.508.9375c.229.2656.51.4739.844.625.338.151.726.2265,1.164.2265.244,0,.479-.0364.703-.1093s.432-.1745.625-.3047c.193-.1354.367-.2917.523-.4688.156-.1823.289-.3776.399-.5859l1.234.5234Zm-1.234-3.0781c-.021-.7396-.235-1.3255-.641-1.7578-.406-.4375-.99-.6562-1.75-.6562-.349,0-.669.0624-.961.1874-.286.125-.536.2969-.75.5157-.213.2187-.388.4739-.523.7656-.131.2917-.216.6068-.258.9453h4.883Z" transform="translate(35.86 0)" fill="#bababa"/><path id="eCNTKIEyFB724" d="M1090.08,54.5625h1.93l3.67,9.0703l3.61-9.0703h1.93v11.4375h-1.39v-9.6328L1095.95,66h-.59l-4-9.6328v9.6328h-1.28v-11.4375Zm17.04,11.5781c-.62,0-1.19-.112-1.7-.3359-.5-.224-.94-.5287-1.3-.9141-.35-.3906-.62-.8463-.82-1.3672-.19-.526-.29-1.0885-.29-1.6875c0-.6198.11-1.1953.31-1.7265.21-.5313.49-.9896.86-1.375.37-.3906.81-.6953,1.33-.9141.51-.2239,1.08-.3359,1.69-.3359.63,0,1.19.112,1.7.3359.52.224.95.5313,1.31.9219s.63.8489.83,1.375c.2.5208.29,1.0807.29,1.6797c0,.6146-.1,1.1875-.31,1.7187-.2.5313-.49.9922-.87,1.3828-.37.3855-.81.6901-1.32.9141-.52.2187-1.09.3281-1.71.3281Zm.03-1.1094c.48,0,.89-.0885,1.25-.2656.35-.1771.64-.414.87-.7109.24-.2969.41-.638.52-1.0235.11-.3906.17-.7968.17-1.2187c0-.4375-.06-.849-.18-1.2344-.11-.3906-.29-.7317-.53-1.0234-.24-.2969-.53-.5313-.88-.7031-.36-.1719-.77-.2578-1.24-.2578s-.88.0885-1.23.2656c-.35.1718-.63.4062-.85.7031-.23.2969-.4.6406-.5,1.0313-.11.3854-.16.7942-.16,1.2265c0,.4531.06.875.17,1.2656.12.3907.29.7318.52,1.0235.23.2864.52.513.86.6797.35.1614.75.2421,1.21.2421Zm5.87-7.3984h1.33v1.3281c.13-.2604.29-.4817.48-.664.2-.1875.41-.3412.65-.461.23-.1198.49-.2083.75-.2656.27-.0573.55-.0859.84-.0859.52,0,.97.0885,1.36.2656.38.1719.7.4115.95.7188.26.3072.45.6744.57,1.1015.13.4219.19.8802.19,1.375v5.0547h-1.33v-5.1484c0-.7136-.17-1.2605-.51-1.6407s-.85-.5703-1.54-.5703c-.37,0-.7.0547-1,.1641-.29.1042-.54.2552-.75.4531s-.37.4375-.49.7188c-.11.2812-.17.5989-.17.9531v5.0703h-1.33v-8.3672Zm9.39.0156h1.32v8.3516h-1.32v-8.3516Zm-.25-2.4218c0-.25.09-.4584.25-.625.17-.1719.39-.2578.64-.2578s.45.0859.62.2578c.17.1666.26.375.26.625s-.09.4609-.26.6328c-.17.1666-.37.25-.62.25s-.47-.0834-.64-.25c-.16-.1719-.25-.3828-.25-.6328Zm7.6,10.7109c-.36.1146-.74.1719-1.14.1719-.73,0-1.29-.1797-1.68-.5391-.38-.3594-.57-.9141-.57-1.6641v-5.1562h-1.2v-1.1172h1.2v-1.5703l1.33-.5781v2.1484h1.96v1.1172h-1.96v5.0234c0,.1771.02.3412.06.4922.03.1459.09.2735.18.3828.08.1094.19.1954.33.2578.14.0573.32.086.53.086.3,0,.62-.0599.96-.1797v1.125Zm5.11.2031c-.62,0-1.19-.112-1.7-.3359-.5-.224-.94-.5287-1.3-.9141-.35-.3906-.62-.8463-.82-1.3672-.19-.526-.28-1.0885-.28-1.6875c0-.6198.1-1.1953.3-1.7265.21-.5313.49-.9896.86-1.375.37-.3906.81-.6953,1.33-.9141.51-.2239,1.08-.3359,1.69-.3359.63,0,1.2.112,1.71.3359s.94.5313,1.3.9219.64.8489.83,1.375c.2.5208.3,1.0807.3,1.6797c0,.6146-.11,1.1875-.32,1.7187-.2.5313-.49.9922-.86,1.3828-.37.3855-.82.6901-1.33.9141-.52.2187-1.09.3281-1.71.3281Zm.03-1.1094c.48,0,.89-.0885,1.25-.2656.35-.1771.64-.414.87-.7109.24-.2969.41-.638.52-1.0235.11-.3906.17-.7968.17-1.2187c0-.4375-.06-.849-.18-1.2344-.11-.3906-.29-.7317-.53-1.0234-.23-.2969-.53-.5313-.88-.7031-.36-.1719-.77-.2578-1.24-.2578s-.88.0885-1.23.2656c-.35.1718-.63.4062-.85.7031-.23.2969-.39.6406-.5,1.0313-.11.3854-.16.7942-.16,1.2265c0,.4531.06.875.17,1.2656.12.3907.29.7318.52,1.0235.23.2864.52.513.86.6797.35.1614.75.2421,1.21.2421Zm5.87-7.3984h1.33v1.5c.3-.5625.68-.9713,1.13-1.2266.45-.2604.99-.401,1.62-.4218v1.25c-.46.0156-.86.0755-1.2.1797-.35.0989-.63.2552-.86.4687-.23.2083-.4.4792-.52.8125-.11.3281-.17.7318-.17,1.2109v4.5938h-1.33v-8.3672Zm19.82,2.461l1.02.4531-1.87,3.1015L1161.66,66h-1.62l-1.13-1.375c-.42.4844-.9.8542-1.42,1.1094-.52.25-1.11.375-1.75.375-.47,0-.93-.0677-1.36-.2032-.44-.1354-.82-.3359-1.16-.6015-.33-.2708-.6-.6016-.8-.9922-.2-.3958-.3-.8516-.3-1.3672c0-.4219.07-.8047.2-1.1484.14-.3438.33-.6537.56-.9297.24-.2813.52-.5287.84-.7422.32-.2188.66-.4141,1.02-.5859-.27-.3438-.51-.7214-.71-1.1329-.2-.4166-.29-.8619-.29-1.3359c0-.3906.07-.7448.21-1.0625.15-.3177.35-.5885.61-.8125.25-.2239.55-.3958.89-.5156.34-.125.7-.1875,1.09-.1875.34,0,.66.0573.96.1719s.57.2786.79.4921c.23.2084.41.461.54.7579.14.2968.2.625.2.9843c0,.3646-.06.698-.2,1-.14.2969-.32.5651-.55.8047-.22.2344-.48.4427-.78.625-.29.1823-.59.3412-.91.4766l2.4,2.9141l1.6-2.625Zm-5.22.2109c-.27.1354-.52.2838-.76.4453-.23.1615-.43.3438-.6.5469s-.31.4349-.41.6953c-.09.2604-.14.5573-.14.8906c0,.3542.06.6641.17.9297s.27.4896.47.6719c.21.1771.45.3125.73.4062.29.0886.6.1328.95.1328.5,0,.96-.1145,1.36-.3437.41-.2292.77-.5313,1.08-.9063l-2.85-3.4687Zm.64-1.2344c.25-.1146.49-.2396.7-.375.22-.1354.41-.2917.57-.4687s.28-.3802.37-.6094c.09-.2344.13-.5026.13-.8047c0-.3802-.12-.6875-.36-.9219s-.55-.3515-.93-.3515c-.5,0-.87.1432-1.11.4297-.24.2864-.36.6744-.36,1.164c0,.1771.02.3464.08.5078.05.1615.12.3151.2.461s.18.289.28.4296c.1.1355.21.2683.31.3985l.12.1406Zm-52.77,22.5625h1.33v1.5c.3-.5625.67-.9713,1.12-1.2266.45-.2604,1-.401,1.63-.4218v1.25c-.46.0156-.86.0755-1.21.1797-.34.0989-.63.2552-.86.4687-.23.2083-.4.4792-.51.8125-.12.3281-.17.7318-.17,1.2109v4.5938h-1.33v-8.3672Zm12.04,6.4531c-.38.6823-.86,1.1953-1.45,1.5391s-1.27.5156-2.04.5156c-.63,0-1.2-.112-1.71-.3359-.5-.2292-.92-.5391-1.27-.9297s-.61-.8464-.79-1.3672c-.18-.526-.27-1.0833-.27-1.6719c0-.5937.09-1.1536.27-1.6797.18-.526.44-.9869.78-1.3828.34-.3958.75-.7083,1.23-.9375.48-.2343,1.03-.3515,1.63-.3515.7,0,1.29.1224,1.77.3672s.87.5755,1.17.9922c.29.4166.5.9036.63,1.4609s.2,1.1484.2,1.7734h-6.31c0,.4167.05.8047.16,1.1641.12.3594.29.6719.51.9375.23.2656.51.4739.85.625.33.151.72.2265,1.16.2265.25,0,.48-.0364.7-.1093.23-.0729.44-.1745.63-.3047.19-.1354.37-.2917.52-.4688.16-.1823.29-.3776.4-.5859l1.23.5234Zm-1.23-3.0781c-.02-.7396-.23-1.3255-.64-1.7578-.41-.4375-.99-.6562-1.75-.6562-.35,0-.67.0624-.96.1874s-.54.2969-.75.5157-.39.4739-.52.7656-.22.6068-.26.9453h4.88Zm2.02-3.375h1.45l2.41,7.0234l2.39-7.0234h1.37L1120.75,90h-1.7l-2.98-8.3672Zm9.02.0156h1.33v8.3516h-1.33v-8.3516Zm-.24-2.4218c0-.25.08-.4584.25-.625.17-.1719.38-.2578.63-.2578s.46.0859.63.2578c.17.1666.25.375.25.625s-.08.4609-.25.6328c-.17.1666-.38.25-.63.25s-.46-.0834-.63-.25c-.17-.1719-.25-.3828-.25-.6328Zm10.83,8.8593c-.38.6823-.86,1.1953-1.45,1.5391s-1.27.5156-2.04.5156c-.63,0-1.2-.112-1.71-.3359-.5-.2292-.92-.5391-1.27-.9297s-.61-.8464-.79-1.3672c-.18-.526-.28-1.0833-.28-1.6719c0-.5937.1-1.1536.28-1.6797.18-.526.44-.9869.78-1.3828.34-.3958.75-.7083,1.23-.9375.48-.2343,1.02-.3515,1.63-.3515.7,0,1.29.1224,1.77.3672s.87.5755,1.17.9922c.29.4166.5.9036.63,1.4609s.19,1.1484.19,1.7734h-6.3c-.01.4167.05.8047.16,1.1641.12.3594.29.6719.51.9375.23.2656.51.4739.85.625.33.151.72.2265,1.16.2265.24,0,.48-.0364.7-.1093.23-.0729.44-.1745.63-.3047.19-.1354.36-.2917.52-.4688.16-.1823.29-.3776.4-.5859l1.23.5234Zm-1.23-3.0781c-.02-.7396-.23-1.3255-.64-1.7578-.41-.4375-.99-.6562-1.75-.6562-.35,0-.67.0624-.96.1874s-.54.2969-.75.5157c-.22.2187-.39.4739-.53.7656-.13.2917-.21.6068-.25.9453h4.88Zm2.07-3.375h1.45l2.07,6.7344l2.03-6.7344h1.15l2,6.7344l2.07-6.7344h1.36L1145.95,90h-1.48l-1.83-6.2734L1140.68,90h-1.46l-2.7-8.3672Z" fill="#bababa"/><circle id="eCNTKIEyFB725" r="19" transform="translate(647 20)" fill="#fdfafa" stroke="#bababa" stroke-width="2"/><path id="eCNTKIEyFB726" d="M642.719,25.2969l4.414-4.3203c.229-.224.445-.4584.648-.7032.209-.2448.391-.5026.547-.7734.156-.276.281-.5651.375-.8672s.141-.6198.141-.9531c0-.6094-.154-1.0729-.461-1.3906-.307-.323-.75-.4844-1.328-.4844-.37,0-.693.0651-.969.1953-.276.125-.516.2943-.719.5078s-.372.461-.508.7422c-.135.276-.247.5677-.336.875l-1.375-.5859c.131-.474.31-.9037.54-1.2891.229-.3906.507-.7214.835-.9922.329-.276.704-.487,1.125-.6328.428-.151.901-.2266,1.422-.2266.5,0,.966.0704,1.399.211.437.1406.815.3489,1.133.625.322.276.575.6172.757,1.0234.188.4011.282.8646.282,1.3906c0,.4375-.063.8516-.188,1.2422s-.294.7604-.508,1.1094c-.208.349-.45.6797-.726.9922-.271.3073-.555.5963-.852.8672l-2.992,2.7344h5.328v1.4062h-7.984v-.7031Z" fill="#bababa"/><line x1="445" y1="18.5" x2="610" y2="18.5" fill="none" stroke="#d9d9d9"/><path id="eCNTKIEyFB728" d="M445,18.5h164.533" fill="none" stroke="#17984c" stroke-width="3" stroke-linecap="round" stroke-dashoffset="164.54" stroke-dasharray="164.54"/><circle id="eCNTKIEyFB729" r="18.5" transform="translate(408 20)" fill="#fdfafa" stroke="#bababa" stroke-width="3"/><path id="eCNTKIEyFB730" d="M407.211,16.3359l-2.477,1.6016v-1.6016l2.641-1.7734h1.625L409,26h-1.789v-9.6641Z" transform="translate(0-.1641)" fill="#bababa"/><circle id="eCNTKIEyFB731" r="19" transform="translate(886 20)" fill="#fdfafa" stroke="#bababa" stroke-width="2"/><path id="eCNTKIEyFB732" d="M883.117,22.6562c.094.2969.216.5756.367.836.157.2552.342.4766.555.664.214.1876.456.336.727.4454.27.1093.57.164.898.164s.641-.0338.938-.1015c.296-.073.557-.1901.781-.3516.229-.1615.409-.3698.539-.625.135-.2552.203-.5677.203-.9375c0-.5104-.089-.901-.266-1.1719-.171-.276-.403-.4765-.695-.6015-.286-.1302-.617-.2058-.992-.2266-.37-.0208-.753-.0312-1.149-.0312v-1.3594h.141c.344,0,.68-.0104,1.008-.0313.328-.026.617-.0963.867-.2109.255-.1146.458-.2917.609-.5313.157-.2448.235-.5885.235-1.0312c0-.2917-.05-.5469-.149-.7656-.099-.2188-.237-.4011-.414-.5469-.177-.1511-.385-.263-.625-.336-.234-.0781-.489-.1171-.765-.1171-.667,0-1.193.1614-1.578.4843-.381.323-.68.7917-.899,1.4063l-1.312-.5625c.135-.4479.325-.8412.57-1.1797.25-.3385.539-.6198.867-.8437.333-.2292.698-.4011,1.094-.5157.401-.1198.82-.1797,1.258-.1797.468,0,.922.0677,1.359.2032.443.1302.833.3229,1.172.5781.344.2552.617.5729.82.9531.209.375.313.8099.313,1.3047c0,.6302-.167,1.1536-.5,1.5703-.334.4115-.784.7266-1.352.9453.724.1771,1.271.5052,1.641.9844.375.474.562,1.0781.562,1.8125c0,.599-.117,1.1146-.351,1.5469-.235.4271-.547.7786-.938,1.0547-.385.276-.828.4791-1.328.6093-.495.1302-1.008.1953-1.539.1953-.458,0-.909-.0624-1.351-.1874-.438-.125-.839-.3099-1.204-.5547-.359-.2448-.672-.5469-.937-.9063-.266-.3594-.456-.7734-.57-1.2422l1.39-.6094Z" fill="#bababa"/><circle id="eCNTKIEyFB733" r="19" transform="translate(1125 20)" fill="#fdfafa" stroke="#bababa" stroke-width="2"/><path id="eCNTKIEyFB734" d="M1121.01,22.8125l5.13-8.25h2.29v7.5625h1.57v1.3828h-1.57v2.4922h-1.74v-2.4922h-5.68v-.6953Zm5.69-.6875v-6.2031l-3.69,6.2031h3.69Z" fill="#bababa"/><line x1="684" y1="18.5" x2="849" y2="18.5" fill="none" stroke="#d9d9d9"/><line x1="923" y1="18.5" x2="1088" y2="18.5" fill="none" stroke="#d9d9d9"/><path id="eCNTKIEyFB737" d="M445,18.5h164.533" transform="translate(478.467 0)" fill="none" stroke="#17984c" stroke-width="3" stroke-linecap="round" stroke-dashoffset="164.54" stroke-dasharray="164.54"/><path id="eCNTKIEyFB738" d="M445,18.5h164.533" transform="translate(239.467 0)" fill="none" stroke="#17984c" stroke-width="3" stroke-linecap="round" stroke-dashoffset="164.54" stroke-dasharray="164.54"/><path id="eCNTKIEyFB739" d="M364.826,54.5625h6.992v1.1328h-5.601v3.8906h4.578v1.1329h-4.578v4.1484h5.89v1.1328h-7.281v-11.4375Zm9.258,8.9531c.157.4844.422.8594.797,1.125.38.2604.823.3906,1.328.3906.23,0,.456-.0208.68-.0624.224-.0469.425-.1198.602-.2188.177-.1042.32-.2396.429-.4062.11-.1667.164-.375.164-.625s-.057-.4558-.172-.6172c-.109-.1667-.26-.3047-.453-.4141-.187-.1094-.403-.1979-.648-.2656-.245-.0729-.5-.1407-.766-.2031-.317-.0782-.635-.1641-.953-.2579s-.604-.2239-.859-.3906c-.255-.1719-.464-.3932-.625-.6641-.156-.276-.235-.6302-.235-1.0624c0-.3698.081-.7006.243-.9922.161-.2917.372-.5391.632-.7422.261-.2032.558-.3568.891-.461.333-.1093.675-.164,1.023-.164.641,0,1.217.1718,1.727.5156.516.3385.927.8021,1.234,1.3906l-1.023.4532c-.188-.4063-.461-.7162-.82-.9297-.354-.2136-.743-.3203-1.164-.3203-.188,0-.373.0234-.555.0703-.177.0416-.339.1119-.484.2109-.141.099-.256.2266-.344.3828-.084.1511-.125.3333-.125.5469c0,.2396.054.4375.164.5937.114.1563.263.2865.445.3907.188.0989.404.1797.649.2421.244.0626.5.1224.765.1797.323.0677.646.1459.969.2344.323.0833.615.2083.875.375.26.1615.471.3802.633.6563.161.2708.242.625.242,1.0625c0,.4479-.086.8359-.258,1.164s-.401.599-.687.8125c-.287.2136-.615.3724-.985.4766-.369.0989-.752.1484-1.148.1484-.766,0-1.432-.1823-2-.5468-.563-.3698-.966-.9141-1.211-1.6329l1.023-.4453Zm10.587,2.4219c-.365.1146-.748.1719-1.149.1719-.729,0-1.286-.1797-1.672-.5391-.38-.3594-.57-.9141-.57-1.6641v-5.1562h-1.203v-1.1172h1.203v-1.5703l1.328-.5781v2.1484h1.953v1.1172h-1.953v5.0234c0,.1771.018.3412.055.4922.036.1459.096.2735.179.3828.084.1094.196.1954.336.2578.141.0573.316.086.524.086.302,0,.625-.0599.969-.1797v1.125Zm1.656-8.2891h1.328v8.3516h-1.328v-8.3516Zm-.242-2.4218c0-.25.083-.4584.25-.625.172-.1719.383-.2578.633-.2578s.458.0859.625.2578c.172.1666.258.375.258.625s-.086.4609-.258.6328c-.167.1666-.375.25-.625.25s-.461-.0834-.633-.25c-.167-.1719-.25-.3828-.25-.6328Zm3.922,2.4062h1.328v1.2813c.219-.4896.532-.849.938-1.0782.406-.2343.87-.3515,1.39-.3515.271,0,.545.0338.821.1015.276.0625.534.1589.773.2891.245.1302.464.2943.656.4922.193.1927.342.4219.446.6875.271-.5208.646-.9115,1.125-1.1719.479-.2656,1.018-.3984,1.617-.3984.49,0,.922.0859,1.297.2578.375.1667.69.3984.945.6953s.448.6484.578,1.0547.196.8463.196,1.3203v5.1875h-1.329v-5.2812c0-.6771-.164-1.1928-.492-1.5469s-.836-.5313-1.523-.5313c-.323,0-.612.0599-.867.1797-.25.1198-.464.2813-.641.4844s-.313.4401-.406.7109c-.089.2709-.133.5599-.133.8672v5.1172h-1.328v-5.2812c0-.6771-.164-1.1928-.492-1.5469-.329-.3542-.836-.5313-1.524-.5313-.323,0-.612.0599-.867.1797-.25.1198-.464.2813-.641.4844s-.312.4401-.406.7109c-.088.2709-.133.5599-.133.8672v5.1172h-1.328v-8.3672Zm19.055,7.3125c-.302.4011-.69.7005-1.164.8985-.474.1979-.966.2968-1.476.2968-.37,0-.722-.0521-1.055-.1562s-.625-.2578-.875-.461c-.25-.2083-.451-.4635-.602-.7656-.146-.3073-.218-.6614-.218-1.0625c0-.4271.08-.7864.242-1.0781.166-.2969.385-.5417.656-.7344.276-.1927.591-.3437.945-.4531s.719-.1875,1.094-.2344c.38-.0521.755-.0833,1.125-.0937.375-.0105.719-.0157,1.031-.0157h.297v-.0547c0-.3593-.026-.6874-.078-.9843-.047-.3021-.143-.5599-.289-.7735-.141-.2135-.341-.3802-.602-.5-.255-.1198-.588-.1796-1-.1796-.229,0-.453.0338-.671.1015-.219.0677-.422.1667-.61.2969-.187.125-.351.2786-.492.4609-.141.1771-.247.375-.32.5938l-1.133-.4922c.151-.349.338-.6511.562-.9063.23-.2604.487-.4765.774-.6484.286-.1719.596-.2995.929-.3828.334-.0886.683-.1328,1.047-.1328.469,0,.899.0703,1.289.2109.396.1354.735.3333,1.016.5938.287.2604.508.5781.664.9531.162.375.242.7995.242,1.2734v5.4844h-1.328v-1.0547Zm-1.148-2.9141c-.183,0-.38.0079-.594.0235-.214.0104-.43.0364-.648.0781-.214.0417-.422.099-.625.1719-.204.0729-.383.1719-.54.2969-.151.1198-.273.2682-.367.4453-.093.1771-.14.388-.14.6328c0,.2552.036.4739.109.6562.078.1771.185.323.32.4375.136.1094.297.1901.485.2422.187.0469.393.0703.617.0703.307,0,.612-.0416.914-.125.302-.0885.573-.2187.812-.3906.24-.1719.433-.3828.579-.6328.151-.25.226-.5391.226-.8672v-1.0391h-1.148Zm8.398,3.9063c-.364.1146-.747.1719-1.148.1719-.729,0-1.286-.1797-1.672-.5391-.38-.3594-.57-.9141-.57-1.6641v-5.1562h-1.203v-1.1172h1.203v-1.5703l1.328-.5781v2.1484h1.953v1.1172h-1.953v5.0234c0,.1771.018.3412.055.4922.036.1459.096.2735.179.3828.084.1094.196.1954.336.2578.141.0573.315.086.524.086.302,0,.625-.0599.968-.1797v1.125Zm8.54-1.8516c-.38.6823-.865,1.1953-1.453,1.5391-.589.3438-1.268.5156-2.039.5156-.636,0-1.206-.112-1.711-.3359-.5-.2292-.925-.5391-1.274-.9297-.343-.3906-.606-.8464-.789-1.3672-.182-.526-.273-1.0833-.273-1.6719c0-.5937.091-1.1536.273-1.6797.183-.526.443-.9869.781-1.3828.339-.3958.748-.7083,1.227-.9375.484-.2343,1.029-.3515,1.633-.3515.703,0,1.294.1224,1.773.3672s.867.5755,1.164.9922c.297.4166.508.9036.633,1.4609.13.5573.195,1.1484.195,1.7734h-6.304c-.005.4167.049.8047.164,1.1641.114.3594.284.6719.508.9375.229.2656.51.4739.843.625.339.151.727.2265,1.164.2265.245,0,.48-.0364.704-.1093s.432-.1745.625-.3047c.192-.1354.367-.2917.523-.4688.156-.1823.289-.3776.398-.5859l1.235.5234Zm-1.235-3.0781c-.02-.7396-.234-1.3255-.64-1.7578-.406-.4375-.99-.6562-1.75-.6562-.349,0-.669.0624-.961.1874-.287.125-.537.2969-.75.5157-.214.2187-.388.4739-.524.7656-.13.2917-.216.6068-.257.9453h4.882Zm5.946-3.375h1.329v1.3281c.13-.2604.291-.4817.484-.664.193-.1875.406-.3412.641-.461.239-.1198.492-.2083.757-.2656.271-.0573.55-.0859.836-.0859.521,0,.974.0885,1.36.2656.385.1719.703.4115.953.7188.255.3072.445.6744.57,1.1015.125.4219.188.8802.188,1.375v5.0547h-1.328v-5.1484c0-.7136-.17-1.2605-.508-1.6407-.339-.3802-.854-.5703-1.547-.5703-.365,0-.695.0547-.992.1641-.292.1042-.545.2552-.758.4531-.209.1979-.37.4375-.485.7188-.114.2812-.171.5989-.171.9531v5.0703h-1.329v-8.3672Zm16.266,6.4531c-.38.6823-.864,1.1953-1.453,1.5391-.588.3438-1.268.5156-2.039.5156-.635,0-1.206-.112-1.711-.3359-.5-.2292-.924-.5391-1.273-.9297-.344-.3906-.607-.8464-.789-1.3672-.183-.526-.274-1.0833-.274-1.6719c0-.5937.091-1.1536.274-1.6797.182-.526.442-.9869.781-1.3828s.747-.7083,1.227-.9375c.484-.2343,1.028-.3515,1.632-.3515.704,0,1.295.1224,1.774.3672s.867.5755,1.164.9922c.297.4166.508.9036.633,1.4609.13.5573.195,1.1484.195,1.7734h-6.305c-.005.4167.05.8047.164,1.1641.115.3594.284.6719.508.9375.229.2656.511.4739.844.625.338.151.727.2265,1.164.2265.245,0,.479-.0364.703-.1093s.432-.1745.625-.3047c.193-.1354.367-.2917.524-.4688.156-.1823.289-.3776.398-.5859l1.234.5234Zm-1.234-3.0781c-.021-.7396-.234-1.3255-.641-1.7578-.406-.4375-.989-.6562-1.75-.6562-.349,0-.669.0624-.961.1874-.286.125-.536.2969-.75.5157-.213.2187-.388.4739-.523.7656-.13.2917-.216.6068-.258.9453h4.883Zm6.696,4.9297c-.365.1146-.748.1719-1.149.1719-.729,0-1.286-.1797-1.672-.5391-.38-.3594-.57-.9141-.57-1.6641v-5.1562h-1.203v-1.1172h1.203v-1.5703l1.328-.5781v2.1484h1.953v1.1172h-1.953v5.0234c0,.1771.018.3412.055.4922.036.1459.096.2735.18.3828.083.1094.195.1954.335.2578.141.0573.316.086.524.086.302,0,.625-.0599.969-.1797v1.125ZM360.94,81.6328h1.328v1.5c.302-.5625.677-.9713,1.125-1.2266.453-.2604.995-.401,1.625-.4218v1.25c-.459.0156-.86.0755-1.203.1797-.344.0989-.631.2552-.86.4687-.229.2083-.401.4792-.515.8125-.115.3281-.172.7318-.172,1.2109v4.5938h-1.328v-8.3672Zm12.047,6.4531c-.38.6823-.865,1.1953-1.453,1.5391-.589.3438-1.268.5156-2.039.5156-.636,0-1.206-.112-1.711-.3359-.5-.2292-.925-.5391-1.274-.9297-.343-.3906-.606-.8464-.789-1.3672-.182-.526-.273-1.0833-.273-1.6719c0-.5937.091-1.1536.273-1.6797.183-.526.443-.9869.781-1.3828.339-.3958.748-.7083,1.227-.9375.484-.2343,1.029-.3515,1.633-.3515.703,0,1.294.1224,1.773.3672s.867.5755,1.164.9922c.297.4166.508.9036.633,1.4609.13.5573.195,1.1484.195,1.7734h-6.304c-.005.4167.049.8047.164,1.1641.114.3594.284.6719.508.9375.229.2656.51.4739.843.625.339.151.727.2265,1.164.2265.245,0,.48-.0364.704-.1093s.432-.1745.625-.3047c.192-.1354.367-.2917.523-.4688.156-.1823.289-.3776.398-.5859l1.235.5234Zm-1.235-3.0781c-.02-.7396-.234-1.3255-.64-1.7578-.406-.4375-.99-.6562-1.75-.6562-.349,0-.669.0624-.961.1874-.287.125-.537.2969-.75.5157-.214.2187-.388.4739-.524.7656-.13.2917-.216.6068-.257.9453h4.882Zm9.196,3.5469c-.151.2448-.341.4661-.57.6641-.229.1927-.479.3593-.75.5-.271.1354-.555.2395-.852.3124-.291.073-.578.1094-.859.1094-.63,0-1.182-.112-1.656-.3359-.474-.2292-.868-.5365-1.18-.9219-.313-.3906-.547-.8463-.703-1.3672s-.235-1.0755-.235-1.664c0-.5782.086-1.1302.258-1.6563.177-.5312.433-.9974.766-1.3984s.739-.7188,1.219-.9531c.479-.2396,1.026-.3594,1.64-.3594.297,0,.586.0312.867.0937.282.0573.547.1485.797.2735.256.1198.49.2734.703.4609.214.1875.399.4089.555.6641v-1.3438h1.328v11.2813h-1.328v-4.3594Zm-2.805.4765c.495,0,.92-.0859,1.274-.2578.359-.1718.656-.4062.89-.7031.235-.3021.407-.6536.516-1.0547.115-.401.172-.8307.172-1.289c0-.4427-.052-.8542-.156-1.2344s-.268-.711-.492-.9922-.511-.5026-.86-.6641c-.344-.1614-.755-.2421-1.234-.2421-.505,0-.932.0885-1.281.2656-.344.1771-.625.4166-.844.7187-.214.3021-.37.6563-.469,1.0625-.094.4011-.141.8255-.141,1.2735c0,.3958.055.7812.164,1.1562.11.375.274.7083.493,1c.218.2865.492.5182.82.6953s.711.2656,1.148.2656Zm12.094-.3593c-.25.5104-.604.8828-1.062,1.1172-.458.2343-.964.3515-1.516.3515-.505,0-.955-.0729-1.351-.2187-.391-.1459-.719-.3568-.985-.6328-.265-.2761-.468-.612-.609-1.0079-.135-.3958-.203-.8463-.203-1.3515v-5.2969h1.328v5.2344c0,.7187.185,1.2526.555,1.6016.37.3489.909.5234,1.617.5234.349,0,.661-.0547.937-.1641s.508-.263.696-.4609c.192-.2031.338-.4453.437-.7266.104-.2812.156-.5937.156-.9375v-5.0703h1.329v8.3672h-1.329v-1.3281Zm3.673-7.0235h1.328v8.3516h-1.328v-8.3516Zm-.243-2.4218c0-.25.084-.4584.25-.625.172-.1719.383-.2578.633-.2578s.459.0859.625.2578c.172.1666.258.375.258.625s-.086.4609-.258.6328c-.166.1666-.375.25-.625.25s-.461-.0834-.633-.25c-.166-.1719-.25-.3828-.25-.6328Zm3.923,2.4062h1.328v1.5c.302-.5625.677-.9713,1.125-1.2266.453-.2604.995-.401,1.625-.4218v1.25c-.459.0156-.86.0755-1.203.1797-.344.0989-.631.2552-.86.4687-.229.2083-.401.4792-.515.8125-.115.3281-.172.7318-.172,1.2109v4.5938h-1.328v-8.3672Zm12.047,6.4531c-.38.6823-.865,1.1953-1.453,1.5391-.589.3438-1.268.5156-2.039.5156-.636,0-1.206-.112-1.711-.3359-.5-.2292-.925-.5391-1.274-.9297-.343-.3906-.606-.8464-.789-1.3672-.182-.526-.273-1.0833-.273-1.6719c0-.5937.091-1.1536.273-1.6797.183-.526.443-.9869.782-1.3828.338-.3958.747-.7083,1.226-.9375.484-.2343,1.029-.3515,1.633-.3515.703,0,1.294.1224,1.773.3672s.868.5755,1.164.9922c.297.4166.508.9036.633,1.4609.13.5573.196,1.1484.196,1.7734h-6.305c-.005.4167.049.8047.164,1.1641.114.3594.284.6719.508.9375.229.2656.51.4739.843.625.339.151.727.2265,1.165.2265.244,0,.479-.0364.703-.1093s.432-.1745.625-.3047c.192-.1354.367-.2917.523-.4688.156-.1823.289-.3776.399-.5859l1.234.5234Zm-1.234-3.0781c-.021-.7396-.235-1.3255-.641-1.7578-.406-.4375-.99-.6562-1.75-.6562-.349,0-.669.0624-.961.1874-.287.125-.537.2969-.75.5157-.214.2187-.388.4739-.523.7656-.131.2917-.217.6068-.258.9453h4.883Zm3.015-3.375h1.329v1.2813c.218-.4896.531-.849.937-1.0782.406-.2343.87-.3515,1.391-.3515.271,0,.544.0338.82.1015.276.0625.534.1589.773.2891.245.1302.464.2943.657.4922.192.1927.341.4219.445.6875.271-.5208.646-.9115,1.125-1.1719.479-.2656,1.018-.3984,1.617-.3984.49,0,.922.0859,1.297.2578.375.1667.69.3984.945.6953.256.2969.448.6484.578,1.0547.131.4062.196.8463.196,1.3203v5.1875h-1.328v-5.2812c0-.6771-.164-1.1928-.493-1.5469-.328-.3542-.835-.5313-1.523-.5313-.323,0-.612.0599-.867.1797-.25.1198-.464.2813-.641.4844s-.312.4401-.406.7109c-.089.2709-.133.5599-.133.8672v5.1172h-1.328v-5.2812c0-.6771-.164-1.1928-.492-1.5469s-.836-.5313-1.524-.5313c-.322,0-.612.0599-.867.1797-.25.1198-.463.2813-.64.4844s-.313.4401-.407.7109c-.088.2709-.132.5599-.132.8672v5.1172h-1.329v-8.3672Zm21.266,6.4531c-.38.6823-.864,1.1953-1.453,1.5391-.588.3438-1.268.5156-2.039.5156-.635,0-1.206-.112-1.711-.3359-.5-.2292-.924-.5391-1.273-.9297-.344-.3906-.607-.8464-.789-1.3672-.183-.526-.274-1.0833-.274-1.6719c0-.5937.091-1.1536.274-1.6797.182-.526.442-.9869.781-1.3828.339-.3958.747-.7083,1.227-.9375.484-.2343,1.028-.3515,1.632-.3515.703,0,1.295.1224,1.774.3672s.867.5755,1.164.9922c.297.4166.508.9036.633,1.4609.13.5573.195,1.1484.195,1.7734h-6.305c-.005.4167.05.8047.164,1.1641.115.3594.284.6719.508.9375.229.2656.511.4739.844.625.338.151.726.2265,1.164.2265.245,0,.479-.0364.703-.1093s.432-.1745.625-.3047c.193-.1354.367-.2917.524-.4688.156-.1823.289-.3776.398-.5859l1.234.5234Zm-1.234-3.0781c-.021-.7396-.234-1.3255-.641-1.7578-.406-.4375-.989-.6562-1.75-.6562-.349,0-.669.0624-.961.1874-.286.125-.536.2969-.75.5157-.213.2187-.388.4739-.523.7656-.13.2917-.216.6068-.258.9453h4.883Zm3.016-3.375h1.328v1.3281c.13-.2604.292-.4817.484-.664.193-.1875.407-.3412.641-.461.24-.1198.492-.2083.758-.2656.271-.0573.549-.0859.836-.0859.521,0,.974.0885,1.359.2656.386.1719.703.4115.953.7188.256.3072.446.6744.571,1.1015.125.4219.187.8802.187,1.375v5.0547h-1.328v-5.1484c0-.7136-.169-1.2605-.508-1.6407-.338-.3802-.854-.5703-1.547-.5703-.364,0-.695.0547-.992.1641-.292.1042-.544.2552-.758.4531-.208.1979-.369.4375-.484.7188-.115.2812-.172.5989-.172.9531v5.0703h-1.328v-8.3672Zm13.031,8.3047c-.364.1146-.747.1719-1.148.1719-.729,0-1.286-.1797-1.672-.5391-.38-.3594-.57-.9141-.57-1.6641v-5.1562h-1.203v-1.1172h1.203v-1.5703l1.328-.5781v2.1484h1.953v1.1172h-1.953v5.0234c0,.1771.018.3412.055.4922.036.1459.096.2735.179.3828.084.1094.196.1954.336.2578.141.0573.315.086.524.086.302,0,.625-.0599.968-.1797v1.125Zm1.962-2.4219c.156.4844.422.8594.797,1.125.38.2604.823.3906,1.328.3906.229,0,.455-.0208.679-.0624.224-.0469.425-.1198.602-.2188.177-.1042.32-.2396.43-.4062.109-.1667.164-.375.164-.625s-.058-.4558-.172-.6172c-.109-.1667-.261-.3047-.453-.4141-.188-.1094-.404-.1979-.649-.2656-.244-.0729-.5-.1407-.765-.2031-.318-.0782-.636-.1641-.953-.2579-.318-.0937-.605-.2239-.86-.3906-.255-.1719-.463-.3932-.625-.6641-.156-.276-.234-.6302-.234-1.0624c0-.3698.081-.7006.242-.9922.161-.2917.372-.5391.633-.7422.26-.2032.557-.3568.89-.461.334-.1093.675-.164,1.024-.164.641,0,1.216.1718,1.726.5156.516.3385.928.8021,1.235,1.3906l-1.024.4532c-.187-.4063-.461-.7162-.82-.9297-.354-.2136-.742-.3203-1.164-.3203-.187,0-.372.0234-.555.0703-.177.0416-.338.1119-.484.2109-.141.099-.255.2266-.344.3828-.083.1511-.125.3333-.125.5469c0,.2396.055.4375.164.5937.115.1563.263.2865.446.3907.187.0989.403.1797.648.2421.245.0626.5.1224.766.1797.323.0677.645.1459.968.2344.323.0833.615.2083.875.375.261.1615.472.3802.633.6563.162.2708.242.625.242,1.0625c0,.4479-.086.8359-.257,1.164-.172.3281-.401.599-.688.8125-.286.2136-.615.3724-.984.4766-.37.0989-.753.1484-1.149.1484-.765,0-1.432-.1823-2-.5468-.562-.3698-.966-.9141-1.211-1.6329l1.024-.4453Z" fill="#c5c5c5"/><g id="eCNTKIEyFB740_to" transform="translate(-128.201725,221.239998)"><g transform="translate(-256.734497,-221.239998)"><path d="M217.513,233.318c-4.6,0-8.331,3.731-8.331,8.331s3.731,8.331,8.331,8.331c4.599,0,8.331-3.731,8.331-8.331s-3.732-8.331-8.331-8.331Zm0,12.694c-2.414,0-4.364-1.957-4.364-4.363c0-2.407,1.957-4.364,4.364-4.364c2.406,0,4.363,1.957,4.363,4.364c0,2.406-1.957,4.363-4.363,4.363Z" fill="#727272"/><path d="M237.853,233.318c-4.6,0-8.331,3.731-8.331,8.331s3.731,8.331,8.331,8.331c4.599,0,8.331-3.731,8.331-8.331s-3.732-8.331-8.331-8.331Zm0,12.694c-2.414,0-4.364-1.957-4.364-4.363c0-2.407,1.957-4.364,4.364-4.364c2.406,0,4.363,1.957,4.363,4.364c0,2.406-1.957,4.363-4.363,4.363Z" fill="#727272"/><path d="M293.314,233.318c-4.599,0-8.331,3.731-8.331,8.331s3.732,8.331,8.331,8.331c4.6,0,8.332-3.731,8.332-8.331s-3.732-8.331-8.332-8.331Zm0,12.694c-2.414,0-4.363-1.957-4.363-4.363c0-2.407,1.957-4.364,4.363-4.364c2.407,0,4.364,1.957,4.364,4.364c0,2.406-1.957,4.363-4.364,4.363Z" fill="#727272"/><g id="eCNTKIEyFB744_to" transform="translate(256.734497,215.787499)"><g transform="translate(-256.734497,-215.787498)"><path d="M310.304,235.069h-.023c-.639,0-1.157-.518-1.157-1.157v-10.677c0-1.683-.358-3.335-1.059-4.866l-5.368-11.788c-1.219-2.673-3.877-4.387-6.816-4.387h-14.401c-1.812,0-3.282,1.47-3.289,3.282l-.084,23.295c0,.869-.708,1.562-1.569,1.562h-70.235c-1.089,0-1.965.883-1.965,1.964v1.607c0,.64-.518,1.158-1.158,1.158h-.022c-.64,0-1.158.518-1.158,1.157v1.698c0,.64.518,1.158,1.158,1.158h4.82c.259,0,.487-.175.571-.419c1.249-3.754,4.79-6.458,8.963-6.458s7.715,2.704,8.963,6.458c.084.251.305.419.572.419h1.271c.259,0,.488-.175.571-.419c1.249-3.754,4.79-6.458,8.964-6.458c4.173,0,7.714,2.704,8.963,6.458.084.251.304.419.571.419h36.393c.259,0,.488-.175.571-.419c1.249-3.754,4.79-6.458,8.964-6.458c4.173,0,7.714,2.704,8.963,6.458.084.251.304.419.571.419h7.463c.64,0,1.157-.518,1.157-1.158v-1.698c0-.639-.517-1.157-1.157-1.157l-.008.007Zm-23.721-12.527c0,.449-.366.823-.823.823h-3.137c-.45,0-.823-.366-.823-.823v-.015c0-.449.366-.822.823-.822h3.137c.45,0,.823.365.823.822v.015Zm15.009-3.906h-18.55c-.678,0-1.234-.549-1.234-1.234v-10.372c0-.678.548-1.234,1.234-1.234h13.25c1.379,0,2.627.8,3.206,2.049l3.785,8.148c.571,1.234-.327,2.643-1.691,2.643Z" fill="#727272"/><path d="M275.647,192.5h-69.466c-.509,0-.921.413-.921.921v34.513c0,.509.412.921.921.921h69.466c.509,0,.922-.412.922-.921v-34.513c0-.508-.413-.921-.922-.921Z" fill="#727272"/><circle r="2.5" transform="translate(288.5 212.5)" fill="#727272"/><circle r="3.5" transform="translate(288.5 218.5)" fill="#727272"/></g></g></g></g><rect width="115.136526" height="63.518" rx="0" ry="0" transform="matrix(.590795 0 0 1-40.394478 186.482)" fill="url(#eCNTKIEyFB749-fill)" stroke-width="0"/><g transform="translate(1162-28.480004)"><rect width="219.139481" height="127.288004" rx="0" ry="0" transform="translate(169.713259 151.172)" fill="#fff" stroke-width="0"/><g clip-path="url(#eCNTKIEyFB761)"><g><path d="M373.463,236.503v32.132h46.537v8.863h-140.717v-90.855l94.182,49.86h-.002Zm-64.265-16.62v16.066c0,.421-.007,2.638-.007,2.638l11.092.139c1.16-12.317.277-14.586-11.085-18.841v-.002Zm26.596,18.832c2.917-4.606-10.35-10.779-11.079-9.962l-.012,9.973l11.089-.011h.002Zm-15.511,4.43c-2.761.429-10.15-1.092-11.71,1.085l.618,13.331h11.092v-14.414-.002Zm15.513,0h-11.093v14.415h11.093v-14.415Z" fill="#ededed"/><path d="M200.614,102.173c.078-3.737-.937-12.6953,1.092-14.9734L248.257,64.5v212.735h-22.16v-161.767l-25.485-13.296c-1.22,58.285.912,116.764,0,175.063h-32.131v-8.863-147.917l32.133-18.282Z" fill="#ededed"/><path d="M310.306,165.591L280.57,149.904l-.135-71.1022L249.547,63.48l.535-26.5235L310.306,0.5v165.091Z" fill="#ededed"/><path d="M404.476,243.15L259.519,165.414l-.175-14.222l144.051,76.984c2.46,2.763.482,11.06,1.082,14.972l-.001.002Z" fill="#ededed"/><path d="M340.223,181.103l-7.757-3.877v-160.1059l7.757,6.0933v157.8896Z" fill="#ededed"/><path d="M325.818,173.348l-6.648-2.216v-163.98466l6.648,4.98726v161.2134Z" fill="#ededed"/><path d="M353.519,188.86l-6.648-3.879v-157.8899l6.648,4.9872v156.7817Z" fill="#ededed"/></g><clipPath id="eCNTKIEyFB761"><rect width="318" height="277" rx="0" ry="0" transform="translate(102 0.5)" fill="#fff"/></clipPath></g><g id="eCNTKIEyFB763_ts" transform="translate(-7,278) scale(0,0)"><rect width="30" height="24" rx="0" ry="0" transform="translate(-15,-24)" fill="#727272"/></g><g id="eCNTKIEyFB764_ts" transform="translate(24,278) scale(0,0)"><rect width="30" height="24" rx="0" ry="0" transform="translate(-15,-24)" fill="#727272"/></g><g id="eCNTKIEyFB765_ts" transform="translate(14,253) scale(0,0)"><rect width="30" height="24" rx="0" ry="0" transform="translate(-15,-23.999999)" fill="#727272"/></g></g></svg>
